G04 #@! TF.FileFunction,Copper,L1,Top,Signal*
%FSLAX46Y46*%
G04 Gerber Fmt 4.6, Leading zero omitted, Abs format (unit mm)*
G04 Created by KiCad (PCBNEW (2014-10-31 BZR 5247)-product) date Monday, February 23, 2015 'PMt' 12:30:36 PM*
%MOMM*%
G01*
G04 APERTURE LIST*
%ADD10C,0.100000*%
%ADD11C,1.998980*%
%ADD12R,1.727200X1.727200*%
%ADD13O,1.727200X1.727200*%
%ADD14R,1.397000X1.397000*%
%ADD15C,1.397000*%
%ADD16C,1.699260*%
%ADD17R,1.699260X1.699260*%
%ADD18R,2.032000X2.032000*%
%ADD19O,2.032000X2.032000*%
%ADD20C,1.510000*%
%ADD21R,1.510000X1.510000*%
%ADD22C,2.000000*%
%ADD23C,2.032000*%
%ADD24C,0.254000*%
%ADD25C,1.016000*%
G04 APERTURE END LIST*
D10*
D11*
X116840000Y-99060000D03*
X116840000Y-109220000D03*
X113030000Y-114300000D03*
X102870000Y-114300000D03*
X143510000Y-99060000D03*
X143510000Y-109220000D03*
X170815000Y-94615000D03*
X170815000Y-104775000D03*
X175895000Y-88265000D03*
X175895000Y-98425000D03*
X170815000Y-80645000D03*
X170815000Y-90805000D03*
X160020000Y-66040000D03*
X160020000Y-76200000D03*
X144780000Y-66040000D03*
X144780000Y-76200000D03*
D12*
X95250000Y-88900000D03*
D13*
X95250000Y-86360000D03*
D12*
X138430000Y-107950000D03*
D13*
X138430000Y-105410000D03*
D12*
X168910000Y-109220000D03*
D13*
X171450000Y-109220000D03*
D12*
X93980000Y-95250000D03*
D13*
X96520000Y-95250000D03*
X93980000Y-97790000D03*
X96520000Y-97790000D03*
X93980000Y-100330000D03*
X96520000Y-100330000D03*
D12*
X166370000Y-68580000D03*
D13*
X166370000Y-71120000D03*
D11*
X120650000Y-88900000D03*
X120650000Y-99060000D03*
X128270000Y-99060000D03*
X128270000Y-88900000D03*
X132080000Y-99060000D03*
X132080000Y-88900000D03*
X124460000Y-88900000D03*
X124460000Y-99060000D03*
X134620000Y-113030000D03*
X134620000Y-102870000D03*
X97790000Y-104140000D03*
X97790000Y-114300000D03*
X111760000Y-109220000D03*
X111760000Y-99060000D03*
X147320000Y-88900000D03*
X147320000Y-99060000D03*
X154940000Y-99060000D03*
X154940000Y-88900000D03*
X158750000Y-99060000D03*
X158750000Y-88900000D03*
X151130000Y-88900000D03*
X151130000Y-99060000D03*
X175895000Y-103505000D03*
X186055000Y-103505000D03*
X175895000Y-79375000D03*
X186055000Y-79375000D03*
X175895000Y-83185000D03*
X186055000Y-83185000D03*
X170815000Y-65405000D03*
X170815000Y-75565000D03*
X156210000Y-66040000D03*
X156210000Y-76200000D03*
X152400000Y-76200000D03*
X152400000Y-66040000D03*
D14*
X129540000Y-102870000D03*
D15*
X127000000Y-102870000D03*
X124460000Y-102870000D03*
X121920000Y-102870000D03*
X121920000Y-110490000D03*
X124460000Y-110490000D03*
X127000000Y-110490000D03*
X129540000Y-110490000D03*
D14*
X177165000Y-71755000D03*
D15*
X179705000Y-71755000D03*
X182245000Y-71755000D03*
X184785000Y-71755000D03*
X184785000Y-64135000D03*
X182245000Y-64135000D03*
X179705000Y-64135000D03*
X177165000Y-64135000D03*
D14*
X129540000Y-71120000D03*
D15*
X132080000Y-71120000D03*
X134620000Y-71120000D03*
X137160000Y-71120000D03*
X137160000Y-63500000D03*
X134620000Y-63500000D03*
X132080000Y-63500000D03*
X129540000Y-63500000D03*
D11*
X118110000Y-76200000D03*
X118110000Y-66040000D03*
X129540000Y-76200000D03*
X139700000Y-76200000D03*
D16*
X123190000Y-66040000D03*
D17*
X123190000Y-76200000D03*
D18*
X110490000Y-58420000D03*
D19*
X113030000Y-58420000D03*
D11*
X148590000Y-76200000D03*
X148590000Y-66040000D03*
X113030000Y-76200000D03*
X113030000Y-66040000D03*
D20*
X163830000Y-102870000D03*
D21*
X163830000Y-107950000D03*
D20*
X163830000Y-105410000D03*
D22*
X102910000Y-94350000D03*
X105410000Y-94350000D03*
X107910000Y-94350000D03*
X102910000Y-108850000D03*
X105410000Y-108850000D03*
X107910000Y-108850000D03*
D14*
X156210000Y-102870000D03*
D15*
X153670000Y-102870000D03*
X151130000Y-102870000D03*
X148590000Y-102870000D03*
X148590000Y-110490000D03*
X151130000Y-110490000D03*
X153670000Y-110490000D03*
X156210000Y-110490000D03*
D18*
X102870000Y-58420000D03*
D19*
X105410000Y-58420000D03*
D23*
X139700000Y-93980000D03*
X153670000Y-114300000D03*
X128270000Y-114300000D03*
X165100000Y-86360000D03*
X182880000Y-86360000D03*
X163830000Y-82550000D03*
X176530000Y-60960000D03*
X132080000Y-60960000D03*
D24*
X154305000Y-111125000D02*
X154305000Y-110490000D01*
D25*
X139700000Y-93980000D02*
X139700000Y-101600000D01*
X139700000Y-101600000D02*
X143510000Y-105410000D01*
X143510000Y-105410000D02*
X144780000Y-105410000D01*
X144780000Y-105410000D02*
X146050000Y-106680000D01*
X146050000Y-111760000D02*
X146050000Y-113030000D01*
X146050000Y-106680000D02*
X146050000Y-111760000D01*
X146050000Y-113030000D02*
X147320000Y-114300000D01*
X147320000Y-114300000D02*
X153670000Y-114300000D01*
X144780000Y-111760000D02*
X140970000Y-115570000D01*
X140970000Y-115570000D02*
X129540000Y-115570000D01*
X129540000Y-115570000D02*
X128270000Y-114300000D01*
X146050000Y-111760000D02*
X144780000Y-111760000D01*
X165100000Y-86360000D02*
X182880000Y-86360000D01*
X163830000Y-82550000D02*
X163830000Y-64770000D01*
X163830000Y-64770000D02*
X167640000Y-60960000D01*
X167640000Y-60960000D02*
X176530000Y-60960000D01*
X160020000Y-60960000D02*
X158750000Y-59690000D01*
X158750000Y-59690000D02*
X133350000Y-59690000D01*
X133350000Y-59690000D02*
X132080000Y-60960000D01*
X163830000Y-64770000D02*
X160020000Y-60960000D01*
D24*
G36*
X191643000Y-121793000D02*
X188197861Y-121793000D01*
X188197861Y-82760702D01*
X187872374Y-81972962D01*
X187270208Y-81369744D01*
X186626819Y-81102586D01*
X186626819Y-63770310D01*
X186347058Y-63093237D01*
X185829488Y-62574763D01*
X185152904Y-62293820D01*
X184420310Y-62293181D01*
X183743237Y-62572942D01*
X183515056Y-62800725D01*
X183289488Y-62574763D01*
X182612904Y-62293820D01*
X181880310Y-62293181D01*
X181203237Y-62572942D01*
X180975056Y-62800725D01*
X180749488Y-62574763D01*
X180072904Y-62293820D01*
X179340310Y-62293181D01*
X178663237Y-62572942D01*
X178435056Y-62800725D01*
X178209488Y-62574763D01*
X178039203Y-62504054D01*
X178359244Y-62184572D01*
X178688624Y-61391336D01*
X178689374Y-60532433D01*
X178361378Y-59738623D01*
X177754572Y-59130756D01*
X176961336Y-58801376D01*
X176102433Y-58800626D01*
X175308623Y-59128622D01*
X175127929Y-59309000D01*
X167640000Y-59309000D01*
X167008190Y-59434675D01*
X166472567Y-59792566D01*
X163830000Y-62435133D01*
X161187433Y-59792567D01*
X159917433Y-58522567D01*
X159381811Y-58164675D01*
X158750000Y-58039000D01*
X133350000Y-58039000D01*
X132823013Y-58143824D01*
X132718189Y-58164675D01*
X132182567Y-58522567D01*
X131904288Y-58800845D01*
X131652433Y-58800626D01*
X130858623Y-59128622D01*
X130250756Y-59735428D01*
X129921376Y-60528664D01*
X129920626Y-61387567D01*
X130058552Y-61721375D01*
X129907904Y-61658820D01*
X129175310Y-61658181D01*
X128498237Y-61937942D01*
X127979763Y-62455512D01*
X127698820Y-63132096D01*
X127698181Y-63864690D01*
X127977942Y-64541763D01*
X128495512Y-65060237D01*
X129172096Y-65341180D01*
X129904690Y-65341819D01*
X130581763Y-65062058D01*
X130809943Y-64834274D01*
X131035512Y-65060237D01*
X131712096Y-65341180D01*
X132444690Y-65341819D01*
X133121763Y-65062058D01*
X133349943Y-64834274D01*
X133575512Y-65060237D01*
X134252096Y-65341180D01*
X134984690Y-65341819D01*
X135661763Y-65062058D01*
X135889943Y-64834274D01*
X136115512Y-65060237D01*
X136792096Y-65341180D01*
X137524690Y-65341819D01*
X138201763Y-65062058D01*
X138720237Y-64544488D01*
X139001180Y-63867904D01*
X139001819Y-63135310D01*
X138722058Y-62458237D01*
X138204488Y-61939763D01*
X137527904Y-61658820D01*
X136795310Y-61658181D01*
X136118237Y-61937942D01*
X135890056Y-62165725D01*
X135664488Y-61939763D01*
X134987904Y-61658820D01*
X134255310Y-61658181D01*
X134101416Y-61721768D01*
X134238624Y-61391336D01*
X134238667Y-61341000D01*
X158066134Y-61341000D01*
X158852567Y-62127433D01*
X162179000Y-65453866D01*
X162179000Y-81147495D01*
X162162861Y-81163605D01*
X162162861Y-75775702D01*
X161837374Y-74987962D01*
X161235208Y-74384744D01*
X160448037Y-74057883D01*
X159595702Y-74057139D01*
X158807962Y-74382626D01*
X158352861Y-74836933D01*
X158352861Y-65615702D01*
X158027374Y-64827962D01*
X157425208Y-64224744D01*
X156638037Y-63897883D01*
X155785702Y-63897139D01*
X154997962Y-64222626D01*
X154394744Y-64824792D01*
X154305183Y-65040477D01*
X154217374Y-64827962D01*
X153615208Y-64224744D01*
X152828037Y-63897883D01*
X151975702Y-63897139D01*
X151187962Y-64222626D01*
X150584744Y-64824792D01*
X150495183Y-65040477D01*
X150407374Y-64827962D01*
X149805208Y-64224744D01*
X149018037Y-63897883D01*
X148165702Y-63897139D01*
X147377962Y-64222626D01*
X146774744Y-64824792D01*
X146447883Y-65611963D01*
X146447139Y-66464298D01*
X146772626Y-67252038D01*
X147374792Y-67855256D01*
X148161963Y-68182117D01*
X149014298Y-68182861D01*
X149802038Y-67857374D01*
X150405256Y-67255208D01*
X150494816Y-67039522D01*
X150582626Y-67252038D01*
X151184792Y-67855256D01*
X151971963Y-68182117D01*
X152824298Y-68182861D01*
X153612038Y-67857374D01*
X154215256Y-67255208D01*
X154304816Y-67039522D01*
X154392626Y-67252038D01*
X154994792Y-67855256D01*
X155781963Y-68182117D01*
X156634298Y-68182861D01*
X157422038Y-67857374D01*
X158025256Y-67255208D01*
X158352117Y-66468037D01*
X158352861Y-65615702D01*
X158352861Y-74836933D01*
X158204744Y-74984792D01*
X158115183Y-75200477D01*
X158027374Y-74987962D01*
X157425208Y-74384744D01*
X156638037Y-74057883D01*
X155785702Y-74057139D01*
X154997962Y-74382626D01*
X154394744Y-74984792D01*
X154305183Y-75200477D01*
X154217374Y-74987962D01*
X153615208Y-74384744D01*
X152828037Y-74057883D01*
X151975702Y-74057139D01*
X151187962Y-74382626D01*
X150584744Y-74984792D01*
X150495183Y-75200477D01*
X150407374Y-74987962D01*
X149805208Y-74384744D01*
X149018037Y-74057883D01*
X148165702Y-74057139D01*
X147377962Y-74382626D01*
X146774744Y-74984792D01*
X146685183Y-75200477D01*
X146597374Y-74987962D01*
X145995208Y-74384744D01*
X145208037Y-74057883D01*
X144355702Y-74057139D01*
X143567962Y-74382626D01*
X142964744Y-74984792D01*
X142637883Y-75771963D01*
X142637139Y-76624298D01*
X142962626Y-77412038D01*
X143564792Y-78015256D01*
X144351963Y-78342117D01*
X145204298Y-78342861D01*
X145992038Y-78017374D01*
X146595256Y-77415208D01*
X146684816Y-77199522D01*
X146772626Y-77412038D01*
X147374792Y-78015256D01*
X148161963Y-78342117D01*
X149014298Y-78342861D01*
X149802038Y-78017374D01*
X150405256Y-77415208D01*
X150494816Y-77199522D01*
X150582626Y-77412038D01*
X151184792Y-78015256D01*
X151971963Y-78342117D01*
X152824298Y-78342861D01*
X153612038Y-78017374D01*
X154215256Y-77415208D01*
X154304816Y-77199522D01*
X154392626Y-77412038D01*
X154994792Y-78015256D01*
X155781963Y-78342117D01*
X156634298Y-78342861D01*
X157422038Y-78017374D01*
X158025256Y-77415208D01*
X158114816Y-77199522D01*
X158202626Y-77412038D01*
X158804792Y-78015256D01*
X159591963Y-78342117D01*
X160444298Y-78342861D01*
X161232038Y-78017374D01*
X161835256Y-77415208D01*
X162162117Y-76628037D01*
X162162861Y-75775702D01*
X162162861Y-81163605D01*
X162000756Y-81325428D01*
X161671376Y-82118664D01*
X161670626Y-82977567D01*
X161998622Y-83771377D01*
X162605428Y-84379244D01*
X163398664Y-84708624D01*
X163698044Y-84708885D01*
X163270756Y-85135428D01*
X162941376Y-85928664D01*
X162940626Y-86787567D01*
X163268622Y-87581377D01*
X163875428Y-88189244D01*
X164668664Y-88518624D01*
X165527567Y-88519374D01*
X166321377Y-88191378D01*
X166502070Y-88011000D01*
X173752731Y-88011000D01*
X173752139Y-88689298D01*
X174077626Y-89477038D01*
X174679792Y-90080256D01*
X175466963Y-90407117D01*
X176319298Y-90407861D01*
X177107038Y-90082374D01*
X177710256Y-89480208D01*
X178037117Y-88693037D01*
X178037712Y-88011000D01*
X181477495Y-88011000D01*
X181655428Y-88189244D01*
X182448664Y-88518624D01*
X183307567Y-88519374D01*
X184101377Y-88191378D01*
X184709244Y-87584572D01*
X185038624Y-86791336D01*
X185039374Y-85932433D01*
X184711378Y-85138623D01*
X184104572Y-84530756D01*
X183311336Y-84201376D01*
X182452433Y-84200626D01*
X181658623Y-84528622D01*
X181477929Y-84709000D01*
X177400924Y-84709000D01*
X177710256Y-84400208D01*
X178037117Y-83613037D01*
X178037861Y-82760702D01*
X177712374Y-81972962D01*
X177110208Y-81369744D01*
X176894522Y-81280183D01*
X177107038Y-81192374D01*
X177710256Y-80590208D01*
X178037117Y-79803037D01*
X178037861Y-78950702D01*
X177712374Y-78162962D01*
X177110208Y-77559744D01*
X176323037Y-77232883D01*
X175470702Y-77232139D01*
X174682962Y-77557626D01*
X174079744Y-78159792D01*
X173752883Y-78946963D01*
X173752139Y-79799298D01*
X174077626Y-80587038D01*
X174679792Y-81190256D01*
X174895477Y-81279816D01*
X174682962Y-81367626D01*
X174079744Y-81969792D01*
X173752883Y-82756963D01*
X173752139Y-83609298D01*
X174077626Y-84397038D01*
X174389043Y-84709000D01*
X172957861Y-84709000D01*
X172957861Y-80220702D01*
X172957861Y-75140702D01*
X172957861Y-64980702D01*
X172632374Y-64192962D01*
X172030208Y-63589744D01*
X171243037Y-63262883D01*
X170390702Y-63262139D01*
X169602962Y-63587626D01*
X168999744Y-64189792D01*
X168672883Y-64976963D01*
X168672139Y-65829298D01*
X168997626Y-66617038D01*
X169599792Y-67220256D01*
X170386963Y-67547117D01*
X171239298Y-67547861D01*
X172027038Y-67222374D01*
X172630256Y-66620208D01*
X172957117Y-65833037D01*
X172957861Y-64980702D01*
X172957861Y-75140702D01*
X172632374Y-74352962D01*
X172030208Y-73749744D01*
X171243037Y-73422883D01*
X170390702Y-73422139D01*
X169602962Y-73747626D01*
X168999744Y-74349792D01*
X168672883Y-75136963D01*
X168672139Y-75989298D01*
X168997626Y-76777038D01*
X169599792Y-77380256D01*
X170386963Y-77707117D01*
X171239298Y-77707861D01*
X172027038Y-77382374D01*
X172630256Y-76780208D01*
X172957117Y-75993037D01*
X172957861Y-75140702D01*
X172957861Y-80220702D01*
X172632374Y-79432962D01*
X172030208Y-78829744D01*
X171243037Y-78502883D01*
X170390702Y-78502139D01*
X169602962Y-78827626D01*
X168999744Y-79429792D01*
X168672883Y-80216963D01*
X168672139Y-81069298D01*
X168997626Y-81857038D01*
X169599792Y-82460256D01*
X170386963Y-82787117D01*
X171239298Y-82787861D01*
X172027038Y-82462374D01*
X172630256Y-81860208D01*
X172957117Y-81073037D01*
X172957861Y-80220702D01*
X172957861Y-84709000D01*
X166502504Y-84709000D01*
X166324572Y-84530756D01*
X165531336Y-84201376D01*
X165231955Y-84201114D01*
X165659244Y-83774572D01*
X165988624Y-82981336D01*
X165989374Y-82122433D01*
X165661378Y-81328623D01*
X165481000Y-81147929D01*
X165481000Y-72919203D01*
X165562795Y-72973857D01*
X166330688Y-73126600D01*
X166409312Y-73126600D01*
X167177205Y-72973857D01*
X167828192Y-72538880D01*
X168263169Y-71887893D01*
X168415912Y-71120000D01*
X168263169Y-70352107D01*
X168134341Y-70159304D01*
X168202589Y-70091057D01*
X168376600Y-69670957D01*
X168376600Y-69216243D01*
X168376600Y-67489043D01*
X168202589Y-67068942D01*
X167881057Y-66747411D01*
X167460957Y-66573400D01*
X167006243Y-66573400D01*
X165481000Y-66573400D01*
X165481000Y-65453866D01*
X168323866Y-62611000D01*
X175127495Y-62611000D01*
X175305428Y-62789244D01*
X175729965Y-62965527D01*
X175604763Y-63090512D01*
X175323820Y-63767096D01*
X175323181Y-64499690D01*
X175602942Y-65176763D01*
X176120512Y-65695237D01*
X176797096Y-65976180D01*
X177529690Y-65976819D01*
X178206763Y-65697058D01*
X178434943Y-65469274D01*
X178660512Y-65695237D01*
X179337096Y-65976180D01*
X180069690Y-65976819D01*
X180746763Y-65697058D01*
X180974943Y-65469274D01*
X181200512Y-65695237D01*
X181877096Y-65976180D01*
X182609690Y-65976819D01*
X183286763Y-65697058D01*
X183514943Y-65469274D01*
X183740512Y-65695237D01*
X184417096Y-65976180D01*
X185149690Y-65976819D01*
X185826763Y-65697058D01*
X186345237Y-65179488D01*
X186626180Y-64502904D01*
X186626819Y-63770310D01*
X186626819Y-81102586D01*
X186483037Y-81042883D01*
X185630702Y-81042139D01*
X184842962Y-81367626D01*
X184239744Y-81969792D01*
X184086819Y-82338077D01*
X184086819Y-71390310D01*
X183807058Y-70713237D01*
X183289488Y-70194763D01*
X182612904Y-69913820D01*
X181880310Y-69913181D01*
X181203237Y-70192942D01*
X180975056Y-70420725D01*
X180749488Y-70194763D01*
X180072904Y-69913820D01*
X179340310Y-69913181D01*
X178663237Y-70192942D01*
X178639792Y-70216345D01*
X178510957Y-70087511D01*
X178090857Y-69913500D01*
X177636143Y-69913500D01*
X176239143Y-69913500D01*
X175819042Y-70087511D01*
X175497511Y-70409043D01*
X175323500Y-70829143D01*
X175323500Y-71283857D01*
X175323500Y-72680857D01*
X175497511Y-73100958D01*
X175819043Y-73422489D01*
X176239143Y-73596500D01*
X176693857Y-73596500D01*
X178090857Y-73596500D01*
X178510958Y-73422489D01*
X178639379Y-73294067D01*
X178660512Y-73315237D01*
X179337096Y-73596180D01*
X180069690Y-73596819D01*
X180746763Y-73317058D01*
X180974943Y-73089274D01*
X181200512Y-73315237D01*
X181877096Y-73596180D01*
X182609690Y-73596819D01*
X183286763Y-73317058D01*
X183805237Y-72799488D01*
X184086180Y-72122904D01*
X184086819Y-71390310D01*
X184086819Y-82338077D01*
X183912883Y-82756963D01*
X183912139Y-83609298D01*
X184237626Y-84397038D01*
X184839792Y-85000256D01*
X185626963Y-85327117D01*
X186479298Y-85327861D01*
X187267038Y-85002374D01*
X187870256Y-84400208D01*
X188197117Y-83613037D01*
X188197861Y-82760702D01*
X188197861Y-121793000D01*
X178037861Y-121793000D01*
X178037861Y-103080702D01*
X178037861Y-98000702D01*
X177712374Y-97212962D01*
X177110208Y-96609744D01*
X176323037Y-96282883D01*
X175470702Y-96282139D01*
X174682962Y-96607626D01*
X174079744Y-97209792D01*
X173752883Y-97996963D01*
X173752139Y-98849298D01*
X174077626Y-99637038D01*
X174679792Y-100240256D01*
X175466963Y-100567117D01*
X176319298Y-100567861D01*
X177107038Y-100242374D01*
X177710256Y-99640208D01*
X178037117Y-98853037D01*
X178037861Y-98000702D01*
X178037861Y-103080702D01*
X177712374Y-102292962D01*
X177110208Y-101689744D01*
X176323037Y-101362883D01*
X175470702Y-101362139D01*
X174682962Y-101687626D01*
X174079744Y-102289792D01*
X173752883Y-103076963D01*
X173752139Y-103929298D01*
X174077626Y-104717038D01*
X174679792Y-105320256D01*
X175466963Y-105647117D01*
X176319298Y-105647861D01*
X177107038Y-105322374D01*
X177710256Y-104720208D01*
X178037117Y-103933037D01*
X178037861Y-103080702D01*
X178037861Y-121793000D01*
X173456600Y-121793000D01*
X173456600Y-109259312D01*
X173456600Y-109180688D01*
X173303857Y-108412795D01*
X172957861Y-107894977D01*
X172957861Y-104350702D01*
X172957861Y-94190702D01*
X172632374Y-93402962D01*
X172030208Y-92799744D01*
X171814522Y-92710183D01*
X172027038Y-92622374D01*
X172630256Y-92020208D01*
X172957117Y-91233037D01*
X172957861Y-90380702D01*
X172632374Y-89592962D01*
X172030208Y-88989744D01*
X171243037Y-88662883D01*
X170390702Y-88662139D01*
X169602962Y-88987626D01*
X168999744Y-89589792D01*
X168672883Y-90376963D01*
X168672139Y-91229298D01*
X168997626Y-92017038D01*
X169599792Y-92620256D01*
X169815477Y-92709816D01*
X169602962Y-92797626D01*
X168999744Y-93399792D01*
X168672883Y-94186963D01*
X168672139Y-95039298D01*
X168997626Y-95827038D01*
X169599792Y-96430256D01*
X170386963Y-96757117D01*
X171239298Y-96757861D01*
X172027038Y-96432374D01*
X172630256Y-95830208D01*
X172957117Y-95043037D01*
X172957861Y-94190702D01*
X172957861Y-104350702D01*
X172632374Y-103562962D01*
X172030208Y-102959744D01*
X171243037Y-102632883D01*
X170390702Y-102632139D01*
X169602962Y-102957626D01*
X168999744Y-103559792D01*
X168672883Y-104346963D01*
X168672139Y-105199298D01*
X168997626Y-105987038D01*
X169599792Y-106590256D01*
X170386963Y-106917117D01*
X171239298Y-106917861D01*
X172027038Y-106592374D01*
X172630256Y-105990208D01*
X172957117Y-105203037D01*
X172957861Y-104350702D01*
X172957861Y-107894977D01*
X172868880Y-107761808D01*
X172217893Y-107326831D01*
X171450000Y-107174088D01*
X170682107Y-107326831D01*
X170489304Y-107455658D01*
X170421057Y-107387411D01*
X170000957Y-107213400D01*
X169546243Y-107213400D01*
X167819043Y-107213400D01*
X167398942Y-107387411D01*
X167077411Y-107708943D01*
X166903400Y-108129043D01*
X166903400Y-108583757D01*
X166903400Y-110310957D01*
X167077411Y-110731058D01*
X167398943Y-111052589D01*
X167819043Y-111226600D01*
X168273757Y-111226600D01*
X170000957Y-111226600D01*
X170421058Y-111052589D01*
X170489304Y-110984342D01*
X170682107Y-111113169D01*
X171450000Y-111265912D01*
X172217893Y-111113169D01*
X172868880Y-110678192D01*
X173303857Y-110027205D01*
X173456600Y-109259312D01*
X173456600Y-121793000D01*
X165728329Y-121793000D01*
X165728329Y-105034121D01*
X165439984Y-104336274D01*
X165244177Y-104140125D01*
X165438108Y-103946534D01*
X165727670Y-103249192D01*
X165728329Y-102494121D01*
X165439984Y-101796274D01*
X164906534Y-101261892D01*
X164209192Y-100972330D01*
X163454121Y-100971671D01*
X162756274Y-101260016D01*
X162221892Y-101793466D01*
X161932330Y-102490808D01*
X161931671Y-103245879D01*
X162220016Y-103943726D01*
X162415822Y-104139874D01*
X162221892Y-104333466D01*
X161932330Y-105030808D01*
X161931671Y-105785879D01*
X162205341Y-106448211D01*
X162106011Y-106547543D01*
X161932000Y-106967643D01*
X161932000Y-107422357D01*
X161932000Y-108932357D01*
X162106011Y-109352458D01*
X162427543Y-109673989D01*
X162847643Y-109848000D01*
X163302357Y-109848000D01*
X164812357Y-109848000D01*
X165232458Y-109673989D01*
X165553989Y-109352457D01*
X165728000Y-108932357D01*
X165728000Y-108477643D01*
X165728000Y-106967643D01*
X165553989Y-106547542D01*
X165454207Y-106447761D01*
X165727670Y-105789192D01*
X165728329Y-105034121D01*
X165728329Y-121793000D01*
X160892861Y-121793000D01*
X160892861Y-98635702D01*
X160567374Y-97847962D01*
X159965208Y-97244744D01*
X159178037Y-96917883D01*
X158325702Y-96917139D01*
X157537962Y-97242626D01*
X157082861Y-97696933D01*
X157082861Y-88475702D01*
X156757374Y-87687962D01*
X156155208Y-87084744D01*
X155368037Y-86757883D01*
X154515702Y-86757139D01*
X153727962Y-87082626D01*
X153124744Y-87684792D01*
X153035183Y-87900477D01*
X152947374Y-87687962D01*
X152345208Y-87084744D01*
X151558037Y-86757883D01*
X150705702Y-86757139D01*
X149917962Y-87082626D01*
X149314744Y-87684792D01*
X148987883Y-88471963D01*
X148987139Y-89324298D01*
X149312626Y-90112038D01*
X149914792Y-90715256D01*
X150701963Y-91042117D01*
X151554298Y-91042861D01*
X152342038Y-90717374D01*
X152945256Y-90115208D01*
X153034816Y-89899522D01*
X153122626Y-90112038D01*
X153724792Y-90715256D01*
X154511963Y-91042117D01*
X155364298Y-91042861D01*
X156152038Y-90717374D01*
X156755256Y-90115208D01*
X157082117Y-89328037D01*
X157082861Y-88475702D01*
X157082861Y-97696933D01*
X156934744Y-97844792D01*
X156845183Y-98060477D01*
X156757374Y-97847962D01*
X156155208Y-97244744D01*
X155368037Y-96917883D01*
X154515702Y-96917139D01*
X153727962Y-97242626D01*
X153124744Y-97844792D01*
X153035183Y-98060477D01*
X152947374Y-97847962D01*
X152345208Y-97244744D01*
X151558037Y-96917883D01*
X150705702Y-96917139D01*
X149917962Y-97242626D01*
X149314744Y-97844792D01*
X149225183Y-98060477D01*
X149137374Y-97847962D01*
X148535208Y-97244744D01*
X147748037Y-96917883D01*
X146895702Y-96917139D01*
X146107962Y-97242626D01*
X145504744Y-97844792D01*
X145415183Y-98060477D01*
X145327374Y-97847962D01*
X144725208Y-97244744D01*
X143938037Y-96917883D01*
X143085702Y-96917139D01*
X142297962Y-97242626D01*
X141694744Y-97844792D01*
X141367883Y-98631963D01*
X141367139Y-99484298D01*
X141692626Y-100272038D01*
X142294792Y-100875256D01*
X143081963Y-101202117D01*
X143934298Y-101202861D01*
X144722038Y-100877374D01*
X145325256Y-100275208D01*
X145414816Y-100059522D01*
X145502626Y-100272038D01*
X146104792Y-100875256D01*
X146891963Y-101202117D01*
X147744298Y-101202861D01*
X148532038Y-100877374D01*
X149135256Y-100275208D01*
X149224816Y-100059522D01*
X149312626Y-100272038D01*
X149914792Y-100875256D01*
X150523598Y-101128054D01*
X150088237Y-101307942D01*
X149569763Y-101825512D01*
X149288820Y-102502096D01*
X149288181Y-103234690D01*
X149567942Y-103911763D01*
X150085512Y-104430237D01*
X150762096Y-104711180D01*
X151494690Y-104711819D01*
X152171763Y-104432058D01*
X152399943Y-104204274D01*
X152625512Y-104430237D01*
X153302096Y-104711180D01*
X154034690Y-104711819D01*
X154711763Y-104432058D01*
X154735207Y-104408654D01*
X154864043Y-104537489D01*
X155284143Y-104711500D01*
X155738857Y-104711500D01*
X157135857Y-104711500D01*
X157555958Y-104537489D01*
X157877489Y-104215957D01*
X158051500Y-103795857D01*
X158051500Y-103341143D01*
X158051500Y-101944143D01*
X157877489Y-101524042D01*
X157555957Y-101202511D01*
X157135857Y-101028500D01*
X156681143Y-101028500D01*
X155786284Y-101028500D01*
X156152038Y-100877374D01*
X156755256Y-100275208D01*
X156844816Y-100059522D01*
X156932626Y-100272038D01*
X157534792Y-100875256D01*
X158321963Y-101202117D01*
X159174298Y-101202861D01*
X159962038Y-100877374D01*
X160565256Y-100275208D01*
X160892117Y-99488037D01*
X160892861Y-98635702D01*
X160892861Y-121793000D01*
X158051819Y-121793000D01*
X158051819Y-110125310D01*
X157772058Y-109448237D01*
X157254488Y-108929763D01*
X156577904Y-108648820D01*
X155845310Y-108648181D01*
X155168237Y-108927942D01*
X154940056Y-109155725D01*
X154714488Y-108929763D01*
X154037904Y-108648820D01*
X153305310Y-108648181D01*
X152628237Y-108927942D01*
X152400056Y-109155725D01*
X152174488Y-108929763D01*
X151497904Y-108648820D01*
X150765310Y-108648181D01*
X150088237Y-108927942D01*
X149860056Y-109155725D01*
X149634488Y-108929763D01*
X148957904Y-108648820D01*
X148225310Y-108648181D01*
X147701000Y-108864821D01*
X147701000Y-106680000D01*
X147596175Y-106153013D01*
X147575325Y-106048190D01*
X147575325Y-106048189D01*
X147217433Y-105512567D01*
X145947433Y-104242567D01*
X145411811Y-103884675D01*
X144780000Y-103759000D01*
X144193866Y-103759000D01*
X141351000Y-100916133D01*
X141351000Y-95382504D01*
X141529244Y-95204572D01*
X141858624Y-94411336D01*
X141859374Y-93552433D01*
X141842861Y-93512468D01*
X141842861Y-75775702D01*
X141517374Y-74987962D01*
X140915208Y-74384744D01*
X140128037Y-74057883D01*
X139275702Y-74057139D01*
X138487962Y-74382626D01*
X137884744Y-74984792D01*
X137557883Y-75771963D01*
X137557139Y-76624298D01*
X137882626Y-77412038D01*
X138484792Y-78015256D01*
X139271963Y-78342117D01*
X140124298Y-78342861D01*
X140912038Y-78017374D01*
X141515256Y-77415208D01*
X141842117Y-76628037D01*
X141842861Y-75775702D01*
X141842861Y-93512468D01*
X141531378Y-92758623D01*
X140924572Y-92150756D01*
X140131336Y-91821376D01*
X139272433Y-91820626D01*
X138478623Y-92148622D01*
X137870756Y-92755428D01*
X137541376Y-93548664D01*
X137540626Y-94407567D01*
X137868622Y-95201377D01*
X138049000Y-95382070D01*
X138049000Y-101600000D01*
X138174675Y-102231811D01*
X138532567Y-102767433D01*
X139490571Y-103725437D01*
X139237205Y-103556143D01*
X138469312Y-103403400D01*
X138390688Y-103403400D01*
X137622795Y-103556143D01*
X136971808Y-103991120D01*
X136762861Y-104303830D01*
X136762861Y-102445702D01*
X136461819Y-101717123D01*
X136461819Y-70755310D01*
X136182058Y-70078237D01*
X135664488Y-69559763D01*
X134987904Y-69278820D01*
X134255310Y-69278181D01*
X133578237Y-69557942D01*
X133350056Y-69785725D01*
X133124488Y-69559763D01*
X132447904Y-69278820D01*
X131715310Y-69278181D01*
X131038237Y-69557942D01*
X131014792Y-69581345D01*
X130885957Y-69452511D01*
X130465857Y-69278500D01*
X130011143Y-69278500D01*
X128614143Y-69278500D01*
X128194042Y-69452511D01*
X127872511Y-69774043D01*
X127698500Y-70194143D01*
X127698500Y-70648857D01*
X127698500Y-72045857D01*
X127872511Y-72465958D01*
X128194043Y-72787489D01*
X128614143Y-72961500D01*
X129068857Y-72961500D01*
X130465857Y-72961500D01*
X130885958Y-72787489D01*
X131014379Y-72659067D01*
X131035512Y-72680237D01*
X131712096Y-72961180D01*
X132444690Y-72961819D01*
X133121763Y-72682058D01*
X133349943Y-72454274D01*
X133575512Y-72680237D01*
X134252096Y-72961180D01*
X134984690Y-72961819D01*
X135661763Y-72682058D01*
X136180237Y-72164488D01*
X136461180Y-71487904D01*
X136461819Y-70755310D01*
X136461819Y-101717123D01*
X136437374Y-101657962D01*
X135835208Y-101054744D01*
X135048037Y-100727883D01*
X134222861Y-100727162D01*
X134222861Y-98635702D01*
X133897374Y-97847962D01*
X133295208Y-97244744D01*
X132508037Y-96917883D01*
X131682861Y-96917162D01*
X131682861Y-75775702D01*
X131357374Y-74987962D01*
X130755208Y-74384744D01*
X129968037Y-74057883D01*
X129115702Y-74057139D01*
X128327962Y-74382626D01*
X127724744Y-74984792D01*
X127397883Y-75771963D01*
X127397139Y-76624298D01*
X127722626Y-77412038D01*
X128324792Y-78015256D01*
X129111963Y-78342117D01*
X129964298Y-78342861D01*
X130752038Y-78017374D01*
X131355256Y-77415208D01*
X131682117Y-76628037D01*
X131682861Y-75775702D01*
X131682861Y-96917162D01*
X131655702Y-96917139D01*
X130867962Y-97242626D01*
X130412861Y-97696933D01*
X130412861Y-88475702D01*
X130087374Y-87687962D01*
X129485208Y-87084744D01*
X128698037Y-86757883D01*
X127845702Y-86757139D01*
X127057962Y-87082626D01*
X126454744Y-87684792D01*
X126365183Y-87900477D01*
X126277374Y-87687962D01*
X125675208Y-87084744D01*
X125182975Y-86880351D01*
X125182975Y-65645380D01*
X124880255Y-64912740D01*
X124320208Y-64351715D01*
X123588098Y-64047717D01*
X122795380Y-64047025D01*
X122062740Y-64349745D01*
X121501715Y-64909792D01*
X121197717Y-65641902D01*
X121197025Y-66434620D01*
X121499745Y-67167260D01*
X122059792Y-67728285D01*
X122791902Y-68032283D01*
X123584620Y-68032975D01*
X124317260Y-67730255D01*
X124878285Y-67170208D01*
X125182283Y-66438098D01*
X125182975Y-65645380D01*
X125182975Y-86880351D01*
X125182630Y-86880208D01*
X125182630Y-77276987D01*
X125182630Y-76822273D01*
X125182630Y-75123013D01*
X125008619Y-74702912D01*
X124687087Y-74381381D01*
X124266987Y-74207370D01*
X123812273Y-74207370D01*
X122113013Y-74207370D01*
X121692912Y-74381381D01*
X121371381Y-74702913D01*
X121197370Y-75123013D01*
X121197370Y-75577727D01*
X121197370Y-77276987D01*
X121371381Y-77697088D01*
X121692913Y-78018619D01*
X122113013Y-78192630D01*
X122567727Y-78192630D01*
X124266987Y-78192630D01*
X124687088Y-78018619D01*
X125008619Y-77697087D01*
X125182630Y-77276987D01*
X125182630Y-86880208D01*
X124888037Y-86757883D01*
X124035702Y-86757139D01*
X123247962Y-87082626D01*
X122644744Y-87684792D01*
X122317883Y-88471963D01*
X122317139Y-89324298D01*
X122642626Y-90112038D01*
X123244792Y-90715256D01*
X124031963Y-91042117D01*
X124884298Y-91042861D01*
X125672038Y-90717374D01*
X126275256Y-90115208D01*
X126364816Y-89899522D01*
X126452626Y-90112038D01*
X127054792Y-90715256D01*
X127841963Y-91042117D01*
X128694298Y-91042861D01*
X129482038Y-90717374D01*
X130085256Y-90115208D01*
X130412117Y-89328037D01*
X130412861Y-88475702D01*
X130412861Y-97696933D01*
X130264744Y-97844792D01*
X130175183Y-98060477D01*
X130087374Y-97847962D01*
X129485208Y-97244744D01*
X128698037Y-96917883D01*
X127845702Y-96917139D01*
X127057962Y-97242626D01*
X126454744Y-97844792D01*
X126365183Y-98060477D01*
X126277374Y-97847962D01*
X125675208Y-97244744D01*
X124888037Y-96917883D01*
X124035702Y-96917139D01*
X123247962Y-97242626D01*
X122644744Y-97844792D01*
X122555183Y-98060477D01*
X122467374Y-97847962D01*
X121865208Y-97244744D01*
X121078037Y-96917883D01*
X120252861Y-96917162D01*
X120252861Y-75775702D01*
X119927374Y-74987962D01*
X119325208Y-74384744D01*
X118538037Y-74057883D01*
X117685702Y-74057139D01*
X116897962Y-74382626D01*
X116294744Y-74984792D01*
X115967883Y-75771963D01*
X115967139Y-76624298D01*
X116292626Y-77412038D01*
X116894792Y-78015256D01*
X117681963Y-78342117D01*
X118534298Y-78342861D01*
X119322038Y-78017374D01*
X119925256Y-77415208D01*
X120252117Y-76628037D01*
X120252861Y-75775702D01*
X120252861Y-96917162D01*
X120225702Y-96917139D01*
X119437962Y-97242626D01*
X118834744Y-97844792D01*
X118745183Y-98060477D01*
X118657374Y-97847962D01*
X118055208Y-97244744D01*
X117268037Y-96917883D01*
X116415702Y-96917139D01*
X115627962Y-97242626D01*
X115172861Y-97696933D01*
X115172861Y-75775702D01*
X114847374Y-74987962D01*
X114245208Y-74384744D01*
X113458037Y-74057883D01*
X112649000Y-74057176D01*
X112649000Y-59663357D01*
X112649000Y-59208643D01*
X112649000Y-57176643D01*
X112474989Y-56756542D01*
X112153457Y-56435011D01*
X111733357Y-56261000D01*
X111278643Y-56261000D01*
X109246643Y-56261000D01*
X108826542Y-56435011D01*
X108505011Y-56756543D01*
X108331000Y-57176643D01*
X108331000Y-57631357D01*
X108331000Y-59663357D01*
X108505011Y-60083458D01*
X108826543Y-60404989D01*
X109246643Y-60579000D01*
X109701357Y-60579000D01*
X111733357Y-60579000D01*
X112153458Y-60404989D01*
X112474989Y-60083457D01*
X112649000Y-59663357D01*
X112649000Y-74057176D01*
X112605702Y-74057139D01*
X111817962Y-74382626D01*
X111214744Y-74984792D01*
X110887883Y-75771963D01*
X110887139Y-76624298D01*
X111212626Y-77412038D01*
X111814792Y-78015256D01*
X112601963Y-78342117D01*
X113454298Y-78342861D01*
X114242038Y-78017374D01*
X114845256Y-77415208D01*
X115172117Y-76628037D01*
X115172861Y-75775702D01*
X115172861Y-97696933D01*
X115024744Y-97844792D01*
X114697883Y-98631963D01*
X114697139Y-99484298D01*
X115022626Y-100272038D01*
X115624792Y-100875256D01*
X116411963Y-101202117D01*
X117264298Y-101202861D01*
X118052038Y-100877374D01*
X118655256Y-100275208D01*
X118744816Y-100059522D01*
X118832626Y-100272038D01*
X119434792Y-100875256D01*
X120221963Y-101202117D01*
X121074298Y-101202861D01*
X121862038Y-100877374D01*
X122465256Y-100275208D01*
X122554816Y-100059522D01*
X122642626Y-100272038D01*
X123244792Y-100875256D01*
X123853598Y-101128054D01*
X123418237Y-101307942D01*
X122899763Y-101825512D01*
X122618820Y-102502096D01*
X122618181Y-103234690D01*
X122897942Y-103911763D01*
X123415512Y-104430237D01*
X124092096Y-104711180D01*
X124824690Y-104711819D01*
X125501763Y-104432058D01*
X125729943Y-104204274D01*
X125955512Y-104430237D01*
X126632096Y-104711180D01*
X127364690Y-104711819D01*
X128041763Y-104432058D01*
X128065207Y-104408654D01*
X128194043Y-104537489D01*
X128614143Y-104711500D01*
X129068857Y-104711500D01*
X130465857Y-104711500D01*
X130885958Y-104537489D01*
X131207489Y-104215957D01*
X131381500Y-103795857D01*
X131381500Y-103341143D01*
X131381500Y-101944143D01*
X131207489Y-101524042D01*
X130885957Y-101202511D01*
X130465857Y-101028500D01*
X130011143Y-101028500D01*
X129116284Y-101028500D01*
X129482038Y-100877374D01*
X130085256Y-100275208D01*
X130174816Y-100059522D01*
X130262626Y-100272038D01*
X130864792Y-100875256D01*
X131651963Y-101202117D01*
X132504298Y-101202861D01*
X133292038Y-100877374D01*
X133895256Y-100275208D01*
X134222117Y-99488037D01*
X134222861Y-98635702D01*
X134222861Y-100727162D01*
X134195702Y-100727139D01*
X133407962Y-101052626D01*
X132804744Y-101654792D01*
X132477883Y-102441963D01*
X132477139Y-103294298D01*
X132802626Y-104082038D01*
X133404792Y-104685256D01*
X134191963Y-105012117D01*
X135044298Y-105012861D01*
X135832038Y-104687374D01*
X136435256Y-104085208D01*
X136762117Y-103298037D01*
X136762861Y-102445702D01*
X136762861Y-104303830D01*
X136536831Y-104642107D01*
X136384088Y-105410000D01*
X136536831Y-106177893D01*
X136665658Y-106370695D01*
X136597411Y-106438943D01*
X136423400Y-106859043D01*
X136423400Y-107313757D01*
X136423400Y-109040957D01*
X136597411Y-109461058D01*
X136918943Y-109782589D01*
X137339043Y-109956600D01*
X137793757Y-109956600D01*
X139520957Y-109956600D01*
X139941058Y-109782589D01*
X140262589Y-109461057D01*
X140436600Y-109040957D01*
X140436600Y-108586243D01*
X140436600Y-106859043D01*
X140262589Y-106438942D01*
X140194342Y-106370695D01*
X140323169Y-106177893D01*
X140475912Y-105410000D01*
X140323169Y-104642107D01*
X140153874Y-104388741D01*
X142342567Y-106577434D01*
X142878190Y-106935325D01*
X143510000Y-107061000D01*
X144096134Y-107061000D01*
X144237268Y-107202134D01*
X143938037Y-107077883D01*
X143085702Y-107077139D01*
X142297962Y-107402626D01*
X141694744Y-108004792D01*
X141367883Y-108791963D01*
X141367139Y-109644298D01*
X141692626Y-110432038D01*
X142294792Y-111035256D01*
X142913124Y-111292009D01*
X140286133Y-113919000D01*
X136570708Y-113919000D01*
X136762117Y-113458037D01*
X136762861Y-112605702D01*
X136437374Y-111817962D01*
X135835208Y-111214744D01*
X135048037Y-110887883D01*
X134195702Y-110887139D01*
X133407962Y-111212626D01*
X132804744Y-111814792D01*
X132477883Y-112601963D01*
X132477139Y-113454298D01*
X132669149Y-113919000D01*
X131381819Y-113919000D01*
X131381819Y-110125310D01*
X131102058Y-109448237D01*
X130584488Y-108929763D01*
X129907904Y-108648820D01*
X129175310Y-108648181D01*
X128498237Y-108927942D01*
X128270056Y-109155725D01*
X128044488Y-108929763D01*
X127367904Y-108648820D01*
X126635310Y-108648181D01*
X125958237Y-108927942D01*
X125730056Y-109155725D01*
X125504488Y-108929763D01*
X124827904Y-108648820D01*
X124095310Y-108648181D01*
X123418237Y-108927942D01*
X123190056Y-109155725D01*
X122964488Y-108929763D01*
X122287904Y-108648820D01*
X121555310Y-108648181D01*
X120878237Y-108927942D01*
X120359763Y-109445512D01*
X120078820Y-110122096D01*
X120078181Y-110854690D01*
X120357942Y-111531763D01*
X120875512Y-112050237D01*
X121552096Y-112331180D01*
X122284690Y-112331819D01*
X122961763Y-112052058D01*
X123189943Y-111824274D01*
X123415512Y-112050237D01*
X124092096Y-112331180D01*
X124824690Y-112331819D01*
X125501763Y-112052058D01*
X125729943Y-111824274D01*
X125955512Y-112050237D01*
X126632096Y-112331180D01*
X127364690Y-112331819D01*
X128041763Y-112052058D01*
X128269943Y-111824274D01*
X128495512Y-112050237D01*
X129172096Y-112331180D01*
X129904690Y-112331819D01*
X130581763Y-112052058D01*
X131100237Y-111534488D01*
X131381180Y-110857904D01*
X131381819Y-110125310D01*
X131381819Y-113919000D01*
X130429333Y-113919000D01*
X130429374Y-113872433D01*
X130101378Y-113078623D01*
X129494572Y-112470756D01*
X128701336Y-112141376D01*
X127842433Y-112140626D01*
X127048623Y-112468622D01*
X126440756Y-113075428D01*
X126111376Y-113868664D01*
X126110626Y-114727567D01*
X126438622Y-115521377D01*
X127045428Y-116129244D01*
X127838664Y-116458624D01*
X128093980Y-116458846D01*
X128372567Y-116737433D01*
X128908189Y-117095325D01*
X128908190Y-117095325D01*
X129013013Y-117116175D01*
X129540000Y-117221000D01*
X140970000Y-117221000D01*
X141601810Y-117095325D01*
X141601811Y-117095325D01*
X142137433Y-116737433D01*
X144800402Y-114074464D01*
X144882567Y-114197433D01*
X146152567Y-115467433D01*
X146688189Y-115825325D01*
X146688190Y-115825325D01*
X146793013Y-115846175D01*
X147320000Y-115951000D01*
X152267495Y-115951000D01*
X152445428Y-116129244D01*
X153238664Y-116458624D01*
X154097567Y-116459374D01*
X154891377Y-116131378D01*
X155499244Y-115524572D01*
X155828624Y-114731336D01*
X155829374Y-113872433D01*
X155501378Y-113078623D01*
X154894572Y-112470756D01*
X154580268Y-112340245D01*
X154791008Y-112298327D01*
X155164227Y-112048950D01*
X155165512Y-112050237D01*
X155842096Y-112331180D01*
X156574690Y-112331819D01*
X157251763Y-112052058D01*
X157770237Y-111534488D01*
X158051180Y-110857904D01*
X158051819Y-110125310D01*
X158051819Y-121793000D01*
X118982861Y-121793000D01*
X118982861Y-108795702D01*
X118657374Y-108007962D01*
X118055208Y-107404744D01*
X117268037Y-107077883D01*
X116415702Y-107077139D01*
X115627962Y-107402626D01*
X115024744Y-108004792D01*
X114697883Y-108791963D01*
X114697139Y-109644298D01*
X115022626Y-110432038D01*
X115624792Y-111035256D01*
X116411963Y-111362117D01*
X117264298Y-111362861D01*
X118052038Y-111037374D01*
X118655256Y-110435208D01*
X118982117Y-109648037D01*
X118982861Y-108795702D01*
X118982861Y-121793000D01*
X113902861Y-121793000D01*
X113902861Y-108795702D01*
X113577374Y-108007962D01*
X112975208Y-107404744D01*
X112188037Y-107077883D01*
X111335702Y-107077139D01*
X110547962Y-107402626D01*
X110053371Y-107896354D01*
X110053371Y-93925601D01*
X109727806Y-93137674D01*
X109125497Y-92534312D01*
X108338139Y-92207373D01*
X107485601Y-92206629D01*
X106697674Y-92532194D01*
X106660463Y-92569339D01*
X106625497Y-92534312D01*
X105838139Y-92207373D01*
X105029000Y-92206666D01*
X105029000Y-59663357D01*
X105029000Y-59208643D01*
X105029000Y-57176643D01*
X104854989Y-56756542D01*
X104533457Y-56435011D01*
X104113357Y-56261000D01*
X103658643Y-56261000D01*
X101626643Y-56261000D01*
X101206542Y-56435011D01*
X100885011Y-56756543D01*
X100711000Y-57176643D01*
X100711000Y-57631357D01*
X100711000Y-59663357D01*
X100885011Y-60083458D01*
X101206543Y-60404989D01*
X101626643Y-60579000D01*
X102081357Y-60579000D01*
X104113357Y-60579000D01*
X104533458Y-60404989D01*
X104854989Y-60083457D01*
X105029000Y-59663357D01*
X105029000Y-92206666D01*
X104985601Y-92206629D01*
X104197674Y-92532194D01*
X104160463Y-92569339D01*
X104125497Y-92534312D01*
X103338139Y-92207373D01*
X102485601Y-92206629D01*
X101697674Y-92532194D01*
X101094312Y-93134503D01*
X100767373Y-93921861D01*
X100766629Y-94774399D01*
X101092194Y-95562326D01*
X101694503Y-96165688D01*
X102481861Y-96492627D01*
X103334399Y-96493371D01*
X104122326Y-96167806D01*
X104159536Y-96130660D01*
X104194503Y-96165688D01*
X104981861Y-96492627D01*
X105834399Y-96493371D01*
X106622326Y-96167806D01*
X106659536Y-96130660D01*
X106694503Y-96165688D01*
X107481861Y-96492627D01*
X108334399Y-96493371D01*
X109122326Y-96167806D01*
X109725688Y-95565497D01*
X110052627Y-94778139D01*
X110053371Y-93925601D01*
X110053371Y-107896354D01*
X109944744Y-108004792D01*
X109912039Y-108083553D01*
X109727806Y-107637674D01*
X109125497Y-107034312D01*
X108338139Y-106707373D01*
X107485601Y-106706629D01*
X106697674Y-107032194D01*
X106660463Y-107069339D01*
X106625497Y-107034312D01*
X105838139Y-106707373D01*
X104985601Y-106706629D01*
X104197674Y-107032194D01*
X104160463Y-107069339D01*
X104125497Y-107034312D01*
X103338139Y-106707373D01*
X102485601Y-106706629D01*
X101697674Y-107032194D01*
X101094312Y-107634503D01*
X100767373Y-108421861D01*
X100766629Y-109274399D01*
X101092194Y-110062326D01*
X101694503Y-110665688D01*
X102481861Y-110992627D01*
X103334399Y-110993371D01*
X104122326Y-110667806D01*
X104159536Y-110630660D01*
X104194503Y-110665688D01*
X104981861Y-110992627D01*
X105834399Y-110993371D01*
X106622326Y-110667806D01*
X106659536Y-110630660D01*
X106694503Y-110665688D01*
X107481861Y-110992627D01*
X108334399Y-110993371D01*
X109122326Y-110667806D01*
X109725688Y-110065497D01*
X109758512Y-109986447D01*
X109942626Y-110432038D01*
X110544792Y-111035256D01*
X111331963Y-111362117D01*
X112184298Y-111362861D01*
X112972038Y-111037374D01*
X113575256Y-110435208D01*
X113902117Y-109648037D01*
X113902861Y-108795702D01*
X113902861Y-121793000D01*
X105012861Y-121793000D01*
X105012861Y-113875702D01*
X104687374Y-113087962D01*
X104085208Y-112484744D01*
X103298037Y-112157883D01*
X102445702Y-112157139D01*
X101657962Y-112482626D01*
X101054744Y-113084792D01*
X100727883Y-113871963D01*
X100727139Y-114724298D01*
X101052626Y-115512038D01*
X101654792Y-116115256D01*
X102441963Y-116442117D01*
X103294298Y-116442861D01*
X104082038Y-116117374D01*
X104685256Y-115515208D01*
X105012117Y-114728037D01*
X105012861Y-113875702D01*
X105012861Y-121793000D01*
X99932861Y-121793000D01*
X99932861Y-113875702D01*
X99932861Y-103715702D01*
X99607374Y-102927962D01*
X99005208Y-102324744D01*
X98218037Y-101997883D01*
X97625829Y-101997366D01*
X97938880Y-101788192D01*
X98373857Y-101137205D01*
X98526600Y-100369312D01*
X98526600Y-100290688D01*
X98373857Y-99522795D01*
X98064626Y-99060000D01*
X98373857Y-98597205D01*
X98526600Y-97829312D01*
X98526600Y-97750688D01*
X98373857Y-96982795D01*
X98064626Y-96520000D01*
X98373857Y-96057205D01*
X98526600Y-95289312D01*
X98526600Y-95210688D01*
X98373857Y-94442795D01*
X97938880Y-93791808D01*
X97295912Y-93362189D01*
X97295912Y-86360000D01*
X97143169Y-85592107D01*
X96708192Y-84941120D01*
X96057205Y-84506143D01*
X95289312Y-84353400D01*
X95210688Y-84353400D01*
X94442795Y-84506143D01*
X93791808Y-84941120D01*
X93356831Y-85592107D01*
X93204088Y-86360000D01*
X93356831Y-87127893D01*
X93485658Y-87320695D01*
X93417411Y-87388943D01*
X93243400Y-87809043D01*
X93243400Y-88263757D01*
X93243400Y-89990957D01*
X93417411Y-90411058D01*
X93738943Y-90732589D01*
X94159043Y-90906600D01*
X94613757Y-90906600D01*
X96340957Y-90906600D01*
X96761058Y-90732589D01*
X97082589Y-90411057D01*
X97256600Y-89990957D01*
X97256600Y-89536243D01*
X97256600Y-87809043D01*
X97082589Y-87388942D01*
X97014342Y-87320695D01*
X97143169Y-87127893D01*
X97295912Y-86360000D01*
X97295912Y-93362189D01*
X97287893Y-93356831D01*
X96520000Y-93204088D01*
X95752107Y-93356831D01*
X95101120Y-93791808D01*
X94666143Y-94442795D01*
X94513400Y-95210688D01*
X94513400Y-95289312D01*
X94629560Y-95873293D01*
X93980000Y-95744088D01*
X93212107Y-95896831D01*
X92561120Y-96331808D01*
X92126143Y-96982795D01*
X91973400Y-97750688D01*
X91973400Y-97829312D01*
X92126143Y-98597205D01*
X92561120Y-99248192D01*
X93212107Y-99683169D01*
X93980000Y-99835912D01*
X94629560Y-99706706D01*
X94513400Y-100290688D01*
X94513400Y-100369312D01*
X94666143Y-101137205D01*
X95101120Y-101788192D01*
X95752107Y-102223169D01*
X96520000Y-102375912D01*
X96525723Y-102374773D01*
X95974744Y-102924792D01*
X95647883Y-103711963D01*
X95647139Y-104564298D01*
X95972626Y-105352038D01*
X96574792Y-105955256D01*
X97361963Y-106282117D01*
X98214298Y-106282861D01*
X99002038Y-105957374D01*
X99605256Y-105355208D01*
X99932117Y-104568037D01*
X99932861Y-103715702D01*
X99932861Y-113875702D01*
X99607374Y-113087962D01*
X99005208Y-112484744D01*
X98218037Y-112157883D01*
X97365702Y-112157139D01*
X96577962Y-112482626D01*
X95974744Y-113084792D01*
X95647883Y-113871963D01*
X95647139Y-114724298D01*
X95972626Y-115512038D01*
X96574792Y-116115256D01*
X97361963Y-116442117D01*
X98214298Y-116442861D01*
X99002038Y-116117374D01*
X99605256Y-115515208D01*
X99932117Y-114728037D01*
X99932861Y-113875702D01*
X99932861Y-121793000D01*
X87757000Y-121793000D01*
X87757000Y-120650000D01*
X87757000Y-55880000D01*
X87757000Y-53467000D01*
X191643000Y-53467000D01*
X191643000Y-121793000D01*
X191643000Y-121793000D01*
G37*
X191643000Y-121793000D02*
X188197861Y-121793000D01*
X188197861Y-82760702D01*
X187872374Y-81972962D01*
X187270208Y-81369744D01*
X186626819Y-81102586D01*
X186626819Y-63770310D01*
X186347058Y-63093237D01*
X185829488Y-62574763D01*
X185152904Y-62293820D01*
X184420310Y-62293181D01*
X183743237Y-62572942D01*
X183515056Y-62800725D01*
X183289488Y-62574763D01*
X182612904Y-62293820D01*
X181880310Y-62293181D01*
X181203237Y-62572942D01*
X180975056Y-62800725D01*
X180749488Y-62574763D01*
X180072904Y-62293820D01*
X179340310Y-62293181D01*
X178663237Y-62572942D01*
X178435056Y-62800725D01*
X178209488Y-62574763D01*
X178039203Y-62504054D01*
X178359244Y-62184572D01*
X178688624Y-61391336D01*
X178689374Y-60532433D01*
X178361378Y-59738623D01*
X177754572Y-59130756D01*
X176961336Y-58801376D01*
X176102433Y-58800626D01*
X175308623Y-59128622D01*
X175127929Y-59309000D01*
X167640000Y-59309000D01*
X167008190Y-59434675D01*
X166472567Y-59792566D01*
X163830000Y-62435133D01*
X161187433Y-59792567D01*
X159917433Y-58522567D01*
X159381811Y-58164675D01*
X158750000Y-58039000D01*
X133350000Y-58039000D01*
X132823013Y-58143824D01*
X132718189Y-58164675D01*
X132182567Y-58522567D01*
X131904288Y-58800845D01*
X131652433Y-58800626D01*
X130858623Y-59128622D01*
X130250756Y-59735428D01*
X129921376Y-60528664D01*
X129920626Y-61387567D01*
X130058552Y-61721375D01*
X129907904Y-61658820D01*
X129175310Y-61658181D01*
X128498237Y-61937942D01*
X127979763Y-62455512D01*
X127698820Y-63132096D01*
X127698181Y-63864690D01*
X127977942Y-64541763D01*
X128495512Y-65060237D01*
X129172096Y-65341180D01*
X129904690Y-65341819D01*
X130581763Y-65062058D01*
X130809943Y-64834274D01*
X131035512Y-65060237D01*
X131712096Y-65341180D01*
X132444690Y-65341819D01*
X133121763Y-65062058D01*
X133349943Y-64834274D01*
X133575512Y-65060237D01*
X134252096Y-65341180D01*
X134984690Y-65341819D01*
X135661763Y-65062058D01*
X135889943Y-64834274D01*
X136115512Y-65060237D01*
X136792096Y-65341180D01*
X137524690Y-65341819D01*
X138201763Y-65062058D01*
X138720237Y-64544488D01*
X139001180Y-63867904D01*
X139001819Y-63135310D01*
X138722058Y-62458237D01*
X138204488Y-61939763D01*
X137527904Y-61658820D01*
X136795310Y-61658181D01*
X136118237Y-61937942D01*
X135890056Y-62165725D01*
X135664488Y-61939763D01*
X134987904Y-61658820D01*
X134255310Y-61658181D01*
X134101416Y-61721768D01*
X134238624Y-61391336D01*
X134238667Y-61341000D01*
X158066134Y-61341000D01*
X158852567Y-62127433D01*
X162179000Y-65453866D01*
X162179000Y-81147495D01*
X162162861Y-81163605D01*
X162162861Y-75775702D01*
X161837374Y-74987962D01*
X161235208Y-74384744D01*
X160448037Y-74057883D01*
X159595702Y-74057139D01*
X158807962Y-74382626D01*
X158352861Y-74836933D01*
X158352861Y-65615702D01*
X158027374Y-64827962D01*
X157425208Y-64224744D01*
X156638037Y-63897883D01*
X155785702Y-63897139D01*
X154997962Y-64222626D01*
X154394744Y-64824792D01*
X154305183Y-65040477D01*
X154217374Y-64827962D01*
X153615208Y-64224744D01*
X152828037Y-63897883D01*
X151975702Y-63897139D01*
X151187962Y-64222626D01*
X150584744Y-64824792D01*
X150495183Y-65040477D01*
X150407374Y-64827962D01*
X149805208Y-64224744D01*
X149018037Y-63897883D01*
X148165702Y-63897139D01*
X147377962Y-64222626D01*
X146774744Y-64824792D01*
X146447883Y-65611963D01*
X146447139Y-66464298D01*
X146772626Y-67252038D01*
X147374792Y-67855256D01*
X148161963Y-68182117D01*
X149014298Y-68182861D01*
X149802038Y-67857374D01*
X150405256Y-67255208D01*
X150494816Y-67039522D01*
X150582626Y-67252038D01*
X151184792Y-67855256D01*
X151971963Y-68182117D01*
X152824298Y-68182861D01*
X153612038Y-67857374D01*
X154215256Y-67255208D01*
X154304816Y-67039522D01*
X154392626Y-67252038D01*
X154994792Y-67855256D01*
X155781963Y-68182117D01*
X156634298Y-68182861D01*
X157422038Y-67857374D01*
X158025256Y-67255208D01*
X158352117Y-66468037D01*
X158352861Y-65615702D01*
X158352861Y-74836933D01*
X158204744Y-74984792D01*
X158115183Y-75200477D01*
X158027374Y-74987962D01*
X157425208Y-74384744D01*
X156638037Y-74057883D01*
X155785702Y-74057139D01*
X154997962Y-74382626D01*
X154394744Y-74984792D01*
X154305183Y-75200477D01*
X154217374Y-74987962D01*
X153615208Y-74384744D01*
X152828037Y-74057883D01*
X151975702Y-74057139D01*
X151187962Y-74382626D01*
X150584744Y-74984792D01*
X150495183Y-75200477D01*
X150407374Y-74987962D01*
X149805208Y-74384744D01*
X149018037Y-74057883D01*
X148165702Y-74057139D01*
X147377962Y-74382626D01*
X146774744Y-74984792D01*
X146685183Y-75200477D01*
X146597374Y-74987962D01*
X145995208Y-74384744D01*
X145208037Y-74057883D01*
X144355702Y-74057139D01*
X143567962Y-74382626D01*
X142964744Y-74984792D01*
X142637883Y-75771963D01*
X142637139Y-76624298D01*
X142962626Y-77412038D01*
X143564792Y-78015256D01*
X144351963Y-78342117D01*
X145204298Y-78342861D01*
X145992038Y-78017374D01*
X146595256Y-77415208D01*
X146684816Y-77199522D01*
X146772626Y-77412038D01*
X147374792Y-78015256D01*
X148161963Y-78342117D01*
X149014298Y-78342861D01*
X149802038Y-78017374D01*
X150405256Y-77415208D01*
X150494816Y-77199522D01*
X150582626Y-77412038D01*
X151184792Y-78015256D01*
X151971963Y-78342117D01*
X152824298Y-78342861D01*
X153612038Y-78017374D01*
X154215256Y-77415208D01*
X154304816Y-77199522D01*
X154392626Y-77412038D01*
X154994792Y-78015256D01*
X155781963Y-78342117D01*
X156634298Y-78342861D01*
X157422038Y-78017374D01*
X158025256Y-77415208D01*
X158114816Y-77199522D01*
X158202626Y-77412038D01*
X158804792Y-78015256D01*
X159591963Y-78342117D01*
X160444298Y-78342861D01*
X161232038Y-78017374D01*
X161835256Y-77415208D01*
X162162117Y-76628037D01*
X162162861Y-75775702D01*
X162162861Y-81163605D01*
X162000756Y-81325428D01*
X161671376Y-82118664D01*
X161670626Y-82977567D01*
X161998622Y-83771377D01*
X162605428Y-84379244D01*
X163398664Y-84708624D01*
X163698044Y-84708885D01*
X163270756Y-85135428D01*
X162941376Y-85928664D01*
X162940626Y-86787567D01*
X163268622Y-87581377D01*
X163875428Y-88189244D01*
X164668664Y-88518624D01*
X165527567Y-88519374D01*
X166321377Y-88191378D01*
X166502070Y-88011000D01*
X173752731Y-88011000D01*
X173752139Y-88689298D01*
X174077626Y-89477038D01*
X174679792Y-90080256D01*
X175466963Y-90407117D01*
X176319298Y-90407861D01*
X177107038Y-90082374D01*
X177710256Y-89480208D01*
X178037117Y-88693037D01*
X178037712Y-88011000D01*
X181477495Y-88011000D01*
X181655428Y-88189244D01*
X182448664Y-88518624D01*
X183307567Y-88519374D01*
X184101377Y-88191378D01*
X184709244Y-87584572D01*
X185038624Y-86791336D01*
X185039374Y-85932433D01*
X184711378Y-85138623D01*
X184104572Y-84530756D01*
X183311336Y-84201376D01*
X182452433Y-84200626D01*
X181658623Y-84528622D01*
X181477929Y-84709000D01*
X177400924Y-84709000D01*
X177710256Y-84400208D01*
X178037117Y-83613037D01*
X178037861Y-82760702D01*
X177712374Y-81972962D01*
X177110208Y-81369744D01*
X176894522Y-81280183D01*
X177107038Y-81192374D01*
X177710256Y-80590208D01*
X178037117Y-79803037D01*
X178037861Y-78950702D01*
X177712374Y-78162962D01*
X177110208Y-77559744D01*
X176323037Y-77232883D01*
X175470702Y-77232139D01*
X174682962Y-77557626D01*
X174079744Y-78159792D01*
X173752883Y-78946963D01*
X173752139Y-79799298D01*
X174077626Y-80587038D01*
X174679792Y-81190256D01*
X174895477Y-81279816D01*
X174682962Y-81367626D01*
X174079744Y-81969792D01*
X173752883Y-82756963D01*
X173752139Y-83609298D01*
X174077626Y-84397038D01*
X174389043Y-84709000D01*
X172957861Y-84709000D01*
X172957861Y-80220702D01*
X172957861Y-75140702D01*
X172957861Y-64980702D01*
X172632374Y-64192962D01*
X172030208Y-63589744D01*
X171243037Y-63262883D01*
X170390702Y-63262139D01*
X169602962Y-63587626D01*
X168999744Y-64189792D01*
X168672883Y-64976963D01*
X168672139Y-65829298D01*
X168997626Y-66617038D01*
X169599792Y-67220256D01*
X170386963Y-67547117D01*
X171239298Y-67547861D01*
X172027038Y-67222374D01*
X172630256Y-66620208D01*
X172957117Y-65833037D01*
X172957861Y-64980702D01*
X172957861Y-75140702D01*
X172632374Y-74352962D01*
X172030208Y-73749744D01*
X171243037Y-73422883D01*
X170390702Y-73422139D01*
X169602962Y-73747626D01*
X168999744Y-74349792D01*
X168672883Y-75136963D01*
X168672139Y-75989298D01*
X168997626Y-76777038D01*
X169599792Y-77380256D01*
X170386963Y-77707117D01*
X171239298Y-77707861D01*
X172027038Y-77382374D01*
X172630256Y-76780208D01*
X172957117Y-75993037D01*
X172957861Y-75140702D01*
X172957861Y-80220702D01*
X172632374Y-79432962D01*
X172030208Y-78829744D01*
X171243037Y-78502883D01*
X170390702Y-78502139D01*
X169602962Y-78827626D01*
X168999744Y-79429792D01*
X168672883Y-80216963D01*
X168672139Y-81069298D01*
X168997626Y-81857038D01*
X169599792Y-82460256D01*
X170386963Y-82787117D01*
X171239298Y-82787861D01*
X172027038Y-82462374D01*
X172630256Y-81860208D01*
X172957117Y-81073037D01*
X172957861Y-80220702D01*
X172957861Y-84709000D01*
X166502504Y-84709000D01*
X166324572Y-84530756D01*
X165531336Y-84201376D01*
X165231955Y-84201114D01*
X165659244Y-83774572D01*
X165988624Y-82981336D01*
X165989374Y-82122433D01*
X165661378Y-81328623D01*
X165481000Y-81147929D01*
X165481000Y-72919203D01*
X165562795Y-72973857D01*
X166330688Y-73126600D01*
X166409312Y-73126600D01*
X167177205Y-72973857D01*
X167828192Y-72538880D01*
X168263169Y-71887893D01*
X168415912Y-71120000D01*
X168263169Y-70352107D01*
X168134341Y-70159304D01*
X168202589Y-70091057D01*
X168376600Y-69670957D01*
X168376600Y-69216243D01*
X168376600Y-67489043D01*
X168202589Y-67068942D01*
X167881057Y-66747411D01*
X167460957Y-66573400D01*
X167006243Y-66573400D01*
X165481000Y-66573400D01*
X165481000Y-65453866D01*
X168323866Y-62611000D01*
X175127495Y-62611000D01*
X175305428Y-62789244D01*
X175729965Y-62965527D01*
X175604763Y-63090512D01*
X175323820Y-63767096D01*
X175323181Y-64499690D01*
X175602942Y-65176763D01*
X176120512Y-65695237D01*
X176797096Y-65976180D01*
X177529690Y-65976819D01*
X178206763Y-65697058D01*
X178434943Y-65469274D01*
X178660512Y-65695237D01*
X179337096Y-65976180D01*
X180069690Y-65976819D01*
X180746763Y-65697058D01*
X180974943Y-65469274D01*
X181200512Y-65695237D01*
X181877096Y-65976180D01*
X182609690Y-65976819D01*
X183286763Y-65697058D01*
X183514943Y-65469274D01*
X183740512Y-65695237D01*
X184417096Y-65976180D01*
X185149690Y-65976819D01*
X185826763Y-65697058D01*
X186345237Y-65179488D01*
X186626180Y-64502904D01*
X186626819Y-63770310D01*
X186626819Y-81102586D01*
X186483037Y-81042883D01*
X185630702Y-81042139D01*
X184842962Y-81367626D01*
X184239744Y-81969792D01*
X184086819Y-82338077D01*
X184086819Y-71390310D01*
X183807058Y-70713237D01*
X183289488Y-70194763D01*
X182612904Y-69913820D01*
X181880310Y-69913181D01*
X181203237Y-70192942D01*
X180975056Y-70420725D01*
X180749488Y-70194763D01*
X180072904Y-69913820D01*
X179340310Y-69913181D01*
X178663237Y-70192942D01*
X178639792Y-70216345D01*
X178510957Y-70087511D01*
X178090857Y-69913500D01*
X177636143Y-69913500D01*
X176239143Y-69913500D01*
X175819042Y-70087511D01*
X175497511Y-70409043D01*
X175323500Y-70829143D01*
X175323500Y-71283857D01*
X175323500Y-72680857D01*
X175497511Y-73100958D01*
X175819043Y-73422489D01*
X176239143Y-73596500D01*
X176693857Y-73596500D01*
X178090857Y-73596500D01*
X178510958Y-73422489D01*
X178639379Y-73294067D01*
X178660512Y-73315237D01*
X179337096Y-73596180D01*
X180069690Y-73596819D01*
X180746763Y-73317058D01*
X180974943Y-73089274D01*
X181200512Y-73315237D01*
X181877096Y-73596180D01*
X182609690Y-73596819D01*
X183286763Y-73317058D01*
X183805237Y-72799488D01*
X184086180Y-72122904D01*
X184086819Y-71390310D01*
X184086819Y-82338077D01*
X183912883Y-82756963D01*
X183912139Y-83609298D01*
X184237626Y-84397038D01*
X184839792Y-85000256D01*
X185626963Y-85327117D01*
X186479298Y-85327861D01*
X187267038Y-85002374D01*
X187870256Y-84400208D01*
X188197117Y-83613037D01*
X188197861Y-82760702D01*
X188197861Y-121793000D01*
X178037861Y-121793000D01*
X178037861Y-103080702D01*
X178037861Y-98000702D01*
X177712374Y-97212962D01*
X177110208Y-96609744D01*
X176323037Y-96282883D01*
X175470702Y-96282139D01*
X174682962Y-96607626D01*
X174079744Y-97209792D01*
X173752883Y-97996963D01*
X173752139Y-98849298D01*
X174077626Y-99637038D01*
X174679792Y-100240256D01*
X175466963Y-100567117D01*
X176319298Y-100567861D01*
X177107038Y-100242374D01*
X177710256Y-99640208D01*
X178037117Y-98853037D01*
X178037861Y-98000702D01*
X178037861Y-103080702D01*
X177712374Y-102292962D01*
X177110208Y-101689744D01*
X176323037Y-101362883D01*
X175470702Y-101362139D01*
X174682962Y-101687626D01*
X174079744Y-102289792D01*
X173752883Y-103076963D01*
X173752139Y-103929298D01*
X174077626Y-104717038D01*
X174679792Y-105320256D01*
X175466963Y-105647117D01*
X176319298Y-105647861D01*
X177107038Y-105322374D01*
X177710256Y-104720208D01*
X178037117Y-103933037D01*
X178037861Y-103080702D01*
X178037861Y-121793000D01*
X173456600Y-121793000D01*
X173456600Y-109259312D01*
X173456600Y-109180688D01*
X173303857Y-108412795D01*
X172957861Y-107894977D01*
X172957861Y-104350702D01*
X172957861Y-94190702D01*
X172632374Y-93402962D01*
X172030208Y-92799744D01*
X171814522Y-92710183D01*
X172027038Y-92622374D01*
X172630256Y-92020208D01*
X172957117Y-91233037D01*
X172957861Y-90380702D01*
X172632374Y-89592962D01*
X172030208Y-88989744D01*
X171243037Y-88662883D01*
X170390702Y-88662139D01*
X169602962Y-88987626D01*
X168999744Y-89589792D01*
X168672883Y-90376963D01*
X168672139Y-91229298D01*
X168997626Y-92017038D01*
X169599792Y-92620256D01*
X169815477Y-92709816D01*
X169602962Y-92797626D01*
X168999744Y-93399792D01*
X168672883Y-94186963D01*
X168672139Y-95039298D01*
X168997626Y-95827038D01*
X169599792Y-96430256D01*
X170386963Y-96757117D01*
X171239298Y-96757861D01*
X172027038Y-96432374D01*
X172630256Y-95830208D01*
X172957117Y-95043037D01*
X172957861Y-94190702D01*
X172957861Y-104350702D01*
X172632374Y-103562962D01*
X172030208Y-102959744D01*
X171243037Y-102632883D01*
X170390702Y-102632139D01*
X169602962Y-102957626D01*
X168999744Y-103559792D01*
X168672883Y-104346963D01*
X168672139Y-105199298D01*
X168997626Y-105987038D01*
X169599792Y-106590256D01*
X170386963Y-106917117D01*
X171239298Y-106917861D01*
X172027038Y-106592374D01*
X172630256Y-105990208D01*
X172957117Y-105203037D01*
X172957861Y-104350702D01*
X172957861Y-107894977D01*
X172868880Y-107761808D01*
X172217893Y-107326831D01*
X171450000Y-107174088D01*
X170682107Y-107326831D01*
X170489304Y-107455658D01*
X170421057Y-107387411D01*
X170000957Y-107213400D01*
X169546243Y-107213400D01*
X167819043Y-107213400D01*
X167398942Y-107387411D01*
X167077411Y-107708943D01*
X166903400Y-108129043D01*
X166903400Y-108583757D01*
X166903400Y-110310957D01*
X167077411Y-110731058D01*
X167398943Y-111052589D01*
X167819043Y-111226600D01*
X168273757Y-111226600D01*
X170000957Y-111226600D01*
X170421058Y-111052589D01*
X170489304Y-110984342D01*
X170682107Y-111113169D01*
X171450000Y-111265912D01*
X172217893Y-111113169D01*
X172868880Y-110678192D01*
X173303857Y-110027205D01*
X173456600Y-109259312D01*
X173456600Y-121793000D01*
X165728329Y-121793000D01*
X165728329Y-105034121D01*
X165439984Y-104336274D01*
X165244177Y-104140125D01*
X165438108Y-103946534D01*
X165727670Y-103249192D01*
X165728329Y-102494121D01*
X165439984Y-101796274D01*
X164906534Y-101261892D01*
X164209192Y-100972330D01*
X163454121Y-100971671D01*
X162756274Y-101260016D01*
X162221892Y-101793466D01*
X161932330Y-102490808D01*
X161931671Y-103245879D01*
X162220016Y-103943726D01*
X162415822Y-104139874D01*
X162221892Y-104333466D01*
X161932330Y-105030808D01*
X161931671Y-105785879D01*
X162205341Y-106448211D01*
X162106011Y-106547543D01*
X161932000Y-106967643D01*
X161932000Y-107422357D01*
X161932000Y-108932357D01*
X162106011Y-109352458D01*
X162427543Y-109673989D01*
X162847643Y-109848000D01*
X163302357Y-109848000D01*
X164812357Y-109848000D01*
X165232458Y-109673989D01*
X165553989Y-109352457D01*
X165728000Y-108932357D01*
X165728000Y-108477643D01*
X165728000Y-106967643D01*
X165553989Y-106547542D01*
X165454207Y-106447761D01*
X165727670Y-105789192D01*
X165728329Y-105034121D01*
X165728329Y-121793000D01*
X160892861Y-121793000D01*
X160892861Y-98635702D01*
X160567374Y-97847962D01*
X159965208Y-97244744D01*
X159178037Y-96917883D01*
X158325702Y-96917139D01*
X157537962Y-97242626D01*
X157082861Y-97696933D01*
X157082861Y-88475702D01*
X156757374Y-87687962D01*
X156155208Y-87084744D01*
X155368037Y-86757883D01*
X154515702Y-86757139D01*
X153727962Y-87082626D01*
X153124744Y-87684792D01*
X153035183Y-87900477D01*
X152947374Y-87687962D01*
X152345208Y-87084744D01*
X151558037Y-86757883D01*
X150705702Y-86757139D01*
X149917962Y-87082626D01*
X149314744Y-87684792D01*
X148987883Y-88471963D01*
X148987139Y-89324298D01*
X149312626Y-90112038D01*
X149914792Y-90715256D01*
X150701963Y-91042117D01*
X151554298Y-91042861D01*
X152342038Y-90717374D01*
X152945256Y-90115208D01*
X153034816Y-89899522D01*
X153122626Y-90112038D01*
X153724792Y-90715256D01*
X154511963Y-91042117D01*
X155364298Y-91042861D01*
X156152038Y-90717374D01*
X156755256Y-90115208D01*
X157082117Y-89328037D01*
X157082861Y-88475702D01*
X157082861Y-97696933D01*
X156934744Y-97844792D01*
X156845183Y-98060477D01*
X156757374Y-97847962D01*
X156155208Y-97244744D01*
X155368037Y-96917883D01*
X154515702Y-96917139D01*
X153727962Y-97242626D01*
X153124744Y-97844792D01*
X153035183Y-98060477D01*
X152947374Y-97847962D01*
X152345208Y-97244744D01*
X151558037Y-96917883D01*
X150705702Y-96917139D01*
X149917962Y-97242626D01*
X149314744Y-97844792D01*
X149225183Y-98060477D01*
X149137374Y-97847962D01*
X148535208Y-97244744D01*
X147748037Y-96917883D01*
X146895702Y-96917139D01*
X146107962Y-97242626D01*
X145504744Y-97844792D01*
X145415183Y-98060477D01*
X145327374Y-97847962D01*
X144725208Y-97244744D01*
X143938037Y-96917883D01*
X143085702Y-96917139D01*
X142297962Y-97242626D01*
X141694744Y-97844792D01*
X141367883Y-98631963D01*
X141367139Y-99484298D01*
X141692626Y-100272038D01*
X142294792Y-100875256D01*
X143081963Y-101202117D01*
X143934298Y-101202861D01*
X144722038Y-100877374D01*
X145325256Y-100275208D01*
X145414816Y-100059522D01*
X145502626Y-100272038D01*
X146104792Y-100875256D01*
X146891963Y-101202117D01*
X147744298Y-101202861D01*
X148532038Y-100877374D01*
X149135256Y-100275208D01*
X149224816Y-100059522D01*
X149312626Y-100272038D01*
X149914792Y-100875256D01*
X150523598Y-101128054D01*
X150088237Y-101307942D01*
X149569763Y-101825512D01*
X149288820Y-102502096D01*
X149288181Y-103234690D01*
X149567942Y-103911763D01*
X150085512Y-104430237D01*
X150762096Y-104711180D01*
X151494690Y-104711819D01*
X152171763Y-104432058D01*
X152399943Y-104204274D01*
X152625512Y-104430237D01*
X153302096Y-104711180D01*
X154034690Y-104711819D01*
X154711763Y-104432058D01*
X154735207Y-104408654D01*
X154864043Y-104537489D01*
X155284143Y-104711500D01*
X155738857Y-104711500D01*
X157135857Y-104711500D01*
X157555958Y-104537489D01*
X157877489Y-104215957D01*
X158051500Y-103795857D01*
X158051500Y-103341143D01*
X158051500Y-101944143D01*
X157877489Y-101524042D01*
X157555957Y-101202511D01*
X157135857Y-101028500D01*
X156681143Y-101028500D01*
X155786284Y-101028500D01*
X156152038Y-100877374D01*
X156755256Y-100275208D01*
X156844816Y-100059522D01*
X156932626Y-100272038D01*
X157534792Y-100875256D01*
X158321963Y-101202117D01*
X159174298Y-101202861D01*
X159962038Y-100877374D01*
X160565256Y-100275208D01*
X160892117Y-99488037D01*
X160892861Y-98635702D01*
X160892861Y-121793000D01*
X158051819Y-121793000D01*
X158051819Y-110125310D01*
X157772058Y-109448237D01*
X157254488Y-108929763D01*
X156577904Y-108648820D01*
X155845310Y-108648181D01*
X155168237Y-108927942D01*
X154940056Y-109155725D01*
X154714488Y-108929763D01*
X154037904Y-108648820D01*
X153305310Y-108648181D01*
X152628237Y-108927942D01*
X152400056Y-109155725D01*
X152174488Y-108929763D01*
X151497904Y-108648820D01*
X150765310Y-108648181D01*
X150088237Y-108927942D01*
X149860056Y-109155725D01*
X149634488Y-108929763D01*
X148957904Y-108648820D01*
X148225310Y-108648181D01*
X147701000Y-108864821D01*
X147701000Y-106680000D01*
X147596175Y-106153013D01*
X147575325Y-106048190D01*
X147575325Y-106048189D01*
X147217433Y-105512567D01*
X145947433Y-104242567D01*
X145411811Y-103884675D01*
X144780000Y-103759000D01*
X144193866Y-103759000D01*
X141351000Y-100916133D01*
X141351000Y-95382504D01*
X141529244Y-95204572D01*
X141858624Y-94411336D01*
X141859374Y-93552433D01*
X141842861Y-93512468D01*
X141842861Y-75775702D01*
X141517374Y-74987962D01*
X140915208Y-74384744D01*
X140128037Y-74057883D01*
X139275702Y-74057139D01*
X138487962Y-74382626D01*
X137884744Y-74984792D01*
X137557883Y-75771963D01*
X137557139Y-76624298D01*
X137882626Y-77412038D01*
X138484792Y-78015256D01*
X139271963Y-78342117D01*
X140124298Y-78342861D01*
X140912038Y-78017374D01*
X141515256Y-77415208D01*
X141842117Y-76628037D01*
X141842861Y-75775702D01*
X141842861Y-93512468D01*
X141531378Y-92758623D01*
X140924572Y-92150756D01*
X140131336Y-91821376D01*
X139272433Y-91820626D01*
X138478623Y-92148622D01*
X137870756Y-92755428D01*
X137541376Y-93548664D01*
X137540626Y-94407567D01*
X137868622Y-95201377D01*
X138049000Y-95382070D01*
X138049000Y-101600000D01*
X138174675Y-102231811D01*
X138532567Y-102767433D01*
X139490571Y-103725437D01*
X139237205Y-103556143D01*
X138469312Y-103403400D01*
X138390688Y-103403400D01*
X137622795Y-103556143D01*
X136971808Y-103991120D01*
X136762861Y-104303830D01*
X136762861Y-102445702D01*
X136461819Y-101717123D01*
X136461819Y-70755310D01*
X136182058Y-70078237D01*
X135664488Y-69559763D01*
X134987904Y-69278820D01*
X134255310Y-69278181D01*
X133578237Y-69557942D01*
X133350056Y-69785725D01*
X133124488Y-69559763D01*
X132447904Y-69278820D01*
X131715310Y-69278181D01*
X131038237Y-69557942D01*
X131014792Y-69581345D01*
X130885957Y-69452511D01*
X130465857Y-69278500D01*
X130011143Y-69278500D01*
X128614143Y-69278500D01*
X128194042Y-69452511D01*
X127872511Y-69774043D01*
X127698500Y-70194143D01*
X127698500Y-70648857D01*
X127698500Y-72045857D01*
X127872511Y-72465958D01*
X128194043Y-72787489D01*
X128614143Y-72961500D01*
X129068857Y-72961500D01*
X130465857Y-72961500D01*
X130885958Y-72787489D01*
X131014379Y-72659067D01*
X131035512Y-72680237D01*
X131712096Y-72961180D01*
X132444690Y-72961819D01*
X133121763Y-72682058D01*
X133349943Y-72454274D01*
X133575512Y-72680237D01*
X134252096Y-72961180D01*
X134984690Y-72961819D01*
X135661763Y-72682058D01*
X136180237Y-72164488D01*
X136461180Y-71487904D01*
X136461819Y-70755310D01*
X136461819Y-101717123D01*
X136437374Y-101657962D01*
X135835208Y-101054744D01*
X135048037Y-100727883D01*
X134222861Y-100727162D01*
X134222861Y-98635702D01*
X133897374Y-97847962D01*
X133295208Y-97244744D01*
X132508037Y-96917883D01*
X131682861Y-96917162D01*
X131682861Y-75775702D01*
X131357374Y-74987962D01*
X130755208Y-74384744D01*
X129968037Y-74057883D01*
X129115702Y-74057139D01*
X128327962Y-74382626D01*
X127724744Y-74984792D01*
X127397883Y-75771963D01*
X127397139Y-76624298D01*
X127722626Y-77412038D01*
X128324792Y-78015256D01*
X129111963Y-78342117D01*
X129964298Y-78342861D01*
X130752038Y-78017374D01*
X131355256Y-77415208D01*
X131682117Y-76628037D01*
X131682861Y-75775702D01*
X131682861Y-96917162D01*
X131655702Y-96917139D01*
X130867962Y-97242626D01*
X130412861Y-97696933D01*
X130412861Y-88475702D01*
X130087374Y-87687962D01*
X129485208Y-87084744D01*
X128698037Y-86757883D01*
X127845702Y-86757139D01*
X127057962Y-87082626D01*
X126454744Y-87684792D01*
X126365183Y-87900477D01*
X126277374Y-87687962D01*
X125675208Y-87084744D01*
X125182975Y-86880351D01*
X125182975Y-65645380D01*
X124880255Y-64912740D01*
X124320208Y-64351715D01*
X123588098Y-64047717D01*
X122795380Y-64047025D01*
X122062740Y-64349745D01*
X121501715Y-64909792D01*
X121197717Y-65641902D01*
X121197025Y-66434620D01*
X121499745Y-67167260D01*
X122059792Y-67728285D01*
X122791902Y-68032283D01*
X123584620Y-68032975D01*
X124317260Y-67730255D01*
X124878285Y-67170208D01*
X125182283Y-66438098D01*
X125182975Y-65645380D01*
X125182975Y-86880351D01*
X125182630Y-86880208D01*
X125182630Y-77276987D01*
X125182630Y-76822273D01*
X125182630Y-75123013D01*
X125008619Y-74702912D01*
X124687087Y-74381381D01*
X124266987Y-74207370D01*
X123812273Y-74207370D01*
X122113013Y-74207370D01*
X121692912Y-74381381D01*
X121371381Y-74702913D01*
X121197370Y-75123013D01*
X121197370Y-75577727D01*
X121197370Y-77276987D01*
X121371381Y-77697088D01*
X121692913Y-78018619D01*
X122113013Y-78192630D01*
X122567727Y-78192630D01*
X124266987Y-78192630D01*
X124687088Y-78018619D01*
X125008619Y-77697087D01*
X125182630Y-77276987D01*
X125182630Y-86880208D01*
X124888037Y-86757883D01*
X124035702Y-86757139D01*
X123247962Y-87082626D01*
X122644744Y-87684792D01*
X122317883Y-88471963D01*
X122317139Y-89324298D01*
X122642626Y-90112038D01*
X123244792Y-90715256D01*
X124031963Y-91042117D01*
X124884298Y-91042861D01*
X125672038Y-90717374D01*
X126275256Y-90115208D01*
X126364816Y-89899522D01*
X126452626Y-90112038D01*
X127054792Y-90715256D01*
X127841963Y-91042117D01*
X128694298Y-91042861D01*
X129482038Y-90717374D01*
X130085256Y-90115208D01*
X130412117Y-89328037D01*
X130412861Y-88475702D01*
X130412861Y-97696933D01*
X130264744Y-97844792D01*
X130175183Y-98060477D01*
X130087374Y-97847962D01*
X129485208Y-97244744D01*
X128698037Y-96917883D01*
X127845702Y-96917139D01*
X127057962Y-97242626D01*
X126454744Y-97844792D01*
X126365183Y-98060477D01*
X126277374Y-97847962D01*
X125675208Y-97244744D01*
X124888037Y-96917883D01*
X124035702Y-96917139D01*
X123247962Y-97242626D01*
X122644744Y-97844792D01*
X122555183Y-98060477D01*
X122467374Y-97847962D01*
X121865208Y-97244744D01*
X121078037Y-96917883D01*
X120252861Y-96917162D01*
X120252861Y-75775702D01*
X119927374Y-74987962D01*
X119325208Y-74384744D01*
X118538037Y-74057883D01*
X117685702Y-74057139D01*
X116897962Y-74382626D01*
X116294744Y-74984792D01*
X115967883Y-75771963D01*
X115967139Y-76624298D01*
X116292626Y-77412038D01*
X116894792Y-78015256D01*
X117681963Y-78342117D01*
X118534298Y-78342861D01*
X119322038Y-78017374D01*
X119925256Y-77415208D01*
X120252117Y-76628037D01*
X120252861Y-75775702D01*
X120252861Y-96917162D01*
X120225702Y-96917139D01*
X119437962Y-97242626D01*
X118834744Y-97844792D01*
X118745183Y-98060477D01*
X118657374Y-97847962D01*
X118055208Y-97244744D01*
X117268037Y-96917883D01*
X116415702Y-96917139D01*
X115627962Y-97242626D01*
X115172861Y-97696933D01*
X115172861Y-75775702D01*
X114847374Y-74987962D01*
X114245208Y-74384744D01*
X113458037Y-74057883D01*
X112649000Y-74057176D01*
X112649000Y-59663357D01*
X112649000Y-59208643D01*
X112649000Y-57176643D01*
X112474989Y-56756542D01*
X112153457Y-56435011D01*
X111733357Y-56261000D01*
X111278643Y-56261000D01*
X109246643Y-56261000D01*
X108826542Y-56435011D01*
X108505011Y-56756543D01*
X108331000Y-57176643D01*
X108331000Y-57631357D01*
X108331000Y-59663357D01*
X108505011Y-60083458D01*
X108826543Y-60404989D01*
X109246643Y-60579000D01*
X109701357Y-60579000D01*
X111733357Y-60579000D01*
X112153458Y-60404989D01*
X112474989Y-60083457D01*
X112649000Y-59663357D01*
X112649000Y-74057176D01*
X112605702Y-74057139D01*
X111817962Y-74382626D01*
X111214744Y-74984792D01*
X110887883Y-75771963D01*
X110887139Y-76624298D01*
X111212626Y-77412038D01*
X111814792Y-78015256D01*
X112601963Y-78342117D01*
X113454298Y-78342861D01*
X114242038Y-78017374D01*
X114845256Y-77415208D01*
X115172117Y-76628037D01*
X115172861Y-75775702D01*
X115172861Y-97696933D01*
X115024744Y-97844792D01*
X114697883Y-98631963D01*
X114697139Y-99484298D01*
X115022626Y-100272038D01*
X115624792Y-100875256D01*
X116411963Y-101202117D01*
X117264298Y-101202861D01*
X118052038Y-100877374D01*
X118655256Y-100275208D01*
X118744816Y-100059522D01*
X118832626Y-100272038D01*
X119434792Y-100875256D01*
X120221963Y-101202117D01*
X121074298Y-101202861D01*
X121862038Y-100877374D01*
X122465256Y-100275208D01*
X122554816Y-100059522D01*
X122642626Y-100272038D01*
X123244792Y-100875256D01*
X123853598Y-101128054D01*
X123418237Y-101307942D01*
X122899763Y-101825512D01*
X122618820Y-102502096D01*
X122618181Y-103234690D01*
X122897942Y-103911763D01*
X123415512Y-104430237D01*
X124092096Y-104711180D01*
X124824690Y-104711819D01*
X125501763Y-104432058D01*
X125729943Y-104204274D01*
X125955512Y-104430237D01*
X126632096Y-104711180D01*
X127364690Y-104711819D01*
X128041763Y-104432058D01*
X128065207Y-104408654D01*
X128194043Y-104537489D01*
X128614143Y-104711500D01*
X129068857Y-104711500D01*
X130465857Y-104711500D01*
X130885958Y-104537489D01*
X131207489Y-104215957D01*
X131381500Y-103795857D01*
X131381500Y-103341143D01*
X131381500Y-101944143D01*
X131207489Y-101524042D01*
X130885957Y-101202511D01*
X130465857Y-101028500D01*
X130011143Y-101028500D01*
X129116284Y-101028500D01*
X129482038Y-100877374D01*
X130085256Y-100275208D01*
X130174816Y-100059522D01*
X130262626Y-100272038D01*
X130864792Y-100875256D01*
X131651963Y-101202117D01*
X132504298Y-101202861D01*
X133292038Y-100877374D01*
X133895256Y-100275208D01*
X134222117Y-99488037D01*
X134222861Y-98635702D01*
X134222861Y-100727162D01*
X134195702Y-100727139D01*
X133407962Y-101052626D01*
X132804744Y-101654792D01*
X132477883Y-102441963D01*
X132477139Y-103294298D01*
X132802626Y-104082038D01*
X133404792Y-104685256D01*
X134191963Y-105012117D01*
X135044298Y-105012861D01*
X135832038Y-104687374D01*
X136435256Y-104085208D01*
X136762117Y-103298037D01*
X136762861Y-102445702D01*
X136762861Y-104303830D01*
X136536831Y-104642107D01*
X136384088Y-105410000D01*
X136536831Y-106177893D01*
X136665658Y-106370695D01*
X136597411Y-106438943D01*
X136423400Y-106859043D01*
X136423400Y-107313757D01*
X136423400Y-109040957D01*
X136597411Y-109461058D01*
X136918943Y-109782589D01*
X137339043Y-109956600D01*
X137793757Y-109956600D01*
X139520957Y-109956600D01*
X139941058Y-109782589D01*
X140262589Y-109461057D01*
X140436600Y-109040957D01*
X140436600Y-108586243D01*
X140436600Y-106859043D01*
X140262589Y-106438942D01*
X140194342Y-106370695D01*
X140323169Y-106177893D01*
X140475912Y-105410000D01*
X140323169Y-104642107D01*
X140153874Y-104388741D01*
X142342567Y-106577434D01*
X142878190Y-106935325D01*
X143510000Y-107061000D01*
X144096134Y-107061000D01*
X144237268Y-107202134D01*
X143938037Y-107077883D01*
X143085702Y-107077139D01*
X142297962Y-107402626D01*
X141694744Y-108004792D01*
X141367883Y-108791963D01*
X141367139Y-109644298D01*
X141692626Y-110432038D01*
X142294792Y-111035256D01*
X142913124Y-111292009D01*
X140286133Y-113919000D01*
X136570708Y-113919000D01*
X136762117Y-113458037D01*
X136762861Y-112605702D01*
X136437374Y-111817962D01*
X135835208Y-111214744D01*
X135048037Y-110887883D01*
X134195702Y-110887139D01*
X133407962Y-111212626D01*
X132804744Y-111814792D01*
X132477883Y-112601963D01*
X132477139Y-113454298D01*
X132669149Y-113919000D01*
X131381819Y-113919000D01*
X131381819Y-110125310D01*
X131102058Y-109448237D01*
X130584488Y-108929763D01*
X129907904Y-108648820D01*
X129175310Y-108648181D01*
X128498237Y-108927942D01*
X128270056Y-109155725D01*
X128044488Y-108929763D01*
X127367904Y-108648820D01*
X126635310Y-108648181D01*
X125958237Y-108927942D01*
X125730056Y-109155725D01*
X125504488Y-108929763D01*
X124827904Y-108648820D01*
X124095310Y-108648181D01*
X123418237Y-108927942D01*
X123190056Y-109155725D01*
X122964488Y-108929763D01*
X122287904Y-108648820D01*
X121555310Y-108648181D01*
X120878237Y-108927942D01*
X120359763Y-109445512D01*
X120078820Y-110122096D01*
X120078181Y-110854690D01*
X120357942Y-111531763D01*
X120875512Y-112050237D01*
X121552096Y-112331180D01*
X122284690Y-112331819D01*
X122961763Y-112052058D01*
X123189943Y-111824274D01*
X123415512Y-112050237D01*
X124092096Y-112331180D01*
X124824690Y-112331819D01*
X125501763Y-112052058D01*
X125729943Y-111824274D01*
X125955512Y-112050237D01*
X126632096Y-112331180D01*
X127364690Y-112331819D01*
X128041763Y-112052058D01*
X128269943Y-111824274D01*
X128495512Y-112050237D01*
X129172096Y-112331180D01*
X129904690Y-112331819D01*
X130581763Y-112052058D01*
X131100237Y-111534488D01*
X131381180Y-110857904D01*
X131381819Y-110125310D01*
X131381819Y-113919000D01*
X130429333Y-113919000D01*
X130429374Y-113872433D01*
X130101378Y-113078623D01*
X129494572Y-112470756D01*
X128701336Y-112141376D01*
X127842433Y-112140626D01*
X127048623Y-112468622D01*
X126440756Y-113075428D01*
X126111376Y-113868664D01*
X126110626Y-114727567D01*
X126438622Y-115521377D01*
X127045428Y-116129244D01*
X127838664Y-116458624D01*
X128093980Y-116458846D01*
X128372567Y-116737433D01*
X128908189Y-117095325D01*
X128908190Y-117095325D01*
X129013013Y-117116175D01*
X129540000Y-117221000D01*
X140970000Y-117221000D01*
X141601810Y-117095325D01*
X141601811Y-117095325D01*
X142137433Y-116737433D01*
X144800402Y-114074464D01*
X144882567Y-114197433D01*
X146152567Y-115467433D01*
X146688189Y-115825325D01*
X146688190Y-115825325D01*
X146793013Y-115846175D01*
X147320000Y-115951000D01*
X152267495Y-115951000D01*
X152445428Y-116129244D01*
X153238664Y-116458624D01*
X154097567Y-116459374D01*
X154891377Y-116131378D01*
X155499244Y-115524572D01*
X155828624Y-114731336D01*
X155829374Y-113872433D01*
X155501378Y-113078623D01*
X154894572Y-112470756D01*
X154580268Y-112340245D01*
X154791008Y-112298327D01*
X155164227Y-112048950D01*
X155165512Y-112050237D01*
X155842096Y-112331180D01*
X156574690Y-112331819D01*
X157251763Y-112052058D01*
X157770237Y-111534488D01*
X158051180Y-110857904D01*
X158051819Y-110125310D01*
X158051819Y-121793000D01*
X118982861Y-121793000D01*
X118982861Y-108795702D01*
X118657374Y-108007962D01*
X118055208Y-107404744D01*
X117268037Y-107077883D01*
X116415702Y-107077139D01*
X115627962Y-107402626D01*
X115024744Y-108004792D01*
X114697883Y-108791963D01*
X114697139Y-109644298D01*
X115022626Y-110432038D01*
X115624792Y-111035256D01*
X116411963Y-111362117D01*
X117264298Y-111362861D01*
X118052038Y-111037374D01*
X118655256Y-110435208D01*
X118982117Y-109648037D01*
X118982861Y-108795702D01*
X118982861Y-121793000D01*
X113902861Y-121793000D01*
X113902861Y-108795702D01*
X113577374Y-108007962D01*
X112975208Y-107404744D01*
X112188037Y-107077883D01*
X111335702Y-107077139D01*
X110547962Y-107402626D01*
X110053371Y-107896354D01*
X110053371Y-93925601D01*
X109727806Y-93137674D01*
X109125497Y-92534312D01*
X108338139Y-92207373D01*
X107485601Y-92206629D01*
X106697674Y-92532194D01*
X106660463Y-92569339D01*
X106625497Y-92534312D01*
X105838139Y-92207373D01*
X105029000Y-92206666D01*
X105029000Y-59663357D01*
X105029000Y-59208643D01*
X105029000Y-57176643D01*
X104854989Y-56756542D01*
X104533457Y-56435011D01*
X104113357Y-56261000D01*
X103658643Y-56261000D01*
X101626643Y-56261000D01*
X101206542Y-56435011D01*
X100885011Y-56756543D01*
X100711000Y-57176643D01*
X100711000Y-57631357D01*
X100711000Y-59663357D01*
X100885011Y-60083458D01*
X101206543Y-60404989D01*
X101626643Y-60579000D01*
X102081357Y-60579000D01*
X104113357Y-60579000D01*
X104533458Y-60404989D01*
X104854989Y-60083457D01*
X105029000Y-59663357D01*
X105029000Y-92206666D01*
X104985601Y-92206629D01*
X104197674Y-92532194D01*
X104160463Y-92569339D01*
X104125497Y-92534312D01*
X103338139Y-92207373D01*
X102485601Y-92206629D01*
X101697674Y-92532194D01*
X101094312Y-93134503D01*
X100767373Y-93921861D01*
X100766629Y-94774399D01*
X101092194Y-95562326D01*
X101694503Y-96165688D01*
X102481861Y-96492627D01*
X103334399Y-96493371D01*
X104122326Y-96167806D01*
X104159536Y-96130660D01*
X104194503Y-96165688D01*
X104981861Y-96492627D01*
X105834399Y-96493371D01*
X106622326Y-96167806D01*
X106659536Y-96130660D01*
X106694503Y-96165688D01*
X107481861Y-96492627D01*
X108334399Y-96493371D01*
X109122326Y-96167806D01*
X109725688Y-95565497D01*
X110052627Y-94778139D01*
X110053371Y-93925601D01*
X110053371Y-107896354D01*
X109944744Y-108004792D01*
X109912039Y-108083553D01*
X109727806Y-107637674D01*
X109125497Y-107034312D01*
X108338139Y-106707373D01*
X107485601Y-106706629D01*
X106697674Y-107032194D01*
X106660463Y-107069339D01*
X106625497Y-107034312D01*
X105838139Y-106707373D01*
X104985601Y-106706629D01*
X104197674Y-107032194D01*
X104160463Y-107069339D01*
X104125497Y-107034312D01*
X103338139Y-106707373D01*
X102485601Y-106706629D01*
X101697674Y-107032194D01*
X101094312Y-107634503D01*
X100767373Y-108421861D01*
X100766629Y-109274399D01*
X101092194Y-110062326D01*
X101694503Y-110665688D01*
X102481861Y-110992627D01*
X103334399Y-110993371D01*
X104122326Y-110667806D01*
X104159536Y-110630660D01*
X104194503Y-110665688D01*
X104981861Y-110992627D01*
X105834399Y-110993371D01*
X106622326Y-110667806D01*
X106659536Y-110630660D01*
X106694503Y-110665688D01*
X107481861Y-110992627D01*
X108334399Y-110993371D01*
X109122326Y-110667806D01*
X109725688Y-110065497D01*
X109758512Y-109986447D01*
X109942626Y-110432038D01*
X110544792Y-111035256D01*
X111331963Y-111362117D01*
X112184298Y-111362861D01*
X112972038Y-111037374D01*
X113575256Y-110435208D01*
X113902117Y-109648037D01*
X113902861Y-108795702D01*
X113902861Y-121793000D01*
X105012861Y-121793000D01*
X105012861Y-113875702D01*
X104687374Y-113087962D01*
X104085208Y-112484744D01*
X103298037Y-112157883D01*
X102445702Y-112157139D01*
X101657962Y-112482626D01*
X101054744Y-113084792D01*
X100727883Y-113871963D01*
X100727139Y-114724298D01*
X101052626Y-115512038D01*
X101654792Y-116115256D01*
X102441963Y-116442117D01*
X103294298Y-116442861D01*
X104082038Y-116117374D01*
X104685256Y-115515208D01*
X105012117Y-114728037D01*
X105012861Y-113875702D01*
X105012861Y-121793000D01*
X99932861Y-121793000D01*
X99932861Y-113875702D01*
X99932861Y-103715702D01*
X99607374Y-102927962D01*
X99005208Y-102324744D01*
X98218037Y-101997883D01*
X97625829Y-101997366D01*
X97938880Y-101788192D01*
X98373857Y-101137205D01*
X98526600Y-100369312D01*
X98526600Y-100290688D01*
X98373857Y-99522795D01*
X98064626Y-99060000D01*
X98373857Y-98597205D01*
X98526600Y-97829312D01*
X98526600Y-97750688D01*
X98373857Y-96982795D01*
X98064626Y-96520000D01*
X98373857Y-96057205D01*
X98526600Y-95289312D01*
X98526600Y-95210688D01*
X98373857Y-94442795D01*
X97938880Y-93791808D01*
X97295912Y-93362189D01*
X97295912Y-86360000D01*
X97143169Y-85592107D01*
X96708192Y-84941120D01*
X96057205Y-84506143D01*
X95289312Y-84353400D01*
X95210688Y-84353400D01*
X94442795Y-84506143D01*
X93791808Y-84941120D01*
X93356831Y-85592107D01*
X93204088Y-86360000D01*
X93356831Y-87127893D01*
X93485658Y-87320695D01*
X93417411Y-87388943D01*
X93243400Y-87809043D01*
X93243400Y-88263757D01*
X93243400Y-89990957D01*
X93417411Y-90411058D01*
X93738943Y-90732589D01*
X94159043Y-90906600D01*
X94613757Y-90906600D01*
X96340957Y-90906600D01*
X96761058Y-90732589D01*
X97082589Y-90411057D01*
X97256600Y-89990957D01*
X97256600Y-89536243D01*
X97256600Y-87809043D01*
X97082589Y-87388942D01*
X97014342Y-87320695D01*
X97143169Y-87127893D01*
X97295912Y-86360000D01*
X97295912Y-93362189D01*
X97287893Y-93356831D01*
X96520000Y-93204088D01*
X95752107Y-93356831D01*
X95101120Y-93791808D01*
X94666143Y-94442795D01*
X94513400Y-95210688D01*
X94513400Y-95289312D01*
X94629560Y-95873293D01*
X93980000Y-95744088D01*
X93212107Y-95896831D01*
X92561120Y-96331808D01*
X92126143Y-96982795D01*
X91973400Y-97750688D01*
X91973400Y-97829312D01*
X92126143Y-98597205D01*
X92561120Y-99248192D01*
X93212107Y-99683169D01*
X93980000Y-99835912D01*
X94629560Y-99706706D01*
X94513400Y-100290688D01*
X94513400Y-100369312D01*
X94666143Y-101137205D01*
X95101120Y-101788192D01*
X95752107Y-102223169D01*
X96520000Y-102375912D01*
X96525723Y-102374773D01*
X95974744Y-102924792D01*
X95647883Y-103711963D01*
X95647139Y-104564298D01*
X95972626Y-105352038D01*
X96574792Y-105955256D01*
X97361963Y-106282117D01*
X98214298Y-106282861D01*
X99002038Y-105957374D01*
X99605256Y-105355208D01*
X99932117Y-104568037D01*
X99932861Y-103715702D01*
X99932861Y-113875702D01*
X99607374Y-113087962D01*
X99005208Y-112484744D01*
X98218037Y-112157883D01*
X97365702Y-112157139D01*
X96577962Y-112482626D01*
X95974744Y-113084792D01*
X95647883Y-113871963D01*
X95647139Y-114724298D01*
X95972626Y-115512038D01*
X96574792Y-116115256D01*
X97361963Y-116442117D01*
X98214298Y-116442861D01*
X99002038Y-116117374D01*
X99605256Y-115515208D01*
X99932117Y-114728037D01*
X99932861Y-113875702D01*
X99932861Y-121793000D01*
X87757000Y-121793000D01*
X87757000Y-120650000D01*
X87757000Y-55880000D01*
X87757000Y-53467000D01*
X191643000Y-53467000D01*
X191643000Y-121793000D01*
M02*
