M48
;DRILL file {kicad (2014-10-31 BZR 5247)-product} date Friday, February 20, 2015 'PMt' 09:06:58 PM
;FORMAT={-:-/ absolute / inch / decimal}
FMAT,2
INCH,TZ
T1C0.020
T2C0.025
T3C0.028
T4C0.030
T5C0.032
T6C0.032
T7C0.039
T8C0.040
%
G90
G05
M72
T1
X6.45Y-4.05
X6.45Y-4.15
X6.45Y-4.25
T2
X5.05Y-4.5
X5.2Y-2.4
X5.5Y-3.7
X6.05Y-4.5
X6.45Y-3.25
X6.5Y-3.4
X6.95Y-2.4
X7.2Y-3.4
T3
X4.85Y-2.6
X4.85Y-3.
T4
X4.0516Y-3.7146
X4.0516Y-4.2854
X4.15Y-3.7146
X4.15Y-4.2854
X4.2484Y-3.7146
X4.2484Y-4.2854
T5
X4.05Y-4.5
X4.45Y-4.5
X4.6Y-3.9
X4.6Y-4.3
X4.65Y-2.6
X4.65Y-3.
X5.1Y-3.
X5.5Y-3.
X5.65Y-3.9
X5.65Y-4.3
X5.7Y-2.6
X5.7Y-3.
X6.3Y-2.6
X6.3Y-3.
X6.725Y-3.175
X6.725Y-3.575
X6.725Y-3.725
X6.725Y-4.125
X6.925Y-3.475
X6.925Y-3.875
T6
X4.8Y-4.05
X4.8Y-4.35
X4.9Y-4.05
X4.9Y-4.35
X5.Y-4.05
X5.Y-4.35
X5.1Y-2.5
X5.1Y-2.8
X5.1Y-4.05
X5.1Y-4.35
X5.2Y-2.5
X5.2Y-2.8
X5.3Y-2.5
X5.3Y-2.8
X5.4Y-2.5
X5.4Y-2.8
X5.85Y-4.05
X5.85Y-4.35
X5.95Y-4.05
X5.95Y-4.35
X6.05Y-4.05
X6.05Y-4.35
X6.15Y-4.05
X6.15Y-4.35
X6.975Y-2.525
X6.975Y-2.825
X7.075Y-2.525
X7.075Y-2.825
X7.175Y-2.525
X7.175Y-2.825
X7.275Y-2.525
X7.275Y-2.825
T7
X3.85Y-4.1
X3.85Y-4.5
X4.4Y-3.9
X4.4Y-4.3
X4.45Y-2.6
X4.45Y-3.
X4.75Y-3.5
X4.75Y-3.9
X4.9Y-3.5
X4.9Y-3.9
X5.05Y-3.5
X5.05Y-3.9
X5.2Y-3.5
X5.2Y-3.9
X5.3Y-4.05
X5.3Y-4.45
X5.8Y-3.5
X5.8Y-3.9
X5.85Y-2.6
X5.85Y-3.
X5.95Y-3.5
X5.95Y-3.9
X6.Y-2.6
X6.Y-3.
X6.1Y-3.5
X6.1Y-3.9
X6.15Y-2.6
X6.15Y-3.
X6.25Y-3.5
X6.25Y-3.9
X6.725Y-2.575
X6.725Y-2.975
X6.925Y-3.125
X6.925Y-3.275
X6.925Y-4.075
X7.325Y-3.125
X7.325Y-3.275
X7.325Y-4.075
T8
X3.7Y-3.75
X3.7Y-3.85
X3.7Y-3.95
X3.75Y-3.4
X3.75Y-3.5
X3.8Y-3.75
X3.8Y-3.85
X3.8Y-3.95
X4.05Y-2.3
X4.15Y-2.3
X4.35Y-2.3
X4.45Y-2.3
X5.45Y-4.15
X5.45Y-4.25
X6.55Y-2.7
X6.55Y-2.8
X6.65Y-4.3
X6.75Y-4.3
T0
M30
