M48
INCH,TZ
T1C0.020
T2C0.028
T3C0.030
T4C0.032
T5C0.032
T6C0.039
T7C0.040
%
G90
G05
T1
X64500Y-40500
X64500Y-41500
X64500Y-42500
T2
X48500Y-26000
X48500Y-30000
T3
X40516Y-37146
X40516Y-42854
X41500Y-37146
X41500Y-42854
X42484Y-37146
X42484Y-42854
T4
X40500Y-45000
X44500Y-45000
X46000Y-39000
X46000Y-43000
X46500Y-26000
X46500Y-30000
X51000Y-30000
X55000Y-30000
X56500Y-39000
X56500Y-43000
X57000Y-26000
X57000Y-30000
X63000Y-26000
X63000Y-30000
X67250Y-31750
X67250Y-35750
X67250Y-37250
X67250Y-41250
X69250Y-34750
X69250Y-38750
T5
X48000Y-40500
X48000Y-43500
X49000Y-40500
X49000Y-43500
X50000Y-40500
X50000Y-43500
X51000Y-25000
X51000Y-28000
X51000Y-40500
X51000Y-43500
X52000Y-25000
X52000Y-28000
X53000Y-25000
X53000Y-28000
X54000Y-25000
X54000Y-28000
X58500Y-40500
X58500Y-43500
X59500Y-40500
X59500Y-43500
X60500Y-40500
X60500Y-43500
X61500Y-40500
X61500Y-43500
X69750Y-25250
X69750Y-28250
X70750Y-25250
X70750Y-28250
X71750Y-25250
X71750Y-28250
X72750Y-25250
X72750Y-28250
T6
X38500Y-41000
X38500Y-45000
X44000Y-39000
X44000Y-43000
X44500Y-26000
X44500Y-30000
X47500Y-35000
X47500Y-39000
X49000Y-35000
X49000Y-39000
X50500Y-35000
X50500Y-39000
X52000Y-35000
X52000Y-39000
X53000Y-40500
X53000Y-44500
X58000Y-35000
X58000Y-39000
X58500Y-26000
X58500Y-30000
X59500Y-35000
X59500Y-39000
X60000Y-26000
X60000Y-30000
X61000Y-35000
X61000Y-39000
X61500Y-26000
X61500Y-30000
X62500Y-35000
X62500Y-39000
X67250Y-25750
X67250Y-29750
X69250Y-31250
X69250Y-32750
X69250Y-40750
X73250Y-31250
X73250Y-32750
X73250Y-40750
T7
X37000Y-37500
X37000Y-38500
X37000Y-39500
X37500Y-34000
X37500Y-35000
X38000Y-37500
X38000Y-38500
X38000Y-39500
X40500Y-23000
X41500Y-23000
X43500Y-23000
X44500Y-23000
X50500Y-45000
X52000Y-24000
X54500Y-41500
X54500Y-42500
X55000Y-37000
X60500Y-45000
X64500Y-32500
X65000Y-34000
X65500Y-27000
X65500Y-28000
X66500Y-43000
X67500Y-43000
X69500Y-24000
X72000Y-34000
T0
M30
