G04 #@! TF.FileFunction,Copper,L2,Bot,Signal*
%FSLAX46Y46*%
G04 Gerber Fmt 4.6, Leading zero omitted, Abs format (unit mm)*
G04 Created by KiCad (PCBNEW (2014-10-31 BZR 5247)-product) date Wednesday, March 18, 2015 'PMt' 03:24:55 PM*
%MOMM*%
G01*
G04 APERTURE LIST*
%ADD10C,0.100000*%
%ADD11C,2.794000*%
%ADD12C,2.540000*%
%ADD13R,2.540000X2.540000*%
%ADD14R,2.286000X2.286000*%
%ADD15O,2.286000X2.286000*%
%ADD16C,1.778000*%
%ADD17R,1.778000X1.778000*%
%ADD18C,2.000000*%
%ADD19C,0.762000*%
%ADD20C,1.270000*%
%ADD21C,0.254000*%
G04 APERTURE END LIST*
D10*
D11*
X144018000Y-61976000D03*
X154178000Y-61976000D03*
X167640000Y-49784000D03*
X167640000Y-39624000D03*
X153630000Y-72340000D03*
X153630000Y-82500000D03*
X171450000Y-39624000D03*
X171450000Y-49784000D03*
X181610000Y-36068000D03*
X171450000Y-36068000D03*
X144780000Y-38862000D03*
X144780000Y-28702000D03*
X132842000Y-38862000D03*
X132842000Y-28702000D03*
X118364000Y-38862000D03*
X128524000Y-38862000D03*
X112522000Y-36322000D03*
X112522000Y-46482000D03*
X118872000Y-23622000D03*
X129032000Y-23622000D03*
D12*
X113538000Y-19304000D03*
D13*
X113538000Y-29464000D03*
D14*
X151638000Y-66040000D03*
D15*
X154178000Y-66040000D03*
D14*
X83312000Y-55372000D03*
D15*
X83312000Y-52832000D03*
D14*
X162052000Y-35560000D03*
D15*
X164592000Y-35560000D03*
D14*
X83312000Y-41148000D03*
D15*
X83312000Y-43688000D03*
D14*
X196596000Y-17018000D03*
D15*
X196596000Y-14478000D03*
D14*
X163576000Y-28194000D03*
D15*
X161036000Y-28194000D03*
D14*
X196596000Y-55626000D03*
D15*
X196596000Y-53086000D03*
D14*
X118364000Y-43688000D03*
D15*
X118364000Y-46228000D03*
D14*
X104394000Y-20066000D03*
D15*
X106934000Y-20066000D03*
D14*
X126492000Y-15240000D03*
D15*
X129032000Y-15240000D03*
D14*
X115824000Y-15240000D03*
D15*
X118364000Y-15240000D03*
D11*
X134874000Y-57150000D03*
X145034000Y-57150000D03*
X145034000Y-50292000D03*
X134874000Y-50292000D03*
X145034000Y-46990000D03*
X134874000Y-46990000D03*
X134874000Y-53848000D03*
X145034000Y-53848000D03*
X153416000Y-43688000D03*
X143256000Y-43688000D03*
X157630000Y-72340000D03*
X157630000Y-82500000D03*
X147052000Y-65904000D03*
X136892000Y-65904000D03*
X164084000Y-49784000D03*
X164084000Y-39624000D03*
X175006000Y-39624000D03*
X175006000Y-49784000D03*
X178562000Y-39624000D03*
X178562000Y-49784000D03*
X183896000Y-32258000D03*
X173736000Y-32258000D03*
X148844000Y-28702000D03*
X148844000Y-38862000D03*
X140716000Y-38862000D03*
X140716000Y-28702000D03*
X136906000Y-28702000D03*
X136906000Y-38862000D03*
X104902000Y-46482000D03*
X104902000Y-36322000D03*
X96520000Y-36322000D03*
X96520000Y-46482000D03*
X100584000Y-36322000D03*
X100584000Y-46482000D03*
X108712000Y-46482000D03*
X108712000Y-36322000D03*
X118872000Y-19558000D03*
X129032000Y-19558000D03*
D16*
X95250000Y-28702000D03*
D17*
X95250000Y-33782000D03*
D16*
X95250000Y-31242000D03*
D17*
X148462000Y-48250000D03*
D16*
X148462000Y-50790000D03*
X148462000Y-53330000D03*
X148462000Y-55870000D03*
X156082000Y-55870000D03*
X156082000Y-53330000D03*
X156082000Y-50790000D03*
X156082000Y-48250000D03*
D18*
X134880000Y-82420000D03*
X134880000Y-79920000D03*
X134880000Y-77420000D03*
X149380000Y-82420000D03*
X149380000Y-79920000D03*
X149380000Y-77420000D03*
D17*
X189230000Y-42164000D03*
D16*
X186690000Y-42164000D03*
X184150000Y-42164000D03*
X181610000Y-42164000D03*
X181610000Y-49784000D03*
X184150000Y-49784000D03*
X186690000Y-49784000D03*
X189230000Y-49784000D03*
D17*
X128778000Y-35306000D03*
D16*
X128778000Y-32766000D03*
X128778000Y-30226000D03*
X128778000Y-27686000D03*
X121158000Y-27686000D03*
X121158000Y-30226000D03*
X121158000Y-32766000D03*
X121158000Y-35306000D03*
D17*
X99314000Y-32766000D03*
D16*
X101854000Y-32766000D03*
X104394000Y-32766000D03*
X106934000Y-32766000D03*
X106934000Y-25146000D03*
X104394000Y-25146000D03*
X101854000Y-25146000D03*
X99314000Y-25146000D03*
D11*
X182245000Y-21463000D03*
X192405000Y-21463000D03*
X196024500Y-33845500D03*
X196024500Y-44005500D03*
X148590000Y-58674000D03*
X181864000Y-39624000D03*
X110236000Y-32258000D03*
X192786000Y-14478000D03*
X197104000Y-50038000D03*
X133096000Y-15240000D03*
X122174000Y-15240000D03*
X178308000Y-21399500D03*
X196151500Y-29845000D03*
X136144000Y-22606000D03*
X129032000Y-45720000D03*
X143510000Y-22860000D03*
X90424000Y-17780000D03*
D19*
X145552000Y-53330000D02*
X148462000Y-53330000D01*
X145034000Y-53848000D02*
X145552000Y-53330000D01*
X145034000Y-57150000D02*
X145034000Y-53848000D01*
X144018000Y-58166000D02*
X145034000Y-57150000D01*
X144018000Y-61976000D02*
X144018000Y-58166000D01*
X173736000Y-33782000D02*
X173736000Y-32258000D01*
X171450000Y-36068000D02*
X173736000Y-33782000D01*
X171450000Y-39624000D02*
X171450000Y-36068000D01*
X184150000Y-37846000D02*
X184150000Y-42164000D01*
X182372000Y-36068000D02*
X184150000Y-37846000D01*
X181610000Y-36068000D02*
X182372000Y-36068000D01*
X181610000Y-36576000D02*
X181610000Y-36068000D01*
X178562000Y-39624000D02*
X181610000Y-36576000D01*
X175006000Y-39624000D02*
X178562000Y-39624000D01*
D20*
X148462000Y-58546000D02*
X148590000Y-58674000D01*
X148462000Y-55870000D02*
X148462000Y-58546000D01*
X181610000Y-39878000D02*
X181864000Y-39624000D01*
X181610000Y-42164000D02*
X181610000Y-39878000D01*
X128778000Y-23876000D02*
X129032000Y-23622000D01*
X128778000Y-27686000D02*
X128778000Y-23876000D01*
X109728000Y-32766000D02*
X110236000Y-32258000D01*
X106934000Y-32766000D02*
X109728000Y-32766000D01*
X180594000Y-42164000D02*
X175006000Y-47752000D01*
X175006000Y-47752000D02*
X175006000Y-49784000D01*
X181610000Y-42164000D02*
X180594000Y-42164000D01*
X196596000Y-14478000D02*
X192786000Y-14478000D01*
X196596000Y-50546000D02*
X197104000Y-50038000D01*
X196596000Y-53086000D02*
X196596000Y-50546000D01*
X129032000Y-15240000D02*
X133096000Y-15240000D01*
X118364000Y-15240000D02*
X122174000Y-15240000D01*
X178371500Y-21463000D02*
X178308000Y-21399500D01*
X182245000Y-21463000D02*
X178371500Y-21463000D01*
X196024500Y-33845500D02*
X196024500Y-29972000D01*
X196024500Y-29972000D02*
X196151500Y-29845000D01*
D19*
X153416000Y-52578000D02*
X154168000Y-53330000D01*
X154168000Y-53330000D02*
X156082000Y-53330000D01*
X153416000Y-43942000D02*
X153416000Y-52578000D01*
X153924000Y-43942000D02*
X162306000Y-35560000D01*
X152654000Y-43942000D02*
X153924000Y-43942000D01*
X102870000Y-28702000D02*
X104394000Y-27178000D01*
X104394000Y-27178000D02*
X104394000Y-25146000D01*
X95250000Y-28702000D02*
X102870000Y-28702000D01*
X104394000Y-25146000D02*
X104394000Y-20066000D01*
X184150000Y-47752000D02*
X186690000Y-45212000D01*
X186690000Y-45212000D02*
X186690000Y-42164000D01*
X184150000Y-49784000D02*
X184150000Y-47752000D01*
X186690000Y-35052000D02*
X183896000Y-32258000D01*
X186690000Y-42164000D02*
X186690000Y-35052000D01*
X183896000Y-30734000D02*
X181356000Y-28194000D01*
X181356000Y-28194000D02*
X163576000Y-28194000D01*
X183896000Y-32258000D02*
X183896000Y-30734000D01*
D20*
X192341500Y-51498500D02*
X191262000Y-52578000D01*
X191262000Y-52578000D02*
X189484000Y-52578000D01*
X189484000Y-52578000D02*
X186690000Y-49784000D01*
X192341500Y-21399500D02*
X192341500Y-51498500D01*
X192341500Y-17018000D02*
X192341500Y-21399500D01*
X181356000Y-52578000D02*
X178562000Y-49784000D01*
X181610000Y-52578000D02*
X181356000Y-52578000D01*
X189484000Y-52578000D02*
X181610000Y-52578000D01*
X160782000Y-52578000D02*
X158994000Y-50790000D01*
X158994000Y-50790000D02*
X156082000Y-50790000D01*
X181610000Y-52578000D02*
X160782000Y-52578000D01*
X141732000Y-17018000D02*
X136144000Y-22606000D01*
X151638000Y-17018000D02*
X141732000Y-17018000D01*
X192341500Y-17018000D02*
X151638000Y-17018000D01*
X101854000Y-23114000D02*
X100330000Y-21590000D01*
X100330000Y-21590000D02*
X93980000Y-21590000D01*
X93980000Y-21590000D02*
X90424000Y-25146000D01*
X90424000Y-25146000D02*
X90424000Y-40386000D01*
X91821000Y-41783000D02*
X96520000Y-46482000D01*
X90424000Y-40386000D02*
X91821000Y-41783000D01*
X101854000Y-25146000D02*
X101854000Y-23114000D01*
X106807000Y-41783000D02*
X108712000Y-43688000D01*
X108712000Y-43688000D02*
X108712000Y-46482000D01*
X106680000Y-41783000D02*
X106807000Y-41783000D01*
X91821000Y-41783000D02*
X106680000Y-41783000D01*
X110871000Y-41783000D02*
X119888000Y-32766000D01*
X119888000Y-32766000D02*
X121158000Y-32766000D01*
X106680000Y-41783000D02*
X110871000Y-41783000D01*
X129032000Y-46736000D02*
X129032000Y-45720000D01*
X132588000Y-50292000D02*
X129032000Y-46736000D01*
X134874000Y-50292000D02*
X132588000Y-50292000D01*
X134874000Y-53848000D02*
X134874000Y-50292000D01*
X149352000Y-17018000D02*
X143510000Y-22860000D01*
X151638000Y-17018000D02*
X149352000Y-17018000D01*
X90424000Y-25146000D02*
X90424000Y-17780000D01*
X196596000Y-17145000D02*
X192341500Y-21399500D01*
X196596000Y-17018000D02*
X196596000Y-17145000D01*
X196596000Y-17018000D02*
X192341500Y-17018000D01*
X138052000Y-82420000D02*
X139192000Y-81280000D01*
X139192000Y-81280000D02*
X139192000Y-76962000D01*
X139192000Y-76962000D02*
X129286000Y-67056000D01*
X129286000Y-67056000D02*
X129286000Y-55118000D01*
X129286000Y-55118000D02*
X125984000Y-51816000D01*
X125984000Y-51816000D02*
X91948000Y-51816000D01*
X134880000Y-82420000D02*
X138052000Y-82420000D01*
X83820000Y-43688000D02*
X91948000Y-51816000D01*
X83312000Y-43688000D02*
X83820000Y-43688000D01*
X85344000Y-41148000D02*
X93980000Y-49784000D01*
X84836000Y-41148000D02*
X83312000Y-41148000D01*
X149380000Y-77420000D02*
X142698000Y-77420000D01*
X126746000Y-49784000D02*
X93980000Y-49784000D01*
X131318000Y-54356000D02*
X126746000Y-49784000D01*
X131318000Y-66040000D02*
X131318000Y-54356000D01*
X142698000Y-77420000D02*
X131318000Y-66040000D01*
X84836000Y-41148000D02*
X85344000Y-41148000D01*
D19*
X147188000Y-66040000D02*
X147052000Y-65904000D01*
X151638000Y-66040000D02*
X147188000Y-66040000D01*
X150966000Y-79920000D02*
X151892000Y-78994000D01*
X151892000Y-78994000D02*
X151892000Y-74676000D01*
X151892000Y-74676000D02*
X150114000Y-72898000D01*
X150114000Y-72898000D02*
X150114000Y-69850000D01*
X150114000Y-69850000D02*
X151638000Y-68326000D01*
X151638000Y-68326000D02*
X151638000Y-66040000D01*
X149380000Y-79920000D02*
X150966000Y-79920000D01*
X164592000Y-36576000D02*
X167640000Y-39624000D01*
X164592000Y-35560000D02*
X164592000Y-36576000D01*
D20*
X153550000Y-82420000D02*
X149380000Y-82420000D01*
X153630000Y-82500000D02*
X153550000Y-82420000D01*
X157630000Y-82500000D02*
X153630000Y-82500000D01*
D19*
X131318000Y-30226000D02*
X128778000Y-30226000D01*
X132842000Y-28702000D02*
X131318000Y-30226000D01*
X136906000Y-28702000D02*
X132842000Y-28702000D01*
X140716000Y-38862000D02*
X136906000Y-38862000D01*
X134874000Y-42164000D02*
X130048000Y-42164000D01*
X130048000Y-42164000D02*
X128524000Y-40640000D01*
X128524000Y-40640000D02*
X128524000Y-38862000D01*
X136906000Y-40132000D02*
X134874000Y-42164000D01*
X136906000Y-38862000D02*
X136906000Y-40132000D01*
D20*
X189992000Y-55626000D02*
X189230000Y-56388000D01*
X189230000Y-56388000D02*
X160274000Y-56388000D01*
X160274000Y-56388000D02*
X159004000Y-57658000D01*
X159004000Y-57658000D02*
X159004000Y-70966000D01*
X159004000Y-70966000D02*
X157630000Y-72340000D01*
X196596000Y-55626000D02*
X189992000Y-55626000D01*
X194373500Y-54356000D02*
X194373500Y-45656500D01*
X194373500Y-45656500D02*
X196024500Y-44005500D01*
X195643500Y-55626000D02*
X194373500Y-54356000D01*
X196596000Y-55626000D02*
X195643500Y-55626000D01*
D19*
X145922000Y-50790000D02*
X145160000Y-50028000D01*
X145160000Y-47488000D02*
X145542000Y-47106000D01*
X145034000Y-45466000D02*
X143256000Y-43688000D01*
X145034000Y-50292000D02*
X145034000Y-45466000D01*
X145532000Y-50790000D02*
X145034000Y-50292000D01*
X148462000Y-50790000D02*
X145532000Y-50790000D01*
X145034000Y-50292000D02*
X145034000Y-46990000D01*
X115824000Y-16510000D02*
X115824000Y-15240000D01*
X115824000Y-17018000D02*
X115824000Y-15240000D01*
X112776000Y-20066000D02*
X115824000Y-17018000D01*
X106934000Y-20066000D02*
X112776000Y-20066000D01*
X123698000Y-18034000D02*
X126492000Y-15240000D01*
X120396000Y-18034000D02*
X123698000Y-18034000D01*
X118872000Y-19558000D02*
X120396000Y-18034000D01*
X118872000Y-23622000D02*
X118872000Y-19558000D01*
X113538000Y-28956000D02*
X118872000Y-23622000D01*
X113538000Y-29464000D02*
X113538000Y-28956000D01*
X154178000Y-62092000D02*
X154304000Y-61966000D01*
X154178000Y-66040000D02*
X154178000Y-62092000D01*
X167640000Y-49784000D02*
X171450000Y-49784000D01*
X164084000Y-49784000D02*
X167640000Y-49784000D01*
X144780000Y-28702000D02*
X140716000Y-28702000D01*
X148844000Y-28702000D02*
X144780000Y-28702000D01*
X126619000Y-32131000D02*
X124714000Y-30226000D01*
X127254000Y-32766000D02*
X126619000Y-32131000D01*
X124714000Y-30226000D02*
X121158000Y-30226000D01*
X128778000Y-32766000D02*
X127254000Y-32766000D01*
X119888000Y-38862000D02*
X126619000Y-32131000D01*
X118364000Y-38862000D02*
X119888000Y-38862000D01*
X118364000Y-38862000D02*
X118364000Y-43688000D01*
X112522000Y-36322000D02*
X108712000Y-36322000D01*
X104394000Y-35814000D02*
X104394000Y-32766000D01*
X104902000Y-36322000D02*
X104394000Y-35814000D01*
X108712000Y-36322000D02*
X104902000Y-36322000D01*
X112776000Y-46228000D02*
X112522000Y-46482000D01*
X118364000Y-46228000D02*
X112776000Y-46228000D01*
D20*
X84582000Y-56642000D02*
X83312000Y-55372000D01*
X134880000Y-79920000D02*
X128180000Y-79920000D01*
X124968000Y-76708000D02*
X128180000Y-79920000D01*
X124968000Y-57404000D02*
X124968000Y-76708000D01*
X124206000Y-56642000D02*
X124968000Y-57404000D01*
X89154000Y-56642000D02*
X124206000Y-56642000D01*
X89154000Y-56642000D02*
X84582000Y-56642000D01*
X87376000Y-52832000D02*
X89154000Y-54610000D01*
X128728000Y-77420000D02*
X134880000Y-77420000D01*
X127000000Y-75692000D02*
X128728000Y-77420000D01*
X127000000Y-56642000D02*
X127000000Y-75692000D01*
X124968000Y-54610000D02*
X127000000Y-56642000D01*
X89154000Y-54610000D02*
X124968000Y-54610000D01*
X83312000Y-52832000D02*
X87376000Y-52832000D01*
D19*
X158496000Y-28194000D02*
X154178000Y-32512000D01*
X154178000Y-32512000D02*
X154178000Y-37592000D01*
X154178000Y-37592000D02*
X152908000Y-38862000D01*
X152908000Y-38862000D02*
X148844000Y-38862000D01*
X161036000Y-28194000D02*
X158496000Y-28194000D01*
X93726000Y-31242000D02*
X95250000Y-31242000D01*
X92710000Y-32258000D02*
X93726000Y-31242000D01*
X92710000Y-35306000D02*
X92710000Y-32258000D01*
X93726000Y-36322000D02*
X92710000Y-35306000D01*
X100584000Y-36322000D02*
X93726000Y-36322000D01*
X101854000Y-35052000D02*
X100584000Y-36322000D01*
X101854000Y-32766000D02*
X101854000Y-35052000D01*
D21*
G36*
X108711371Y-48514000D02*
X96923267Y-48514000D01*
X97669532Y-48205650D01*
X98241641Y-47634538D01*
X98551646Y-46887963D01*
X98552352Y-46079584D01*
X98243650Y-45332468D01*
X97672538Y-44760359D01*
X96925963Y-44450354D01*
X96283844Y-44449793D01*
X94887051Y-43053000D01*
X106280948Y-43053000D01*
X107442000Y-44214051D01*
X107442000Y-44878608D01*
X106990359Y-45329462D01*
X106680354Y-46076037D01*
X106679648Y-46884416D01*
X106988350Y-47631532D01*
X107559462Y-48203641D01*
X108306037Y-48513646D01*
X108711371Y-48514000D01*
X108711371Y-48514000D01*
G37*
X108711371Y-48514000D02*
X96923267Y-48514000D01*
X97669532Y-48205650D01*
X98241641Y-47634538D01*
X98551646Y-46887963D01*
X98552352Y-46079584D01*
X98243650Y-45332468D01*
X97672538Y-44760359D01*
X96925963Y-44450354D01*
X96283844Y-44449793D01*
X94887051Y-43053000D01*
X106280948Y-43053000D01*
X107442000Y-44214051D01*
X107442000Y-44878608D01*
X106990359Y-45329462D01*
X106680354Y-46076037D01*
X106679648Y-46884416D01*
X106988350Y-47631532D01*
X107559462Y-48203641D01*
X108306037Y-48513646D01*
X108711371Y-48514000D01*
G36*
X185674000Y-44791159D02*
X183431580Y-47033580D01*
X183211338Y-47363193D01*
X183198507Y-47427700D01*
X183134000Y-47752000D01*
X183134000Y-48644844D01*
X182879664Y-48898737D01*
X182474404Y-48492769D01*
X181914472Y-48260265D01*
X181308188Y-48259736D01*
X180747851Y-48491262D01*
X180378730Y-48859739D01*
X180285650Y-48634468D01*
X179714538Y-48062359D01*
X178967963Y-47752354D01*
X178159584Y-47751648D01*
X177412468Y-48060350D01*
X176840359Y-48631462D01*
X176530354Y-49378037D01*
X176529648Y-50186416D01*
X176838350Y-50933532D01*
X177212165Y-51308000D01*
X172799530Y-51308000D01*
X173171641Y-50936538D01*
X173481646Y-50189963D01*
X173482352Y-49381584D01*
X173173650Y-48634468D01*
X172602538Y-48062359D01*
X171855963Y-47752354D01*
X171047584Y-47751648D01*
X170300468Y-48060350D01*
X169728359Y-48631462D01*
X169671663Y-48768000D01*
X169418824Y-48768000D01*
X169363650Y-48634468D01*
X168792538Y-48062359D01*
X168045963Y-47752354D01*
X167237584Y-47751648D01*
X166490468Y-48060350D01*
X165918359Y-48631462D01*
X165862245Y-48766598D01*
X165807650Y-48634468D01*
X165236538Y-48062359D01*
X164489963Y-47752354D01*
X163681584Y-47751648D01*
X162934468Y-48060350D01*
X162362359Y-48631462D01*
X162052354Y-49378037D01*
X162051648Y-50186416D01*
X162360350Y-50933532D01*
X162734165Y-51308000D01*
X161308052Y-51308000D01*
X159892026Y-49891974D01*
X159480008Y-49616673D01*
X158994000Y-49519999D01*
X158993994Y-49520000D01*
X156967597Y-49520000D01*
X156967262Y-49519664D01*
X157373231Y-49114404D01*
X157605735Y-48554472D01*
X157606264Y-47948188D01*
X157374738Y-47387851D01*
X156946404Y-46958769D01*
X156386472Y-46726265D01*
X155780188Y-46725736D01*
X155219851Y-46957262D01*
X154790769Y-47385596D01*
X154558265Y-47945528D01*
X154557736Y-48551812D01*
X154789262Y-49112149D01*
X155196737Y-49520335D01*
X154790769Y-49925596D01*
X154558265Y-50485528D01*
X154557736Y-51091812D01*
X154789262Y-51652149D01*
X155196737Y-52060335D01*
X154942629Y-52314000D01*
X154588840Y-52314000D01*
X154432000Y-52157159D01*
X154432000Y-45466824D01*
X154565532Y-45411650D01*
X155137641Y-44840538D01*
X155447646Y-44093963D01*
X155447854Y-43854985D01*
X161964840Y-37338000D01*
X163321309Y-37338000D01*
X163554698Y-37241327D01*
X163699948Y-37096077D01*
X163774202Y-37145692D01*
X163774203Y-37145692D01*
X163873580Y-37294420D01*
X165663761Y-39084601D01*
X165608354Y-39218037D01*
X165607648Y-40026416D01*
X165916350Y-40773532D01*
X166487462Y-41345641D01*
X167234037Y-41655646D01*
X168042416Y-41656352D01*
X168789532Y-41347650D01*
X169361641Y-40776538D01*
X169545068Y-40334796D01*
X169726350Y-40773532D01*
X170297462Y-41345641D01*
X171044037Y-41655646D01*
X171852416Y-41656352D01*
X172599532Y-41347650D01*
X173171641Y-40776538D01*
X173227754Y-40641401D01*
X173282350Y-40773532D01*
X173853462Y-41345641D01*
X174600037Y-41655646D01*
X175408416Y-41656352D01*
X176155532Y-41347650D01*
X176727641Y-40776538D01*
X176783754Y-40641401D01*
X176838350Y-40773532D01*
X177409462Y-41345641D01*
X178156037Y-41655646D01*
X178964416Y-41656352D01*
X179711532Y-41347650D01*
X180283641Y-40776538D01*
X180593646Y-40029963D01*
X180594352Y-39221584D01*
X180537894Y-39084946D01*
X181522916Y-38099924D01*
X182012416Y-38100352D01*
X182688258Y-37821099D01*
X183134000Y-38266840D01*
X183134000Y-41024844D01*
X182858769Y-41299596D01*
X182626265Y-41859528D01*
X182625736Y-42465812D01*
X182857262Y-43026149D01*
X183285596Y-43455231D01*
X183845528Y-43687735D01*
X184451812Y-43688264D01*
X185012149Y-43456738D01*
X185420335Y-43049262D01*
X185674000Y-43303370D01*
X185674000Y-44791159D01*
X185674000Y-44791159D01*
G37*
X185674000Y-44791159D02*
X183431580Y-47033580D01*
X183211338Y-47363193D01*
X183198507Y-47427700D01*
X183134000Y-47752000D01*
X183134000Y-48644844D01*
X182879664Y-48898737D01*
X182474404Y-48492769D01*
X181914472Y-48260265D01*
X181308188Y-48259736D01*
X180747851Y-48491262D01*
X180378730Y-48859739D01*
X180285650Y-48634468D01*
X179714538Y-48062359D01*
X178967963Y-47752354D01*
X178159584Y-47751648D01*
X177412468Y-48060350D01*
X176840359Y-48631462D01*
X176530354Y-49378037D01*
X176529648Y-50186416D01*
X176838350Y-50933532D01*
X177212165Y-51308000D01*
X172799530Y-51308000D01*
X173171641Y-50936538D01*
X173481646Y-50189963D01*
X173482352Y-49381584D01*
X173173650Y-48634468D01*
X172602538Y-48062359D01*
X171855963Y-47752354D01*
X171047584Y-47751648D01*
X170300468Y-48060350D01*
X169728359Y-48631462D01*
X169671663Y-48768000D01*
X169418824Y-48768000D01*
X169363650Y-48634468D01*
X168792538Y-48062359D01*
X168045963Y-47752354D01*
X167237584Y-47751648D01*
X166490468Y-48060350D01*
X165918359Y-48631462D01*
X165862245Y-48766598D01*
X165807650Y-48634468D01*
X165236538Y-48062359D01*
X164489963Y-47752354D01*
X163681584Y-47751648D01*
X162934468Y-48060350D01*
X162362359Y-48631462D01*
X162052354Y-49378037D01*
X162051648Y-50186416D01*
X162360350Y-50933532D01*
X162734165Y-51308000D01*
X161308052Y-51308000D01*
X159892026Y-49891974D01*
X159480008Y-49616673D01*
X158994000Y-49519999D01*
X158993994Y-49520000D01*
X156967597Y-49520000D01*
X156967262Y-49519664D01*
X157373231Y-49114404D01*
X157605735Y-48554472D01*
X157606264Y-47948188D01*
X157374738Y-47387851D01*
X156946404Y-46958769D01*
X156386472Y-46726265D01*
X155780188Y-46725736D01*
X155219851Y-46957262D01*
X154790769Y-47385596D01*
X154558265Y-47945528D01*
X154557736Y-48551812D01*
X154789262Y-49112149D01*
X155196737Y-49520335D01*
X154790769Y-49925596D01*
X154558265Y-50485528D01*
X154557736Y-51091812D01*
X154789262Y-51652149D01*
X155196737Y-52060335D01*
X154942629Y-52314000D01*
X154588840Y-52314000D01*
X154432000Y-52157159D01*
X154432000Y-45466824D01*
X154565532Y-45411650D01*
X155137641Y-44840538D01*
X155447646Y-44093963D01*
X155447854Y-43854985D01*
X161964840Y-37338000D01*
X163321309Y-37338000D01*
X163554698Y-37241327D01*
X163699948Y-37096077D01*
X163774202Y-37145692D01*
X163774203Y-37145692D01*
X163873580Y-37294420D01*
X165663761Y-39084601D01*
X165608354Y-39218037D01*
X165607648Y-40026416D01*
X165916350Y-40773532D01*
X166487462Y-41345641D01*
X167234037Y-41655646D01*
X168042416Y-41656352D01*
X168789532Y-41347650D01*
X169361641Y-40776538D01*
X169545068Y-40334796D01*
X169726350Y-40773532D01*
X170297462Y-41345641D01*
X171044037Y-41655646D01*
X171852416Y-41656352D01*
X172599532Y-41347650D01*
X173171641Y-40776538D01*
X173227754Y-40641401D01*
X173282350Y-40773532D01*
X173853462Y-41345641D01*
X174600037Y-41655646D01*
X175408416Y-41656352D01*
X176155532Y-41347650D01*
X176727641Y-40776538D01*
X176783754Y-40641401D01*
X176838350Y-40773532D01*
X177409462Y-41345641D01*
X178156037Y-41655646D01*
X178964416Y-41656352D01*
X179711532Y-41347650D01*
X180283641Y-40776538D01*
X180593646Y-40029963D01*
X180594352Y-39221584D01*
X180537894Y-39084946D01*
X181522916Y-38099924D01*
X182012416Y-38100352D01*
X182688258Y-37821099D01*
X183134000Y-38266840D01*
X183134000Y-41024844D01*
X182858769Y-41299596D01*
X182626265Y-41859528D01*
X182625736Y-42465812D01*
X182857262Y-43026149D01*
X183285596Y-43455231D01*
X183845528Y-43687735D01*
X184451812Y-43688264D01*
X185012149Y-43456738D01*
X185420335Y-43049262D01*
X185674000Y-43303370D01*
X185674000Y-44791159D01*
G36*
X198172000Y-15409974D02*
X198098699Y-15336673D01*
X197865310Y-15240000D01*
X197612691Y-15240000D01*
X195326691Y-15240000D01*
X195093302Y-15336673D01*
X194914673Y-15515301D01*
X194818285Y-15748000D01*
X192341500Y-15748000D01*
X151638000Y-15748000D01*
X149352005Y-15748000D01*
X149352000Y-15747999D01*
X149351994Y-15748000D01*
X141732000Y-15748000D01*
X141245992Y-15844673D01*
X140833974Y-16119974D01*
X140833971Y-16119977D01*
X136379742Y-20574205D01*
X135741584Y-20573648D01*
X134994468Y-20882350D01*
X134422359Y-21453462D01*
X134112354Y-22200037D01*
X134111648Y-23008416D01*
X134420350Y-23755532D01*
X134991462Y-24327641D01*
X135738037Y-24637646D01*
X136546416Y-24638352D01*
X137293532Y-24329650D01*
X137865641Y-23758538D01*
X138175646Y-23011963D01*
X138176206Y-22369845D01*
X142258051Y-18288000D01*
X146285948Y-18288000D01*
X143745742Y-20828205D01*
X143107584Y-20827648D01*
X142360468Y-21136350D01*
X141788359Y-21707462D01*
X141478354Y-22454037D01*
X141477648Y-23262416D01*
X141786350Y-24009532D01*
X142357462Y-24581641D01*
X143104037Y-24891646D01*
X143912416Y-24892352D01*
X144659532Y-24583650D01*
X145231641Y-24012538D01*
X145541646Y-23265963D01*
X145542206Y-22623845D01*
X149878051Y-18288000D01*
X151638000Y-18288000D01*
X191071500Y-18288000D01*
X191071500Y-19922997D01*
X190683359Y-20310462D01*
X190373354Y-21057037D01*
X190372648Y-21865416D01*
X190681350Y-22612532D01*
X191071500Y-23003363D01*
X191071500Y-50972448D01*
X190735948Y-51308000D01*
X190010051Y-51308000D01*
X189870409Y-51168358D01*
X190092149Y-51076738D01*
X190521231Y-50648404D01*
X190753735Y-50088472D01*
X190754264Y-49482188D01*
X190522738Y-48921851D01*
X190094404Y-48492769D01*
X189534472Y-48260265D01*
X188928188Y-48259736D01*
X188367851Y-48491262D01*
X187959664Y-48898737D01*
X187554404Y-48492769D01*
X186994472Y-48260265D01*
X186388188Y-48259736D01*
X185827851Y-48491262D01*
X185419664Y-48898737D01*
X185166000Y-48644629D01*
X185166000Y-48172840D01*
X187408420Y-45930421D01*
X187408420Y-45930420D01*
X187555580Y-45710179D01*
X187628661Y-45600807D01*
X187628662Y-45600806D01*
X187705999Y-45212000D01*
X187706000Y-45212000D01*
X187706000Y-43303155D01*
X187742292Y-43266926D01*
X187802673Y-43412698D01*
X187981301Y-43591327D01*
X188214690Y-43688000D01*
X188467309Y-43688000D01*
X190245309Y-43688000D01*
X190478698Y-43591327D01*
X190657327Y-43412699D01*
X190754000Y-43179310D01*
X190754000Y-42926691D01*
X190754000Y-41148691D01*
X190657327Y-40915302D01*
X190478699Y-40736673D01*
X190245310Y-40640000D01*
X189992691Y-40640000D01*
X188214691Y-40640000D01*
X187981302Y-40736673D01*
X187802673Y-40915301D01*
X187742317Y-41061011D01*
X187706000Y-41024629D01*
X187706000Y-35052000D01*
X187628662Y-34663194D01*
X187628662Y-34663193D01*
X187408421Y-34333580D01*
X185872238Y-32797398D01*
X185927646Y-32663963D01*
X185928352Y-31855584D01*
X185619650Y-31108468D01*
X185048538Y-30536359D01*
X184856854Y-30456765D01*
X184834662Y-30345194D01*
X184834661Y-30345193D01*
X184761580Y-30235821D01*
X184614420Y-30015580D01*
X184614420Y-30015579D01*
X182074420Y-27475580D01*
X181744807Y-27255338D01*
X181680299Y-27242507D01*
X181356000Y-27178000D01*
X165354000Y-27178000D01*
X165354000Y-26924691D01*
X165257327Y-26691302D01*
X165078699Y-26512673D01*
X164845310Y-26416000D01*
X164592691Y-26416000D01*
X162306691Y-26416000D01*
X162073302Y-26512673D01*
X161928051Y-26657922D01*
X161716411Y-26516509D01*
X161036000Y-26381167D01*
X160355589Y-26516509D01*
X159778764Y-26901931D01*
X159594300Y-27178000D01*
X158496000Y-27178000D01*
X158171700Y-27242507D01*
X158107193Y-27255338D01*
X157777579Y-27475580D01*
X153459580Y-31793580D01*
X153239338Y-32123193D01*
X153226507Y-32187700D01*
X153162000Y-32512000D01*
X153162000Y-37171159D01*
X152487159Y-37846000D01*
X150622824Y-37846000D01*
X150567650Y-37712468D01*
X149996538Y-37140359D01*
X149249963Y-36830354D01*
X148441584Y-36829648D01*
X147694468Y-37138350D01*
X147122359Y-37709462D01*
X146812354Y-38456037D01*
X146811648Y-39264416D01*
X147120350Y-40011532D01*
X147691462Y-40583641D01*
X148438037Y-40893646D01*
X149246416Y-40894352D01*
X149993532Y-40585650D01*
X150565641Y-40014538D01*
X150622336Y-39878000D01*
X152908000Y-39878000D01*
X152908000Y-39877999D01*
X153232299Y-39813492D01*
X153296806Y-39800662D01*
X153296807Y-39800662D01*
X153626420Y-39580420D01*
X154896420Y-38310421D01*
X154896420Y-38310420D01*
X155043580Y-38090179D01*
X155116661Y-37980807D01*
X155116662Y-37980806D01*
X155193999Y-37592000D01*
X155194000Y-37592000D01*
X155194000Y-32932840D01*
X158916840Y-29210000D01*
X159594300Y-29210000D01*
X159778764Y-29486069D01*
X160355589Y-29871491D01*
X161036000Y-30006833D01*
X161716411Y-29871491D01*
X161928051Y-29730077D01*
X162073301Y-29875327D01*
X162306690Y-29972000D01*
X162559309Y-29972000D01*
X164845309Y-29972000D01*
X165078698Y-29875327D01*
X165257327Y-29696699D01*
X165354000Y-29463310D01*
X165354000Y-29210691D01*
X165354000Y-29210000D01*
X180935159Y-29210000D01*
X182502776Y-30777617D01*
X182174359Y-31105462D01*
X181864354Y-31852037D01*
X181863648Y-32660416D01*
X182172350Y-33407532D01*
X182743462Y-33979641D01*
X183490037Y-34289646D01*
X184298416Y-34290352D01*
X184435053Y-34233894D01*
X185674000Y-35472840D01*
X185674000Y-41024844D01*
X185419664Y-41278737D01*
X185166000Y-41024629D01*
X185166000Y-37846000D01*
X185088662Y-37457194D01*
X185088662Y-37457193D01*
X184868421Y-37127580D01*
X183642146Y-35901305D01*
X183642352Y-35665584D01*
X183333650Y-34918468D01*
X182762538Y-34346359D01*
X182015963Y-34036354D01*
X181207584Y-34035648D01*
X180460468Y-34344350D01*
X179888359Y-34915462D01*
X179578354Y-35662037D01*
X179577648Y-36470416D01*
X179782635Y-36966523D01*
X179101398Y-37647761D01*
X178967963Y-37592354D01*
X178159584Y-37591648D01*
X177412468Y-37900350D01*
X176840359Y-38471462D01*
X176784245Y-38606598D01*
X176729650Y-38474468D01*
X176158538Y-37902359D01*
X175411963Y-37592354D01*
X174603584Y-37591648D01*
X173856468Y-37900350D01*
X173284359Y-38471462D01*
X173228245Y-38606598D01*
X173173650Y-38474468D01*
X172602538Y-37902359D01*
X172467401Y-37846245D01*
X172599532Y-37791650D01*
X173171641Y-37220538D01*
X173481646Y-36473963D01*
X173482352Y-35665584D01*
X173425894Y-35528946D01*
X174454420Y-34500421D01*
X174454420Y-34500420D01*
X174601580Y-34280179D01*
X174674661Y-34170807D01*
X174674662Y-34170806D01*
X174696773Y-34059643D01*
X174885532Y-33981650D01*
X175457641Y-33410538D01*
X175767646Y-32663963D01*
X175768352Y-31855584D01*
X175459650Y-31108468D01*
X174888538Y-30536359D01*
X174141963Y-30226354D01*
X173333584Y-30225648D01*
X172586468Y-30534350D01*
X172014359Y-31105462D01*
X171704354Y-31852037D01*
X171703648Y-32660416D01*
X172012350Y-33407532D01*
X172342700Y-33738458D01*
X171989398Y-34091761D01*
X171855963Y-34036354D01*
X171047584Y-34035648D01*
X170300468Y-34344350D01*
X169728359Y-34915462D01*
X169418354Y-35662037D01*
X169417648Y-36470416D01*
X169726350Y-37217532D01*
X170297462Y-37789641D01*
X170432598Y-37845754D01*
X170300468Y-37900350D01*
X169728359Y-38471462D01*
X169544931Y-38913203D01*
X169363650Y-38474468D01*
X168792538Y-37902359D01*
X168045963Y-37592354D01*
X167237584Y-37591648D01*
X167100946Y-37648105D01*
X166031753Y-36578912D01*
X166234658Y-36275244D01*
X166370000Y-35594833D01*
X166370000Y-35525167D01*
X166234658Y-34844756D01*
X165849236Y-34267931D01*
X165272411Y-33882509D01*
X164592000Y-33747167D01*
X163911589Y-33882509D01*
X163699948Y-34023922D01*
X163554699Y-33878673D01*
X163321310Y-33782000D01*
X163068691Y-33782000D01*
X160782691Y-33782000D01*
X160549302Y-33878673D01*
X160370673Y-34057301D01*
X160274000Y-34290690D01*
X160274000Y-34543309D01*
X160274000Y-36155159D01*
X154493824Y-41935335D01*
X153821963Y-41656354D01*
X153013584Y-41655648D01*
X152266468Y-41964350D01*
X151694359Y-42535462D01*
X151384354Y-43282037D01*
X151383648Y-44090416D01*
X151692350Y-44837532D01*
X152263462Y-45409641D01*
X152400000Y-45466336D01*
X152400000Y-52578000D01*
X152464507Y-52902299D01*
X152477338Y-52966807D01*
X152697580Y-53296420D01*
X153449580Y-54048421D01*
X153779193Y-54268662D01*
X153779194Y-54268662D01*
X154168000Y-54346000D01*
X154942844Y-54346000D01*
X155196737Y-54600335D01*
X154790769Y-55005596D01*
X154558265Y-55565528D01*
X154557736Y-56171812D01*
X154789262Y-56732149D01*
X155217596Y-57161231D01*
X155777528Y-57393735D01*
X156383812Y-57394264D01*
X156944149Y-57162738D01*
X157373231Y-56734404D01*
X157605735Y-56174472D01*
X157606264Y-55568188D01*
X157374738Y-55007851D01*
X156967262Y-54599664D01*
X157373231Y-54194404D01*
X157605735Y-53634472D01*
X157606264Y-53028188D01*
X157374738Y-52467851D01*
X156967597Y-52060000D01*
X158467948Y-52060000D01*
X159883974Y-53476026D01*
X160295992Y-53751327D01*
X160782000Y-53848001D01*
X160782000Y-53848000D01*
X160782005Y-53848000D01*
X181355994Y-53848000D01*
X181356000Y-53848001D01*
X181356000Y-53848000D01*
X181356005Y-53848000D01*
X181610000Y-53848000D01*
X189483994Y-53848000D01*
X189484000Y-53848001D01*
X189484000Y-53848000D01*
X189484005Y-53848000D01*
X191261994Y-53848000D01*
X191262000Y-53848001D01*
X191262000Y-53848000D01*
X191748008Y-53751327D01*
X192160026Y-53476026D01*
X193103500Y-52532551D01*
X193103500Y-54355994D01*
X193103499Y-54356000D01*
X189992005Y-54356000D01*
X189992000Y-54355999D01*
X189505992Y-54452673D01*
X189093974Y-54727974D01*
X189093971Y-54727977D01*
X188703948Y-55118000D01*
X160274000Y-55118000D01*
X159787992Y-55214673D01*
X159375974Y-55489974D01*
X159375971Y-55489977D01*
X158105974Y-56759974D01*
X157830673Y-57171992D01*
X157733999Y-57658000D01*
X157734000Y-57658005D01*
X157734000Y-70308090D01*
X157227584Y-70307648D01*
X156480468Y-70616350D01*
X155908359Y-71187462D01*
X155598354Y-71934037D01*
X155597648Y-72742416D01*
X155906350Y-73489532D01*
X156477462Y-74061641D01*
X157224037Y-74371646D01*
X158032416Y-74372352D01*
X158779532Y-74063650D01*
X159351641Y-73492538D01*
X159661646Y-72745963D01*
X159662206Y-72103844D01*
X159902022Y-71864028D01*
X159902025Y-71864026D01*
X159902026Y-71864026D01*
X159920000Y-71837125D01*
X159920000Y-87210000D01*
X124340000Y-87210000D01*
X124340000Y-77876052D01*
X127281974Y-80818026D01*
X127693992Y-81093327D01*
X128180000Y-81190001D01*
X128180000Y-81190000D01*
X128180005Y-81190000D01*
X133797888Y-81190000D01*
X133494722Y-81492637D01*
X133245284Y-82093352D01*
X133244716Y-82743795D01*
X133493106Y-83344943D01*
X133952637Y-83805278D01*
X134553352Y-84054716D01*
X135203795Y-84055284D01*
X135804943Y-83806894D01*
X135922041Y-83690000D01*
X138051994Y-83690000D01*
X138052000Y-83690001D01*
X138052000Y-83690000D01*
X138538008Y-83593327D01*
X138950026Y-83318026D01*
X140090022Y-82178028D01*
X140090025Y-82178026D01*
X140090026Y-82178026D01*
X140365327Y-81766008D01*
X140462000Y-81280000D01*
X140462000Y-76980051D01*
X141799971Y-78318022D01*
X141799974Y-78318026D01*
X142211992Y-78593327D01*
X142698000Y-78690000D01*
X148297888Y-78690000D01*
X147994722Y-78992637D01*
X147745284Y-79593352D01*
X147744716Y-80243795D01*
X147993106Y-80844943D01*
X148317759Y-81170164D01*
X147994722Y-81492637D01*
X147745284Y-82093352D01*
X147744716Y-82743795D01*
X147993106Y-83344943D01*
X148452637Y-83805278D01*
X149053352Y-84054716D01*
X149703795Y-84055284D01*
X150304943Y-83806894D01*
X150422041Y-83690000D01*
X151946747Y-83690000D01*
X152477462Y-84221641D01*
X153224037Y-84531646D01*
X154032416Y-84532352D01*
X154779532Y-84223650D01*
X155233973Y-83770000D01*
X156026608Y-83770000D01*
X156477462Y-84221641D01*
X157224037Y-84531646D01*
X158032416Y-84532352D01*
X158779532Y-84223650D01*
X159351641Y-83652538D01*
X159661646Y-82905963D01*
X159662352Y-82097584D01*
X159353650Y-81350468D01*
X158782538Y-80778359D01*
X158035963Y-80468354D01*
X157227584Y-80467648D01*
X156480468Y-80776350D01*
X156026026Y-81230000D01*
X155233391Y-81230000D01*
X154782538Y-80778359D01*
X154035963Y-80468354D01*
X153227584Y-80467648D01*
X152480468Y-80776350D01*
X152106165Y-81150000D01*
X150462111Y-81150000D01*
X150676485Y-80936000D01*
X150966000Y-80936000D01*
X150966000Y-80935999D01*
X151290299Y-80871492D01*
X151354806Y-80858662D01*
X151354807Y-80858662D01*
X151684420Y-80638420D01*
X152610420Y-79712420D01*
X152610421Y-79712420D01*
X152830662Y-79382807D01*
X152830662Y-79382806D01*
X152843492Y-79318299D01*
X152907999Y-78994000D01*
X152908000Y-78994000D01*
X152908000Y-74676000D01*
X152830662Y-74287194D01*
X152830662Y-74287193D01*
X152610421Y-73957580D01*
X151130000Y-72477159D01*
X151130000Y-70270840D01*
X152356420Y-69044421D01*
X152356420Y-69044420D01*
X152503580Y-68824179D01*
X152576661Y-68714807D01*
X152576662Y-68714806D01*
X152653999Y-68326000D01*
X152654000Y-68326000D01*
X152654000Y-67818000D01*
X152907309Y-67818000D01*
X153140698Y-67721327D01*
X153285948Y-67576077D01*
X153497589Y-67717491D01*
X154178000Y-67852833D01*
X154858411Y-67717491D01*
X155435236Y-67332069D01*
X155820658Y-66755244D01*
X155956000Y-66074833D01*
X155956000Y-66005167D01*
X155820658Y-65324756D01*
X155435236Y-64747931D01*
X155194000Y-64586742D01*
X155194000Y-63754824D01*
X155327532Y-63699650D01*
X155899641Y-63128538D01*
X156209646Y-62381963D01*
X156210352Y-61573584D01*
X155901650Y-60826468D01*
X155330538Y-60254359D01*
X154583963Y-59944354D01*
X153775584Y-59943648D01*
X153028468Y-60252350D01*
X152456359Y-60823462D01*
X152146354Y-61570037D01*
X152145648Y-62378416D01*
X152454350Y-63125532D01*
X153025462Y-63697641D01*
X153162000Y-63754336D01*
X153162000Y-64379974D01*
X153140699Y-64358673D01*
X152907310Y-64262000D01*
X152654691Y-64262000D01*
X150368691Y-64262000D01*
X150135302Y-64358673D01*
X149986264Y-64507710D01*
X149986264Y-53028188D01*
X149754738Y-52467851D01*
X149347262Y-52059664D01*
X149753231Y-51654404D01*
X149985735Y-51094472D01*
X149986264Y-50488188D01*
X149754738Y-49927851D01*
X149564926Y-49737707D01*
X149710698Y-49677327D01*
X149889327Y-49498699D01*
X149986000Y-49265310D01*
X149986000Y-49012691D01*
X149986000Y-47234691D01*
X149889327Y-47001302D01*
X149710699Y-46822673D01*
X149477310Y-46726000D01*
X149224691Y-46726000D01*
X147446691Y-46726000D01*
X147213302Y-46822673D01*
X147066018Y-46969956D01*
X147066352Y-46587584D01*
X146757650Y-45840468D01*
X146186538Y-45268359D01*
X145994854Y-45188765D01*
X145972662Y-45077194D01*
X145972662Y-45077193D01*
X145752421Y-44747580D01*
X145232238Y-44227398D01*
X145287646Y-44093963D01*
X145288352Y-43285584D01*
X144979650Y-42538468D01*
X144408538Y-41966359D01*
X143661963Y-41656354D01*
X142853584Y-41655648D01*
X142106468Y-41964350D01*
X141534359Y-42535462D01*
X141224354Y-43282037D01*
X141223648Y-44090416D01*
X141532350Y-44837532D01*
X142103462Y-45409641D01*
X142850037Y-45719646D01*
X143429873Y-45720152D01*
X143312359Y-45837462D01*
X143002354Y-46584037D01*
X143001648Y-47392416D01*
X143310350Y-48139532D01*
X143811316Y-48641373D01*
X143312359Y-49139462D01*
X143002354Y-49886037D01*
X143001648Y-50694416D01*
X143310350Y-51441532D01*
X143881462Y-52013641D01*
X144016598Y-52069754D01*
X143884468Y-52124350D01*
X143312359Y-52695462D01*
X143002354Y-53442037D01*
X143001648Y-54250416D01*
X143310350Y-54997532D01*
X143811316Y-55499373D01*
X143312359Y-55997462D01*
X143002354Y-56744037D01*
X143001648Y-57552416D01*
X143088721Y-57763149D01*
X143088721Y-57763150D01*
X143079338Y-57777193D01*
X143066507Y-57841700D01*
X143002000Y-58166000D01*
X143002000Y-60197175D01*
X142868468Y-60252350D01*
X142296359Y-60823462D01*
X141986354Y-61570037D01*
X141985648Y-62378416D01*
X142294350Y-63125532D01*
X142865462Y-63697641D01*
X143612037Y-64007646D01*
X144420416Y-64008352D01*
X145167532Y-63699650D01*
X145739641Y-63128538D01*
X146049646Y-62381963D01*
X146050352Y-61573584D01*
X145741650Y-60826468D01*
X145170538Y-60254359D01*
X145034000Y-60197663D01*
X145034000Y-59182000D01*
X145436416Y-59182352D01*
X146183532Y-58873650D01*
X146755641Y-58302538D01*
X147065646Y-57555963D01*
X147066352Y-56747584D01*
X146757650Y-56000468D01*
X146256683Y-55498626D01*
X146755641Y-55000538D01*
X147027428Y-54346000D01*
X147322844Y-54346000D01*
X147597596Y-54621231D01*
X148157528Y-54853735D01*
X148763812Y-54854264D01*
X149324149Y-54622738D01*
X149753231Y-54194404D01*
X149985735Y-53634472D01*
X149986264Y-53028188D01*
X149986264Y-64507710D01*
X149956673Y-64537301D01*
X149860000Y-64770690D01*
X149860000Y-65023309D01*
X149860000Y-65024000D01*
X148887018Y-65024000D01*
X148775650Y-64754468D01*
X148204538Y-64182359D01*
X147457963Y-63872354D01*
X146649584Y-63871648D01*
X145902468Y-64180350D01*
X145330359Y-64751462D01*
X145020354Y-65498037D01*
X145019648Y-66306416D01*
X145328350Y-67053532D01*
X145899462Y-67625641D01*
X146646037Y-67935646D01*
X147454416Y-67936352D01*
X148201532Y-67627650D01*
X148773641Y-67056538D01*
X148773864Y-67056000D01*
X149860000Y-67056000D01*
X149860000Y-67309309D01*
X149956673Y-67542698D01*
X150135301Y-67721327D01*
X150368690Y-67818000D01*
X150621309Y-67818000D01*
X150622000Y-67818000D01*
X150622000Y-67905159D01*
X149395580Y-69131580D01*
X149175338Y-69461193D01*
X149162507Y-69525700D01*
X149098000Y-69850000D01*
X149098000Y-72898000D01*
X149162507Y-73222299D01*
X149175338Y-73286807D01*
X149395580Y-73616420D01*
X150876000Y-75096840D01*
X150876000Y-76759112D01*
X150766894Y-76495057D01*
X150307363Y-76034722D01*
X149706648Y-75785284D01*
X149056205Y-75784716D01*
X148455057Y-76033106D01*
X148337958Y-76150000D01*
X143224051Y-76150000D01*
X136906352Y-69832300D01*
X136906352Y-53445584D01*
X136597650Y-52698468D01*
X136144000Y-52244026D01*
X136144000Y-51895391D01*
X136595641Y-51444538D01*
X136905646Y-50697963D01*
X136906352Y-49889584D01*
X136597650Y-49142468D01*
X136026538Y-48570359D01*
X135279963Y-48260354D01*
X134471584Y-48259648D01*
X133724468Y-48568350D01*
X133270026Y-49022000D01*
X133114051Y-49022000D01*
X130815534Y-46723482D01*
X131063646Y-46125963D01*
X131064352Y-45317584D01*
X130755650Y-44570468D01*
X130184538Y-43998359D01*
X129437963Y-43688354D01*
X128629584Y-43687648D01*
X127882468Y-43996350D01*
X127310359Y-44567462D01*
X127000354Y-45314037D01*
X126999648Y-46122416D01*
X127308350Y-46869532D01*
X127879462Y-47441641D01*
X128053795Y-47514030D01*
X128133974Y-47634026D01*
X131689971Y-51190022D01*
X131689974Y-51190026D01*
X132101992Y-51465327D01*
X132588000Y-51562000D01*
X133270608Y-51562000D01*
X133604000Y-51895973D01*
X133604000Y-52244608D01*
X133152359Y-52695462D01*
X132842354Y-53442037D01*
X132841648Y-54250416D01*
X133150350Y-54997532D01*
X133721462Y-55569641D01*
X134468037Y-55879646D01*
X135276416Y-55880352D01*
X136023532Y-55571650D01*
X136595641Y-55000538D01*
X136905646Y-54253963D01*
X136906352Y-53445584D01*
X136906352Y-69832300D01*
X132588000Y-65513948D01*
X132588000Y-54356000D01*
X132491327Y-53869992D01*
X132216026Y-53457974D01*
X132216022Y-53457971D01*
X127644026Y-48885974D01*
X127232008Y-48610673D01*
X126746000Y-48513999D01*
X126745994Y-48514000D01*
X112925267Y-48514000D01*
X113671532Y-48205650D01*
X114243641Y-47634538D01*
X114405806Y-47244000D01*
X116910742Y-47244000D01*
X117071931Y-47485236D01*
X117648756Y-47870658D01*
X118329167Y-48006000D01*
X118398833Y-48006000D01*
X119079244Y-47870658D01*
X119656069Y-47485236D01*
X120041491Y-46908411D01*
X120176833Y-46228000D01*
X120041491Y-45547589D01*
X119900077Y-45335948D01*
X120045327Y-45190699D01*
X120142000Y-44957310D01*
X120142000Y-44704691D01*
X120142000Y-42418691D01*
X120045327Y-42185302D01*
X119866699Y-42006673D01*
X119633310Y-41910000D01*
X119380691Y-41910000D01*
X119380000Y-41910000D01*
X119380000Y-40640824D01*
X119513532Y-40585650D01*
X120085641Y-40014538D01*
X120165234Y-39822854D01*
X120212299Y-39813492D01*
X120276806Y-39800662D01*
X120276807Y-39800662D01*
X120606420Y-39580420D01*
X126635593Y-33551247D01*
X126865193Y-33704662D01*
X126865194Y-33704662D01*
X127254000Y-33782000D01*
X127638844Y-33782000D01*
X127675073Y-33818292D01*
X127529302Y-33878673D01*
X127350673Y-34057301D01*
X127254000Y-34290690D01*
X127254000Y-34543309D01*
X127254000Y-36321309D01*
X127350673Y-36554698D01*
X127529301Y-36733327D01*
X127762690Y-36830000D01*
X128015309Y-36830000D01*
X128120732Y-36830000D01*
X127374468Y-37138350D01*
X126802359Y-37709462D01*
X126492354Y-38456037D01*
X126491648Y-39264416D01*
X126800350Y-40011532D01*
X127371462Y-40583641D01*
X127508072Y-40640366D01*
X127572507Y-40964299D01*
X127585338Y-41028807D01*
X127805580Y-41358420D01*
X129329579Y-42882420D01*
X129329580Y-42882420D01*
X129549821Y-43029580D01*
X129659193Y-43102661D01*
X129659194Y-43102662D01*
X130048000Y-43180000D01*
X134874000Y-43180000D01*
X134874000Y-43179999D01*
X135198299Y-43115492D01*
X135262806Y-43102662D01*
X135262807Y-43102662D01*
X135592420Y-42882420D01*
X137624420Y-40850420D01*
X137624421Y-40850420D01*
X137704388Y-40730739D01*
X137704389Y-40730739D01*
X138055532Y-40585650D01*
X138627641Y-40014538D01*
X138684336Y-39878000D01*
X138937175Y-39878000D01*
X138992350Y-40011532D01*
X139563462Y-40583641D01*
X140310037Y-40893646D01*
X141118416Y-40894352D01*
X141865532Y-40585650D01*
X142437641Y-40014538D01*
X142747646Y-39267963D01*
X142748352Y-38459584D01*
X142439650Y-37712468D01*
X141868538Y-37140359D01*
X141121963Y-36830354D01*
X140313584Y-36829648D01*
X139566468Y-37138350D01*
X138994359Y-37709462D01*
X138937663Y-37846000D01*
X138684824Y-37846000D01*
X138629650Y-37712468D01*
X138058538Y-37140359D01*
X137311963Y-36830354D01*
X136503584Y-36829648D01*
X135756468Y-37138350D01*
X135184359Y-37709462D01*
X134874354Y-38456037D01*
X134873648Y-39264416D01*
X135182350Y-40011532D01*
X135385811Y-40215348D01*
X134453159Y-41148000D01*
X130468840Y-41148000D01*
X129790112Y-40469272D01*
X130245641Y-40014538D01*
X130555646Y-39267963D01*
X130556352Y-38459584D01*
X130247650Y-37712468D01*
X129676538Y-37140359D01*
X128929963Y-36830354D01*
X128524628Y-36830000D01*
X129793309Y-36830000D01*
X130026698Y-36733327D01*
X130205327Y-36554699D01*
X130302000Y-36321310D01*
X130302000Y-36068691D01*
X130302000Y-34290691D01*
X130205327Y-34057302D01*
X130026699Y-33878673D01*
X129880988Y-33818317D01*
X130069231Y-33630404D01*
X130301735Y-33070472D01*
X130302264Y-32464188D01*
X130070738Y-31903851D01*
X129663262Y-31495664D01*
X129917370Y-31242000D01*
X131318000Y-31242000D01*
X131318000Y-31241999D01*
X131642299Y-31177492D01*
X131706806Y-31164662D01*
X131706807Y-31164662D01*
X132036420Y-30944420D01*
X132302601Y-30678238D01*
X132436037Y-30733646D01*
X133244416Y-30734352D01*
X133991532Y-30425650D01*
X134563641Y-29854538D01*
X134620336Y-29718000D01*
X135127175Y-29718000D01*
X135182350Y-29851532D01*
X135753462Y-30423641D01*
X136500037Y-30733646D01*
X137308416Y-30734352D01*
X138055532Y-30425650D01*
X138627641Y-29854538D01*
X138811068Y-29412796D01*
X138992350Y-29851532D01*
X139563462Y-30423641D01*
X140310037Y-30733646D01*
X141118416Y-30734352D01*
X141865532Y-30425650D01*
X142437641Y-29854538D01*
X142494336Y-29718000D01*
X143001175Y-29718000D01*
X143056350Y-29851532D01*
X143627462Y-30423641D01*
X144374037Y-30733646D01*
X145182416Y-30734352D01*
X145929532Y-30425650D01*
X146501641Y-29854538D01*
X146558336Y-29718000D01*
X147065175Y-29718000D01*
X147120350Y-29851532D01*
X147691462Y-30423641D01*
X148438037Y-30733646D01*
X149246416Y-30734352D01*
X149993532Y-30425650D01*
X150565641Y-29854538D01*
X150875646Y-29107963D01*
X150876352Y-28299584D01*
X150567650Y-27552468D01*
X149996538Y-26980359D01*
X149249963Y-26670354D01*
X148441584Y-26669648D01*
X147694468Y-26978350D01*
X147122359Y-27549462D01*
X147065663Y-27686000D01*
X146558824Y-27686000D01*
X146503650Y-27552468D01*
X145932538Y-26980359D01*
X145185963Y-26670354D01*
X144377584Y-26669648D01*
X143630468Y-26978350D01*
X143058359Y-27549462D01*
X143001663Y-27686000D01*
X142494824Y-27686000D01*
X142439650Y-27552468D01*
X141868538Y-26980359D01*
X141121963Y-26670354D01*
X140313584Y-26669648D01*
X139566468Y-26978350D01*
X138994359Y-27549462D01*
X138810931Y-27991203D01*
X138629650Y-27552468D01*
X138058538Y-26980359D01*
X137311963Y-26670354D01*
X136503584Y-26669648D01*
X135756468Y-26978350D01*
X135184359Y-27549462D01*
X135127663Y-27686000D01*
X134620824Y-27686000D01*
X134565650Y-27552468D01*
X133994538Y-26980359D01*
X133247963Y-26670354D01*
X132439584Y-26669648D01*
X131692468Y-26978350D01*
X131120359Y-27549462D01*
X130810354Y-28296037D01*
X130809648Y-29104416D01*
X130853274Y-29210000D01*
X129917155Y-29210000D01*
X129642404Y-28934769D01*
X129082472Y-28702265D01*
X128476188Y-28701736D01*
X128270000Y-28786930D01*
X128270000Y-16509310D01*
X128270000Y-16256691D01*
X128270000Y-13970691D01*
X128173327Y-13737302D01*
X127994699Y-13558673D01*
X127761310Y-13462000D01*
X127508691Y-13462000D01*
X125222691Y-13462000D01*
X124989302Y-13558673D01*
X124810673Y-13737301D01*
X124714000Y-13970690D01*
X124714000Y-14223309D01*
X124714000Y-15581159D01*
X123277159Y-17018000D01*
X120396000Y-17018000D01*
X120007194Y-17095338D01*
X119897821Y-17168419D01*
X119677579Y-17315580D01*
X119411398Y-17581761D01*
X119277963Y-17526354D01*
X118469584Y-17525648D01*
X117722468Y-17834350D01*
X117150359Y-18405462D01*
X116840354Y-19152037D01*
X116839648Y-19960416D01*
X117148350Y-20707532D01*
X117719462Y-21279641D01*
X117856000Y-21336336D01*
X117856000Y-21843175D01*
X117722468Y-21898350D01*
X117150359Y-22469462D01*
X116840354Y-23216037D01*
X116839648Y-24024416D01*
X116896105Y-24161053D01*
X113498159Y-27559000D01*
X112141691Y-27559000D01*
X111908302Y-27655673D01*
X111729673Y-27834301D01*
X111633000Y-28067690D01*
X111633000Y-28320309D01*
X111633000Y-30860309D01*
X111729673Y-31093698D01*
X111908301Y-31272327D01*
X112141690Y-31369000D01*
X112394309Y-31369000D01*
X114934309Y-31369000D01*
X115167698Y-31272327D01*
X115346327Y-31093699D01*
X115443000Y-30860310D01*
X115443000Y-30607691D01*
X115443000Y-28487840D01*
X118332601Y-25598238D01*
X118466037Y-25653646D01*
X119274416Y-25654352D01*
X120021532Y-25345650D01*
X120593641Y-24774538D01*
X120903646Y-24027963D01*
X120904352Y-23219584D01*
X120595650Y-22472468D01*
X120024538Y-21900359D01*
X119888000Y-21843663D01*
X119888000Y-21336824D01*
X120021532Y-21281650D01*
X120593641Y-20710538D01*
X120903646Y-19963963D01*
X120904352Y-19155584D01*
X120860725Y-19050000D01*
X123698000Y-19050000D01*
X123698000Y-19049999D01*
X124022299Y-18985492D01*
X124086806Y-18972662D01*
X124086807Y-18972662D01*
X124416420Y-18752420D01*
X126150840Y-17018000D01*
X127761309Y-17018000D01*
X127994698Y-16921327D01*
X128173327Y-16742699D01*
X128270000Y-16509310D01*
X128270000Y-28786930D01*
X127915851Y-28933262D01*
X127486769Y-29361596D01*
X127254265Y-29921528D01*
X127253736Y-30527812D01*
X127485262Y-31088149D01*
X127892737Y-31496335D01*
X127656750Y-31731910D01*
X127337423Y-31412583D01*
X127337421Y-31412580D01*
X125432420Y-29507580D01*
X125102807Y-29287338D01*
X125038299Y-29274507D01*
X124714000Y-29210000D01*
X122297155Y-29210000D01*
X122043262Y-28955664D01*
X122449231Y-28550404D01*
X122681735Y-27990472D01*
X122682264Y-27384188D01*
X122450738Y-26823851D01*
X122022404Y-26394769D01*
X121462472Y-26162265D01*
X120856188Y-26161736D01*
X120295851Y-26393262D01*
X119866769Y-26821596D01*
X119634265Y-27381528D01*
X119633736Y-27987812D01*
X119865262Y-28548149D01*
X120272737Y-28956335D01*
X119866769Y-29361596D01*
X119634265Y-29921528D01*
X119633736Y-30527812D01*
X119865262Y-31088149D01*
X120272402Y-31496000D01*
X119888005Y-31496000D01*
X119888000Y-31495999D01*
X119401992Y-31592673D01*
X118989974Y-31867974D01*
X118989971Y-31867977D01*
X114554016Y-36303932D01*
X114554352Y-35919584D01*
X114245650Y-35172468D01*
X113674538Y-34600359D01*
X112927963Y-34290354D01*
X112119584Y-34289648D01*
X111372468Y-34598350D01*
X110800359Y-35169462D01*
X110743663Y-35306000D01*
X110490824Y-35306000D01*
X110435650Y-35172468D01*
X109864538Y-34600359D01*
X109117963Y-34290354D01*
X108309584Y-34289648D01*
X107562468Y-34598350D01*
X106990359Y-35169462D01*
X106933663Y-35306000D01*
X106680824Y-35306000D01*
X106625650Y-35172468D01*
X106054538Y-34600359D01*
X105410000Y-34332723D01*
X105410000Y-33905155D01*
X105685231Y-33630404D01*
X105917735Y-33070472D01*
X105918264Y-32464188D01*
X105686738Y-31903851D01*
X105258404Y-31474769D01*
X104698472Y-31242265D01*
X104092188Y-31241736D01*
X103531851Y-31473262D01*
X103123664Y-31880737D01*
X102718404Y-31474769D01*
X102158472Y-31242265D01*
X101552188Y-31241736D01*
X100991851Y-31473262D01*
X100801707Y-31663073D01*
X100741327Y-31517302D01*
X100562699Y-31338673D01*
X100329310Y-31242000D01*
X100076691Y-31242000D01*
X98298691Y-31242000D01*
X98065302Y-31338673D01*
X97886673Y-31517301D01*
X97790000Y-31750690D01*
X97790000Y-32003309D01*
X97790000Y-33781309D01*
X97886673Y-34014698D01*
X98065301Y-34193327D01*
X98298690Y-34290000D01*
X98551309Y-34290000D01*
X100180732Y-34290000D01*
X99434468Y-34598350D01*
X98862359Y-35169462D01*
X98805663Y-35306000D01*
X98298824Y-35306000D01*
X98243650Y-35172468D01*
X97672538Y-34600359D01*
X96925963Y-34290354D01*
X96774000Y-34290221D01*
X96774000Y-32766691D01*
X96677327Y-32533302D01*
X96498699Y-32354673D01*
X96352988Y-32294317D01*
X96541231Y-32106404D01*
X96773735Y-31546472D01*
X96774264Y-30940188D01*
X96542738Y-30379851D01*
X96135262Y-29971664D01*
X96389370Y-29718000D01*
X102870000Y-29718000D01*
X102870000Y-29717999D01*
X103194299Y-29653492D01*
X103258806Y-29640662D01*
X103258807Y-29640662D01*
X103588420Y-29420420D01*
X105112420Y-27896421D01*
X105112420Y-27896420D01*
X105259580Y-27676179D01*
X105332661Y-27566807D01*
X105332662Y-27566806D01*
X105409999Y-27178000D01*
X105410000Y-27178000D01*
X105410000Y-26285155D01*
X105664335Y-26031262D01*
X106069596Y-26437231D01*
X106629528Y-26669735D01*
X107235812Y-26670264D01*
X107796149Y-26438738D01*
X108225231Y-26010404D01*
X108457735Y-25450472D01*
X108458264Y-24844188D01*
X108226738Y-24283851D01*
X107798404Y-23854769D01*
X107238472Y-23622265D01*
X106632188Y-23621736D01*
X106071851Y-23853262D01*
X105663664Y-24260737D01*
X105410000Y-24006629D01*
X105410000Y-21844000D01*
X105663309Y-21844000D01*
X105896698Y-21747327D01*
X106041948Y-21602077D01*
X106253589Y-21743491D01*
X106934000Y-21878833D01*
X107614411Y-21743491D01*
X108191236Y-21358069D01*
X108375699Y-21082000D01*
X112776000Y-21082000D01*
X112776000Y-21081999D01*
X112827625Y-21071730D01*
X112827627Y-21071730D01*
X113157410Y-21208668D01*
X113915265Y-21209330D01*
X114615686Y-20919922D01*
X115152039Y-20384505D01*
X115442668Y-19684590D01*
X115443330Y-18926735D01*
X115416657Y-18862182D01*
X116542420Y-17736420D01*
X116542421Y-17736420D01*
X116762662Y-17406807D01*
X116762662Y-17406806D01*
X116775492Y-17342299D01*
X116839999Y-17018000D01*
X116840000Y-17018000D01*
X117093309Y-17018000D01*
X117326698Y-16921327D01*
X117505327Y-16742699D01*
X117602000Y-16509310D01*
X117602000Y-16256691D01*
X117602000Y-13970691D01*
X117505327Y-13737302D01*
X117326699Y-13558673D01*
X117093310Y-13462000D01*
X116840691Y-13462000D01*
X114554691Y-13462000D01*
X114321302Y-13558673D01*
X114142673Y-13737301D01*
X114046000Y-13970690D01*
X114046000Y-14223309D01*
X114046000Y-16509309D01*
X114142673Y-16742698D01*
X114321301Y-16921327D01*
X114436227Y-16968931D01*
X113980231Y-17424927D01*
X113918590Y-17399332D01*
X113160735Y-17398670D01*
X112460314Y-17688078D01*
X111923961Y-18223495D01*
X111633332Y-18923410D01*
X111633221Y-19050000D01*
X108375699Y-19050000D01*
X108191236Y-18773931D01*
X107614411Y-18388509D01*
X106934000Y-18253167D01*
X106253589Y-18388509D01*
X106041948Y-18529922D01*
X105896699Y-18384673D01*
X105663310Y-18288000D01*
X105410691Y-18288000D01*
X103124691Y-18288000D01*
X102891302Y-18384673D01*
X102712673Y-18563301D01*
X102616000Y-18796690D01*
X102616000Y-19049309D01*
X102616000Y-21335309D01*
X102712673Y-21568698D01*
X102891301Y-21747327D01*
X103124690Y-21844000D01*
X103377309Y-21844000D01*
X103378000Y-21844000D01*
X103378000Y-24006844D01*
X103124000Y-24260402D01*
X103124000Y-23114000D01*
X103027327Y-22627992D01*
X102752026Y-22215974D01*
X102752022Y-22215971D01*
X101228026Y-20691974D01*
X100816008Y-20416673D01*
X100330000Y-20319999D01*
X100329994Y-20320000D01*
X93980000Y-20320000D01*
X93493992Y-20416673D01*
X93081974Y-20691974D01*
X93081971Y-20691977D01*
X91694000Y-22079948D01*
X91694000Y-19383391D01*
X92145641Y-18932538D01*
X92455646Y-18185963D01*
X92456352Y-17377584D01*
X92147650Y-16630468D01*
X91576538Y-16058359D01*
X90829963Y-15748354D01*
X90021584Y-15747648D01*
X89274468Y-16056350D01*
X88702359Y-16627462D01*
X88392354Y-17374037D01*
X88391648Y-18182416D01*
X88700350Y-18929532D01*
X89154000Y-19383973D01*
X89154000Y-25145994D01*
X89153999Y-25146000D01*
X89154000Y-25146005D01*
X89154000Y-40385994D01*
X89153999Y-40386000D01*
X89250673Y-40872008D01*
X89525974Y-41284026D01*
X90922971Y-42681022D01*
X90922974Y-42681026D01*
X94488205Y-46246256D01*
X94487648Y-46884416D01*
X94796350Y-47631532D01*
X95367462Y-48203641D01*
X96114037Y-48513646D01*
X96519371Y-48514000D01*
X94506051Y-48514000D01*
X86242026Y-40249974D01*
X85830008Y-39974673D01*
X85344000Y-39877999D01*
X85343994Y-39878000D01*
X85089713Y-39878000D01*
X84993327Y-39645302D01*
X84814699Y-39466673D01*
X84581310Y-39370000D01*
X84328691Y-39370000D01*
X82042691Y-39370000D01*
X81809302Y-39466673D01*
X81736000Y-39539974D01*
X81736000Y-12902000D01*
X198172000Y-12902000D01*
X198172000Y-15409974D01*
X198172000Y-15409974D01*
G37*
X198172000Y-15409974D02*
X198098699Y-15336673D01*
X197865310Y-15240000D01*
X197612691Y-15240000D01*
X195326691Y-15240000D01*
X195093302Y-15336673D01*
X194914673Y-15515301D01*
X194818285Y-15748000D01*
X192341500Y-15748000D01*
X151638000Y-15748000D01*
X149352005Y-15748000D01*
X149352000Y-15747999D01*
X149351994Y-15748000D01*
X141732000Y-15748000D01*
X141245992Y-15844673D01*
X140833974Y-16119974D01*
X140833971Y-16119977D01*
X136379742Y-20574205D01*
X135741584Y-20573648D01*
X134994468Y-20882350D01*
X134422359Y-21453462D01*
X134112354Y-22200037D01*
X134111648Y-23008416D01*
X134420350Y-23755532D01*
X134991462Y-24327641D01*
X135738037Y-24637646D01*
X136546416Y-24638352D01*
X137293532Y-24329650D01*
X137865641Y-23758538D01*
X138175646Y-23011963D01*
X138176206Y-22369845D01*
X142258051Y-18288000D01*
X146285948Y-18288000D01*
X143745742Y-20828205D01*
X143107584Y-20827648D01*
X142360468Y-21136350D01*
X141788359Y-21707462D01*
X141478354Y-22454037D01*
X141477648Y-23262416D01*
X141786350Y-24009532D01*
X142357462Y-24581641D01*
X143104037Y-24891646D01*
X143912416Y-24892352D01*
X144659532Y-24583650D01*
X145231641Y-24012538D01*
X145541646Y-23265963D01*
X145542206Y-22623845D01*
X149878051Y-18288000D01*
X151638000Y-18288000D01*
X191071500Y-18288000D01*
X191071500Y-19922997D01*
X190683359Y-20310462D01*
X190373354Y-21057037D01*
X190372648Y-21865416D01*
X190681350Y-22612532D01*
X191071500Y-23003363D01*
X191071500Y-50972448D01*
X190735948Y-51308000D01*
X190010051Y-51308000D01*
X189870409Y-51168358D01*
X190092149Y-51076738D01*
X190521231Y-50648404D01*
X190753735Y-50088472D01*
X190754264Y-49482188D01*
X190522738Y-48921851D01*
X190094404Y-48492769D01*
X189534472Y-48260265D01*
X188928188Y-48259736D01*
X188367851Y-48491262D01*
X187959664Y-48898737D01*
X187554404Y-48492769D01*
X186994472Y-48260265D01*
X186388188Y-48259736D01*
X185827851Y-48491262D01*
X185419664Y-48898737D01*
X185166000Y-48644629D01*
X185166000Y-48172840D01*
X187408420Y-45930421D01*
X187408420Y-45930420D01*
X187555580Y-45710179D01*
X187628661Y-45600807D01*
X187628662Y-45600806D01*
X187705999Y-45212000D01*
X187706000Y-45212000D01*
X187706000Y-43303155D01*
X187742292Y-43266926D01*
X187802673Y-43412698D01*
X187981301Y-43591327D01*
X188214690Y-43688000D01*
X188467309Y-43688000D01*
X190245309Y-43688000D01*
X190478698Y-43591327D01*
X190657327Y-43412699D01*
X190754000Y-43179310D01*
X190754000Y-42926691D01*
X190754000Y-41148691D01*
X190657327Y-40915302D01*
X190478699Y-40736673D01*
X190245310Y-40640000D01*
X189992691Y-40640000D01*
X188214691Y-40640000D01*
X187981302Y-40736673D01*
X187802673Y-40915301D01*
X187742317Y-41061011D01*
X187706000Y-41024629D01*
X187706000Y-35052000D01*
X187628662Y-34663194D01*
X187628662Y-34663193D01*
X187408421Y-34333580D01*
X185872238Y-32797398D01*
X185927646Y-32663963D01*
X185928352Y-31855584D01*
X185619650Y-31108468D01*
X185048538Y-30536359D01*
X184856854Y-30456765D01*
X184834662Y-30345194D01*
X184834661Y-30345193D01*
X184761580Y-30235821D01*
X184614420Y-30015580D01*
X184614420Y-30015579D01*
X182074420Y-27475580D01*
X181744807Y-27255338D01*
X181680299Y-27242507D01*
X181356000Y-27178000D01*
X165354000Y-27178000D01*
X165354000Y-26924691D01*
X165257327Y-26691302D01*
X165078699Y-26512673D01*
X164845310Y-26416000D01*
X164592691Y-26416000D01*
X162306691Y-26416000D01*
X162073302Y-26512673D01*
X161928051Y-26657922D01*
X161716411Y-26516509D01*
X161036000Y-26381167D01*
X160355589Y-26516509D01*
X159778764Y-26901931D01*
X159594300Y-27178000D01*
X158496000Y-27178000D01*
X158171700Y-27242507D01*
X158107193Y-27255338D01*
X157777579Y-27475580D01*
X153459580Y-31793580D01*
X153239338Y-32123193D01*
X153226507Y-32187700D01*
X153162000Y-32512000D01*
X153162000Y-37171159D01*
X152487159Y-37846000D01*
X150622824Y-37846000D01*
X150567650Y-37712468D01*
X149996538Y-37140359D01*
X149249963Y-36830354D01*
X148441584Y-36829648D01*
X147694468Y-37138350D01*
X147122359Y-37709462D01*
X146812354Y-38456037D01*
X146811648Y-39264416D01*
X147120350Y-40011532D01*
X147691462Y-40583641D01*
X148438037Y-40893646D01*
X149246416Y-40894352D01*
X149993532Y-40585650D01*
X150565641Y-40014538D01*
X150622336Y-39878000D01*
X152908000Y-39878000D01*
X152908000Y-39877999D01*
X153232299Y-39813492D01*
X153296806Y-39800662D01*
X153296807Y-39800662D01*
X153626420Y-39580420D01*
X154896420Y-38310421D01*
X154896420Y-38310420D01*
X155043580Y-38090179D01*
X155116661Y-37980807D01*
X155116662Y-37980806D01*
X155193999Y-37592000D01*
X155194000Y-37592000D01*
X155194000Y-32932840D01*
X158916840Y-29210000D01*
X159594300Y-29210000D01*
X159778764Y-29486069D01*
X160355589Y-29871491D01*
X161036000Y-30006833D01*
X161716411Y-29871491D01*
X161928051Y-29730077D01*
X162073301Y-29875327D01*
X162306690Y-29972000D01*
X162559309Y-29972000D01*
X164845309Y-29972000D01*
X165078698Y-29875327D01*
X165257327Y-29696699D01*
X165354000Y-29463310D01*
X165354000Y-29210691D01*
X165354000Y-29210000D01*
X180935159Y-29210000D01*
X182502776Y-30777617D01*
X182174359Y-31105462D01*
X181864354Y-31852037D01*
X181863648Y-32660416D01*
X182172350Y-33407532D01*
X182743462Y-33979641D01*
X183490037Y-34289646D01*
X184298416Y-34290352D01*
X184435053Y-34233894D01*
X185674000Y-35472840D01*
X185674000Y-41024844D01*
X185419664Y-41278737D01*
X185166000Y-41024629D01*
X185166000Y-37846000D01*
X185088662Y-37457194D01*
X185088662Y-37457193D01*
X184868421Y-37127580D01*
X183642146Y-35901305D01*
X183642352Y-35665584D01*
X183333650Y-34918468D01*
X182762538Y-34346359D01*
X182015963Y-34036354D01*
X181207584Y-34035648D01*
X180460468Y-34344350D01*
X179888359Y-34915462D01*
X179578354Y-35662037D01*
X179577648Y-36470416D01*
X179782635Y-36966523D01*
X179101398Y-37647761D01*
X178967963Y-37592354D01*
X178159584Y-37591648D01*
X177412468Y-37900350D01*
X176840359Y-38471462D01*
X176784245Y-38606598D01*
X176729650Y-38474468D01*
X176158538Y-37902359D01*
X175411963Y-37592354D01*
X174603584Y-37591648D01*
X173856468Y-37900350D01*
X173284359Y-38471462D01*
X173228245Y-38606598D01*
X173173650Y-38474468D01*
X172602538Y-37902359D01*
X172467401Y-37846245D01*
X172599532Y-37791650D01*
X173171641Y-37220538D01*
X173481646Y-36473963D01*
X173482352Y-35665584D01*
X173425894Y-35528946D01*
X174454420Y-34500421D01*
X174454420Y-34500420D01*
X174601580Y-34280179D01*
X174674661Y-34170807D01*
X174674662Y-34170806D01*
X174696773Y-34059643D01*
X174885532Y-33981650D01*
X175457641Y-33410538D01*
X175767646Y-32663963D01*
X175768352Y-31855584D01*
X175459650Y-31108468D01*
X174888538Y-30536359D01*
X174141963Y-30226354D01*
X173333584Y-30225648D01*
X172586468Y-30534350D01*
X172014359Y-31105462D01*
X171704354Y-31852037D01*
X171703648Y-32660416D01*
X172012350Y-33407532D01*
X172342700Y-33738458D01*
X171989398Y-34091761D01*
X171855963Y-34036354D01*
X171047584Y-34035648D01*
X170300468Y-34344350D01*
X169728359Y-34915462D01*
X169418354Y-35662037D01*
X169417648Y-36470416D01*
X169726350Y-37217532D01*
X170297462Y-37789641D01*
X170432598Y-37845754D01*
X170300468Y-37900350D01*
X169728359Y-38471462D01*
X169544931Y-38913203D01*
X169363650Y-38474468D01*
X168792538Y-37902359D01*
X168045963Y-37592354D01*
X167237584Y-37591648D01*
X167100946Y-37648105D01*
X166031753Y-36578912D01*
X166234658Y-36275244D01*
X166370000Y-35594833D01*
X166370000Y-35525167D01*
X166234658Y-34844756D01*
X165849236Y-34267931D01*
X165272411Y-33882509D01*
X164592000Y-33747167D01*
X163911589Y-33882509D01*
X163699948Y-34023922D01*
X163554699Y-33878673D01*
X163321310Y-33782000D01*
X163068691Y-33782000D01*
X160782691Y-33782000D01*
X160549302Y-33878673D01*
X160370673Y-34057301D01*
X160274000Y-34290690D01*
X160274000Y-34543309D01*
X160274000Y-36155159D01*
X154493824Y-41935335D01*
X153821963Y-41656354D01*
X153013584Y-41655648D01*
X152266468Y-41964350D01*
X151694359Y-42535462D01*
X151384354Y-43282037D01*
X151383648Y-44090416D01*
X151692350Y-44837532D01*
X152263462Y-45409641D01*
X152400000Y-45466336D01*
X152400000Y-52578000D01*
X152464507Y-52902299D01*
X152477338Y-52966807D01*
X152697580Y-53296420D01*
X153449580Y-54048421D01*
X153779193Y-54268662D01*
X153779194Y-54268662D01*
X154168000Y-54346000D01*
X154942844Y-54346000D01*
X155196737Y-54600335D01*
X154790769Y-55005596D01*
X154558265Y-55565528D01*
X154557736Y-56171812D01*
X154789262Y-56732149D01*
X155217596Y-57161231D01*
X155777528Y-57393735D01*
X156383812Y-57394264D01*
X156944149Y-57162738D01*
X157373231Y-56734404D01*
X157605735Y-56174472D01*
X157606264Y-55568188D01*
X157374738Y-55007851D01*
X156967262Y-54599664D01*
X157373231Y-54194404D01*
X157605735Y-53634472D01*
X157606264Y-53028188D01*
X157374738Y-52467851D01*
X156967597Y-52060000D01*
X158467948Y-52060000D01*
X159883974Y-53476026D01*
X160295992Y-53751327D01*
X160782000Y-53848001D01*
X160782000Y-53848000D01*
X160782005Y-53848000D01*
X181355994Y-53848000D01*
X181356000Y-53848001D01*
X181356000Y-53848000D01*
X181356005Y-53848000D01*
X181610000Y-53848000D01*
X189483994Y-53848000D01*
X189484000Y-53848001D01*
X189484000Y-53848000D01*
X189484005Y-53848000D01*
X191261994Y-53848000D01*
X191262000Y-53848001D01*
X191262000Y-53848000D01*
X191748008Y-53751327D01*
X192160026Y-53476026D01*
X193103500Y-52532551D01*
X193103500Y-54355994D01*
X193103499Y-54356000D01*
X189992005Y-54356000D01*
X189992000Y-54355999D01*
X189505992Y-54452673D01*
X189093974Y-54727974D01*
X189093971Y-54727977D01*
X188703948Y-55118000D01*
X160274000Y-55118000D01*
X159787992Y-55214673D01*
X159375974Y-55489974D01*
X159375971Y-55489977D01*
X158105974Y-56759974D01*
X157830673Y-57171992D01*
X157733999Y-57658000D01*
X157734000Y-57658005D01*
X157734000Y-70308090D01*
X157227584Y-70307648D01*
X156480468Y-70616350D01*
X155908359Y-71187462D01*
X155598354Y-71934037D01*
X155597648Y-72742416D01*
X155906350Y-73489532D01*
X156477462Y-74061641D01*
X157224037Y-74371646D01*
X158032416Y-74372352D01*
X158779532Y-74063650D01*
X159351641Y-73492538D01*
X159661646Y-72745963D01*
X159662206Y-72103844D01*
X159902022Y-71864028D01*
X159902025Y-71864026D01*
X159902026Y-71864026D01*
X159920000Y-71837125D01*
X159920000Y-87210000D01*
X124340000Y-87210000D01*
X124340000Y-77876052D01*
X127281974Y-80818026D01*
X127693992Y-81093327D01*
X128180000Y-81190001D01*
X128180000Y-81190000D01*
X128180005Y-81190000D01*
X133797888Y-81190000D01*
X133494722Y-81492637D01*
X133245284Y-82093352D01*
X133244716Y-82743795D01*
X133493106Y-83344943D01*
X133952637Y-83805278D01*
X134553352Y-84054716D01*
X135203795Y-84055284D01*
X135804943Y-83806894D01*
X135922041Y-83690000D01*
X138051994Y-83690000D01*
X138052000Y-83690001D01*
X138052000Y-83690000D01*
X138538008Y-83593327D01*
X138950026Y-83318026D01*
X140090022Y-82178028D01*
X140090025Y-82178026D01*
X140090026Y-82178026D01*
X140365327Y-81766008D01*
X140462000Y-81280000D01*
X140462000Y-76980051D01*
X141799971Y-78318022D01*
X141799974Y-78318026D01*
X142211992Y-78593327D01*
X142698000Y-78690000D01*
X148297888Y-78690000D01*
X147994722Y-78992637D01*
X147745284Y-79593352D01*
X147744716Y-80243795D01*
X147993106Y-80844943D01*
X148317759Y-81170164D01*
X147994722Y-81492637D01*
X147745284Y-82093352D01*
X147744716Y-82743795D01*
X147993106Y-83344943D01*
X148452637Y-83805278D01*
X149053352Y-84054716D01*
X149703795Y-84055284D01*
X150304943Y-83806894D01*
X150422041Y-83690000D01*
X151946747Y-83690000D01*
X152477462Y-84221641D01*
X153224037Y-84531646D01*
X154032416Y-84532352D01*
X154779532Y-84223650D01*
X155233973Y-83770000D01*
X156026608Y-83770000D01*
X156477462Y-84221641D01*
X157224037Y-84531646D01*
X158032416Y-84532352D01*
X158779532Y-84223650D01*
X159351641Y-83652538D01*
X159661646Y-82905963D01*
X159662352Y-82097584D01*
X159353650Y-81350468D01*
X158782538Y-80778359D01*
X158035963Y-80468354D01*
X157227584Y-80467648D01*
X156480468Y-80776350D01*
X156026026Y-81230000D01*
X155233391Y-81230000D01*
X154782538Y-80778359D01*
X154035963Y-80468354D01*
X153227584Y-80467648D01*
X152480468Y-80776350D01*
X152106165Y-81150000D01*
X150462111Y-81150000D01*
X150676485Y-80936000D01*
X150966000Y-80936000D01*
X150966000Y-80935999D01*
X151290299Y-80871492D01*
X151354806Y-80858662D01*
X151354807Y-80858662D01*
X151684420Y-80638420D01*
X152610420Y-79712420D01*
X152610421Y-79712420D01*
X152830662Y-79382807D01*
X152830662Y-79382806D01*
X152843492Y-79318299D01*
X152907999Y-78994000D01*
X152908000Y-78994000D01*
X152908000Y-74676000D01*
X152830662Y-74287194D01*
X152830662Y-74287193D01*
X152610421Y-73957580D01*
X151130000Y-72477159D01*
X151130000Y-70270840D01*
X152356420Y-69044421D01*
X152356420Y-69044420D01*
X152503580Y-68824179D01*
X152576661Y-68714807D01*
X152576662Y-68714806D01*
X152653999Y-68326000D01*
X152654000Y-68326000D01*
X152654000Y-67818000D01*
X152907309Y-67818000D01*
X153140698Y-67721327D01*
X153285948Y-67576077D01*
X153497589Y-67717491D01*
X154178000Y-67852833D01*
X154858411Y-67717491D01*
X155435236Y-67332069D01*
X155820658Y-66755244D01*
X155956000Y-66074833D01*
X155956000Y-66005167D01*
X155820658Y-65324756D01*
X155435236Y-64747931D01*
X155194000Y-64586742D01*
X155194000Y-63754824D01*
X155327532Y-63699650D01*
X155899641Y-63128538D01*
X156209646Y-62381963D01*
X156210352Y-61573584D01*
X155901650Y-60826468D01*
X155330538Y-60254359D01*
X154583963Y-59944354D01*
X153775584Y-59943648D01*
X153028468Y-60252350D01*
X152456359Y-60823462D01*
X152146354Y-61570037D01*
X152145648Y-62378416D01*
X152454350Y-63125532D01*
X153025462Y-63697641D01*
X153162000Y-63754336D01*
X153162000Y-64379974D01*
X153140699Y-64358673D01*
X152907310Y-64262000D01*
X152654691Y-64262000D01*
X150368691Y-64262000D01*
X150135302Y-64358673D01*
X149986264Y-64507710D01*
X149986264Y-53028188D01*
X149754738Y-52467851D01*
X149347262Y-52059664D01*
X149753231Y-51654404D01*
X149985735Y-51094472D01*
X149986264Y-50488188D01*
X149754738Y-49927851D01*
X149564926Y-49737707D01*
X149710698Y-49677327D01*
X149889327Y-49498699D01*
X149986000Y-49265310D01*
X149986000Y-49012691D01*
X149986000Y-47234691D01*
X149889327Y-47001302D01*
X149710699Y-46822673D01*
X149477310Y-46726000D01*
X149224691Y-46726000D01*
X147446691Y-46726000D01*
X147213302Y-46822673D01*
X147066018Y-46969956D01*
X147066352Y-46587584D01*
X146757650Y-45840468D01*
X146186538Y-45268359D01*
X145994854Y-45188765D01*
X145972662Y-45077194D01*
X145972662Y-45077193D01*
X145752421Y-44747580D01*
X145232238Y-44227398D01*
X145287646Y-44093963D01*
X145288352Y-43285584D01*
X144979650Y-42538468D01*
X144408538Y-41966359D01*
X143661963Y-41656354D01*
X142853584Y-41655648D01*
X142106468Y-41964350D01*
X141534359Y-42535462D01*
X141224354Y-43282037D01*
X141223648Y-44090416D01*
X141532350Y-44837532D01*
X142103462Y-45409641D01*
X142850037Y-45719646D01*
X143429873Y-45720152D01*
X143312359Y-45837462D01*
X143002354Y-46584037D01*
X143001648Y-47392416D01*
X143310350Y-48139532D01*
X143811316Y-48641373D01*
X143312359Y-49139462D01*
X143002354Y-49886037D01*
X143001648Y-50694416D01*
X143310350Y-51441532D01*
X143881462Y-52013641D01*
X144016598Y-52069754D01*
X143884468Y-52124350D01*
X143312359Y-52695462D01*
X143002354Y-53442037D01*
X143001648Y-54250416D01*
X143310350Y-54997532D01*
X143811316Y-55499373D01*
X143312359Y-55997462D01*
X143002354Y-56744037D01*
X143001648Y-57552416D01*
X143088721Y-57763149D01*
X143088721Y-57763150D01*
X143079338Y-57777193D01*
X143066507Y-57841700D01*
X143002000Y-58166000D01*
X143002000Y-60197175D01*
X142868468Y-60252350D01*
X142296359Y-60823462D01*
X141986354Y-61570037D01*
X141985648Y-62378416D01*
X142294350Y-63125532D01*
X142865462Y-63697641D01*
X143612037Y-64007646D01*
X144420416Y-64008352D01*
X145167532Y-63699650D01*
X145739641Y-63128538D01*
X146049646Y-62381963D01*
X146050352Y-61573584D01*
X145741650Y-60826468D01*
X145170538Y-60254359D01*
X145034000Y-60197663D01*
X145034000Y-59182000D01*
X145436416Y-59182352D01*
X146183532Y-58873650D01*
X146755641Y-58302538D01*
X147065646Y-57555963D01*
X147066352Y-56747584D01*
X146757650Y-56000468D01*
X146256683Y-55498626D01*
X146755641Y-55000538D01*
X147027428Y-54346000D01*
X147322844Y-54346000D01*
X147597596Y-54621231D01*
X148157528Y-54853735D01*
X148763812Y-54854264D01*
X149324149Y-54622738D01*
X149753231Y-54194404D01*
X149985735Y-53634472D01*
X149986264Y-53028188D01*
X149986264Y-64507710D01*
X149956673Y-64537301D01*
X149860000Y-64770690D01*
X149860000Y-65023309D01*
X149860000Y-65024000D01*
X148887018Y-65024000D01*
X148775650Y-64754468D01*
X148204538Y-64182359D01*
X147457963Y-63872354D01*
X146649584Y-63871648D01*
X145902468Y-64180350D01*
X145330359Y-64751462D01*
X145020354Y-65498037D01*
X145019648Y-66306416D01*
X145328350Y-67053532D01*
X145899462Y-67625641D01*
X146646037Y-67935646D01*
X147454416Y-67936352D01*
X148201532Y-67627650D01*
X148773641Y-67056538D01*
X148773864Y-67056000D01*
X149860000Y-67056000D01*
X149860000Y-67309309D01*
X149956673Y-67542698D01*
X150135301Y-67721327D01*
X150368690Y-67818000D01*
X150621309Y-67818000D01*
X150622000Y-67818000D01*
X150622000Y-67905159D01*
X149395580Y-69131580D01*
X149175338Y-69461193D01*
X149162507Y-69525700D01*
X149098000Y-69850000D01*
X149098000Y-72898000D01*
X149162507Y-73222299D01*
X149175338Y-73286807D01*
X149395580Y-73616420D01*
X150876000Y-75096840D01*
X150876000Y-76759112D01*
X150766894Y-76495057D01*
X150307363Y-76034722D01*
X149706648Y-75785284D01*
X149056205Y-75784716D01*
X148455057Y-76033106D01*
X148337958Y-76150000D01*
X143224051Y-76150000D01*
X136906352Y-69832300D01*
X136906352Y-53445584D01*
X136597650Y-52698468D01*
X136144000Y-52244026D01*
X136144000Y-51895391D01*
X136595641Y-51444538D01*
X136905646Y-50697963D01*
X136906352Y-49889584D01*
X136597650Y-49142468D01*
X136026538Y-48570359D01*
X135279963Y-48260354D01*
X134471584Y-48259648D01*
X133724468Y-48568350D01*
X133270026Y-49022000D01*
X133114051Y-49022000D01*
X130815534Y-46723482D01*
X131063646Y-46125963D01*
X131064352Y-45317584D01*
X130755650Y-44570468D01*
X130184538Y-43998359D01*
X129437963Y-43688354D01*
X128629584Y-43687648D01*
X127882468Y-43996350D01*
X127310359Y-44567462D01*
X127000354Y-45314037D01*
X126999648Y-46122416D01*
X127308350Y-46869532D01*
X127879462Y-47441641D01*
X128053795Y-47514030D01*
X128133974Y-47634026D01*
X131689971Y-51190022D01*
X131689974Y-51190026D01*
X132101992Y-51465327D01*
X132588000Y-51562000D01*
X133270608Y-51562000D01*
X133604000Y-51895973D01*
X133604000Y-52244608D01*
X133152359Y-52695462D01*
X132842354Y-53442037D01*
X132841648Y-54250416D01*
X133150350Y-54997532D01*
X133721462Y-55569641D01*
X134468037Y-55879646D01*
X135276416Y-55880352D01*
X136023532Y-55571650D01*
X136595641Y-55000538D01*
X136905646Y-54253963D01*
X136906352Y-53445584D01*
X136906352Y-69832300D01*
X132588000Y-65513948D01*
X132588000Y-54356000D01*
X132491327Y-53869992D01*
X132216026Y-53457974D01*
X132216022Y-53457971D01*
X127644026Y-48885974D01*
X127232008Y-48610673D01*
X126746000Y-48513999D01*
X126745994Y-48514000D01*
X112925267Y-48514000D01*
X113671532Y-48205650D01*
X114243641Y-47634538D01*
X114405806Y-47244000D01*
X116910742Y-47244000D01*
X117071931Y-47485236D01*
X117648756Y-47870658D01*
X118329167Y-48006000D01*
X118398833Y-48006000D01*
X119079244Y-47870658D01*
X119656069Y-47485236D01*
X120041491Y-46908411D01*
X120176833Y-46228000D01*
X120041491Y-45547589D01*
X119900077Y-45335948D01*
X120045327Y-45190699D01*
X120142000Y-44957310D01*
X120142000Y-44704691D01*
X120142000Y-42418691D01*
X120045327Y-42185302D01*
X119866699Y-42006673D01*
X119633310Y-41910000D01*
X119380691Y-41910000D01*
X119380000Y-41910000D01*
X119380000Y-40640824D01*
X119513532Y-40585650D01*
X120085641Y-40014538D01*
X120165234Y-39822854D01*
X120212299Y-39813492D01*
X120276806Y-39800662D01*
X120276807Y-39800662D01*
X120606420Y-39580420D01*
X126635593Y-33551247D01*
X126865193Y-33704662D01*
X126865194Y-33704662D01*
X127254000Y-33782000D01*
X127638844Y-33782000D01*
X127675073Y-33818292D01*
X127529302Y-33878673D01*
X127350673Y-34057301D01*
X127254000Y-34290690D01*
X127254000Y-34543309D01*
X127254000Y-36321309D01*
X127350673Y-36554698D01*
X127529301Y-36733327D01*
X127762690Y-36830000D01*
X128015309Y-36830000D01*
X128120732Y-36830000D01*
X127374468Y-37138350D01*
X126802359Y-37709462D01*
X126492354Y-38456037D01*
X126491648Y-39264416D01*
X126800350Y-40011532D01*
X127371462Y-40583641D01*
X127508072Y-40640366D01*
X127572507Y-40964299D01*
X127585338Y-41028807D01*
X127805580Y-41358420D01*
X129329579Y-42882420D01*
X129329580Y-42882420D01*
X129549821Y-43029580D01*
X129659193Y-43102661D01*
X129659194Y-43102662D01*
X130048000Y-43180000D01*
X134874000Y-43180000D01*
X134874000Y-43179999D01*
X135198299Y-43115492D01*
X135262806Y-43102662D01*
X135262807Y-43102662D01*
X135592420Y-42882420D01*
X137624420Y-40850420D01*
X137624421Y-40850420D01*
X137704388Y-40730739D01*
X137704389Y-40730739D01*
X138055532Y-40585650D01*
X138627641Y-40014538D01*
X138684336Y-39878000D01*
X138937175Y-39878000D01*
X138992350Y-40011532D01*
X139563462Y-40583641D01*
X140310037Y-40893646D01*
X141118416Y-40894352D01*
X141865532Y-40585650D01*
X142437641Y-40014538D01*
X142747646Y-39267963D01*
X142748352Y-38459584D01*
X142439650Y-37712468D01*
X141868538Y-37140359D01*
X141121963Y-36830354D01*
X140313584Y-36829648D01*
X139566468Y-37138350D01*
X138994359Y-37709462D01*
X138937663Y-37846000D01*
X138684824Y-37846000D01*
X138629650Y-37712468D01*
X138058538Y-37140359D01*
X137311963Y-36830354D01*
X136503584Y-36829648D01*
X135756468Y-37138350D01*
X135184359Y-37709462D01*
X134874354Y-38456037D01*
X134873648Y-39264416D01*
X135182350Y-40011532D01*
X135385811Y-40215348D01*
X134453159Y-41148000D01*
X130468840Y-41148000D01*
X129790112Y-40469272D01*
X130245641Y-40014538D01*
X130555646Y-39267963D01*
X130556352Y-38459584D01*
X130247650Y-37712468D01*
X129676538Y-37140359D01*
X128929963Y-36830354D01*
X128524628Y-36830000D01*
X129793309Y-36830000D01*
X130026698Y-36733327D01*
X130205327Y-36554699D01*
X130302000Y-36321310D01*
X130302000Y-36068691D01*
X130302000Y-34290691D01*
X130205327Y-34057302D01*
X130026699Y-33878673D01*
X129880988Y-33818317D01*
X130069231Y-33630404D01*
X130301735Y-33070472D01*
X130302264Y-32464188D01*
X130070738Y-31903851D01*
X129663262Y-31495664D01*
X129917370Y-31242000D01*
X131318000Y-31242000D01*
X131318000Y-31241999D01*
X131642299Y-31177492D01*
X131706806Y-31164662D01*
X131706807Y-31164662D01*
X132036420Y-30944420D01*
X132302601Y-30678238D01*
X132436037Y-30733646D01*
X133244416Y-30734352D01*
X133991532Y-30425650D01*
X134563641Y-29854538D01*
X134620336Y-29718000D01*
X135127175Y-29718000D01*
X135182350Y-29851532D01*
X135753462Y-30423641D01*
X136500037Y-30733646D01*
X137308416Y-30734352D01*
X138055532Y-30425650D01*
X138627641Y-29854538D01*
X138811068Y-29412796D01*
X138992350Y-29851532D01*
X139563462Y-30423641D01*
X140310037Y-30733646D01*
X141118416Y-30734352D01*
X141865532Y-30425650D01*
X142437641Y-29854538D01*
X142494336Y-29718000D01*
X143001175Y-29718000D01*
X143056350Y-29851532D01*
X143627462Y-30423641D01*
X144374037Y-30733646D01*
X145182416Y-30734352D01*
X145929532Y-30425650D01*
X146501641Y-29854538D01*
X146558336Y-29718000D01*
X147065175Y-29718000D01*
X147120350Y-29851532D01*
X147691462Y-30423641D01*
X148438037Y-30733646D01*
X149246416Y-30734352D01*
X149993532Y-30425650D01*
X150565641Y-29854538D01*
X150875646Y-29107963D01*
X150876352Y-28299584D01*
X150567650Y-27552468D01*
X149996538Y-26980359D01*
X149249963Y-26670354D01*
X148441584Y-26669648D01*
X147694468Y-26978350D01*
X147122359Y-27549462D01*
X147065663Y-27686000D01*
X146558824Y-27686000D01*
X146503650Y-27552468D01*
X145932538Y-26980359D01*
X145185963Y-26670354D01*
X144377584Y-26669648D01*
X143630468Y-26978350D01*
X143058359Y-27549462D01*
X143001663Y-27686000D01*
X142494824Y-27686000D01*
X142439650Y-27552468D01*
X141868538Y-26980359D01*
X141121963Y-26670354D01*
X140313584Y-26669648D01*
X139566468Y-26978350D01*
X138994359Y-27549462D01*
X138810931Y-27991203D01*
X138629650Y-27552468D01*
X138058538Y-26980359D01*
X137311963Y-26670354D01*
X136503584Y-26669648D01*
X135756468Y-26978350D01*
X135184359Y-27549462D01*
X135127663Y-27686000D01*
X134620824Y-27686000D01*
X134565650Y-27552468D01*
X133994538Y-26980359D01*
X133247963Y-26670354D01*
X132439584Y-26669648D01*
X131692468Y-26978350D01*
X131120359Y-27549462D01*
X130810354Y-28296037D01*
X130809648Y-29104416D01*
X130853274Y-29210000D01*
X129917155Y-29210000D01*
X129642404Y-28934769D01*
X129082472Y-28702265D01*
X128476188Y-28701736D01*
X128270000Y-28786930D01*
X128270000Y-16509310D01*
X128270000Y-16256691D01*
X128270000Y-13970691D01*
X128173327Y-13737302D01*
X127994699Y-13558673D01*
X127761310Y-13462000D01*
X127508691Y-13462000D01*
X125222691Y-13462000D01*
X124989302Y-13558673D01*
X124810673Y-13737301D01*
X124714000Y-13970690D01*
X124714000Y-14223309D01*
X124714000Y-15581159D01*
X123277159Y-17018000D01*
X120396000Y-17018000D01*
X120007194Y-17095338D01*
X119897821Y-17168419D01*
X119677579Y-17315580D01*
X119411398Y-17581761D01*
X119277963Y-17526354D01*
X118469584Y-17525648D01*
X117722468Y-17834350D01*
X117150359Y-18405462D01*
X116840354Y-19152037D01*
X116839648Y-19960416D01*
X117148350Y-20707532D01*
X117719462Y-21279641D01*
X117856000Y-21336336D01*
X117856000Y-21843175D01*
X117722468Y-21898350D01*
X117150359Y-22469462D01*
X116840354Y-23216037D01*
X116839648Y-24024416D01*
X116896105Y-24161053D01*
X113498159Y-27559000D01*
X112141691Y-27559000D01*
X111908302Y-27655673D01*
X111729673Y-27834301D01*
X111633000Y-28067690D01*
X111633000Y-28320309D01*
X111633000Y-30860309D01*
X111729673Y-31093698D01*
X111908301Y-31272327D01*
X112141690Y-31369000D01*
X112394309Y-31369000D01*
X114934309Y-31369000D01*
X115167698Y-31272327D01*
X115346327Y-31093699D01*
X115443000Y-30860310D01*
X115443000Y-30607691D01*
X115443000Y-28487840D01*
X118332601Y-25598238D01*
X118466037Y-25653646D01*
X119274416Y-25654352D01*
X120021532Y-25345650D01*
X120593641Y-24774538D01*
X120903646Y-24027963D01*
X120904352Y-23219584D01*
X120595650Y-22472468D01*
X120024538Y-21900359D01*
X119888000Y-21843663D01*
X119888000Y-21336824D01*
X120021532Y-21281650D01*
X120593641Y-20710538D01*
X120903646Y-19963963D01*
X120904352Y-19155584D01*
X120860725Y-19050000D01*
X123698000Y-19050000D01*
X123698000Y-19049999D01*
X124022299Y-18985492D01*
X124086806Y-18972662D01*
X124086807Y-18972662D01*
X124416420Y-18752420D01*
X126150840Y-17018000D01*
X127761309Y-17018000D01*
X127994698Y-16921327D01*
X128173327Y-16742699D01*
X128270000Y-16509310D01*
X128270000Y-28786930D01*
X127915851Y-28933262D01*
X127486769Y-29361596D01*
X127254265Y-29921528D01*
X127253736Y-30527812D01*
X127485262Y-31088149D01*
X127892737Y-31496335D01*
X127656750Y-31731910D01*
X127337423Y-31412583D01*
X127337421Y-31412580D01*
X125432420Y-29507580D01*
X125102807Y-29287338D01*
X125038299Y-29274507D01*
X124714000Y-29210000D01*
X122297155Y-29210000D01*
X122043262Y-28955664D01*
X122449231Y-28550404D01*
X122681735Y-27990472D01*
X122682264Y-27384188D01*
X122450738Y-26823851D01*
X122022404Y-26394769D01*
X121462472Y-26162265D01*
X120856188Y-26161736D01*
X120295851Y-26393262D01*
X119866769Y-26821596D01*
X119634265Y-27381528D01*
X119633736Y-27987812D01*
X119865262Y-28548149D01*
X120272737Y-28956335D01*
X119866769Y-29361596D01*
X119634265Y-29921528D01*
X119633736Y-30527812D01*
X119865262Y-31088149D01*
X120272402Y-31496000D01*
X119888005Y-31496000D01*
X119888000Y-31495999D01*
X119401992Y-31592673D01*
X118989974Y-31867974D01*
X118989971Y-31867977D01*
X114554016Y-36303932D01*
X114554352Y-35919584D01*
X114245650Y-35172468D01*
X113674538Y-34600359D01*
X112927963Y-34290354D01*
X112119584Y-34289648D01*
X111372468Y-34598350D01*
X110800359Y-35169462D01*
X110743663Y-35306000D01*
X110490824Y-35306000D01*
X110435650Y-35172468D01*
X109864538Y-34600359D01*
X109117963Y-34290354D01*
X108309584Y-34289648D01*
X107562468Y-34598350D01*
X106990359Y-35169462D01*
X106933663Y-35306000D01*
X106680824Y-35306000D01*
X106625650Y-35172468D01*
X106054538Y-34600359D01*
X105410000Y-34332723D01*
X105410000Y-33905155D01*
X105685231Y-33630404D01*
X105917735Y-33070472D01*
X105918264Y-32464188D01*
X105686738Y-31903851D01*
X105258404Y-31474769D01*
X104698472Y-31242265D01*
X104092188Y-31241736D01*
X103531851Y-31473262D01*
X103123664Y-31880737D01*
X102718404Y-31474769D01*
X102158472Y-31242265D01*
X101552188Y-31241736D01*
X100991851Y-31473262D01*
X100801707Y-31663073D01*
X100741327Y-31517302D01*
X100562699Y-31338673D01*
X100329310Y-31242000D01*
X100076691Y-31242000D01*
X98298691Y-31242000D01*
X98065302Y-31338673D01*
X97886673Y-31517301D01*
X97790000Y-31750690D01*
X97790000Y-32003309D01*
X97790000Y-33781309D01*
X97886673Y-34014698D01*
X98065301Y-34193327D01*
X98298690Y-34290000D01*
X98551309Y-34290000D01*
X100180732Y-34290000D01*
X99434468Y-34598350D01*
X98862359Y-35169462D01*
X98805663Y-35306000D01*
X98298824Y-35306000D01*
X98243650Y-35172468D01*
X97672538Y-34600359D01*
X96925963Y-34290354D01*
X96774000Y-34290221D01*
X96774000Y-32766691D01*
X96677327Y-32533302D01*
X96498699Y-32354673D01*
X96352988Y-32294317D01*
X96541231Y-32106404D01*
X96773735Y-31546472D01*
X96774264Y-30940188D01*
X96542738Y-30379851D01*
X96135262Y-29971664D01*
X96389370Y-29718000D01*
X102870000Y-29718000D01*
X102870000Y-29717999D01*
X103194299Y-29653492D01*
X103258806Y-29640662D01*
X103258807Y-29640662D01*
X103588420Y-29420420D01*
X105112420Y-27896421D01*
X105112420Y-27896420D01*
X105259580Y-27676179D01*
X105332661Y-27566807D01*
X105332662Y-27566806D01*
X105409999Y-27178000D01*
X105410000Y-27178000D01*
X105410000Y-26285155D01*
X105664335Y-26031262D01*
X106069596Y-26437231D01*
X106629528Y-26669735D01*
X107235812Y-26670264D01*
X107796149Y-26438738D01*
X108225231Y-26010404D01*
X108457735Y-25450472D01*
X108458264Y-24844188D01*
X108226738Y-24283851D01*
X107798404Y-23854769D01*
X107238472Y-23622265D01*
X106632188Y-23621736D01*
X106071851Y-23853262D01*
X105663664Y-24260737D01*
X105410000Y-24006629D01*
X105410000Y-21844000D01*
X105663309Y-21844000D01*
X105896698Y-21747327D01*
X106041948Y-21602077D01*
X106253589Y-21743491D01*
X106934000Y-21878833D01*
X107614411Y-21743491D01*
X108191236Y-21358069D01*
X108375699Y-21082000D01*
X112776000Y-21082000D01*
X112776000Y-21081999D01*
X112827625Y-21071730D01*
X112827627Y-21071730D01*
X113157410Y-21208668D01*
X113915265Y-21209330D01*
X114615686Y-20919922D01*
X115152039Y-20384505D01*
X115442668Y-19684590D01*
X115443330Y-18926735D01*
X115416657Y-18862182D01*
X116542420Y-17736420D01*
X116542421Y-17736420D01*
X116762662Y-17406807D01*
X116762662Y-17406806D01*
X116775492Y-17342299D01*
X116839999Y-17018000D01*
X116840000Y-17018000D01*
X117093309Y-17018000D01*
X117326698Y-16921327D01*
X117505327Y-16742699D01*
X117602000Y-16509310D01*
X117602000Y-16256691D01*
X117602000Y-13970691D01*
X117505327Y-13737302D01*
X117326699Y-13558673D01*
X117093310Y-13462000D01*
X116840691Y-13462000D01*
X114554691Y-13462000D01*
X114321302Y-13558673D01*
X114142673Y-13737301D01*
X114046000Y-13970690D01*
X114046000Y-14223309D01*
X114046000Y-16509309D01*
X114142673Y-16742698D01*
X114321301Y-16921327D01*
X114436227Y-16968931D01*
X113980231Y-17424927D01*
X113918590Y-17399332D01*
X113160735Y-17398670D01*
X112460314Y-17688078D01*
X111923961Y-18223495D01*
X111633332Y-18923410D01*
X111633221Y-19050000D01*
X108375699Y-19050000D01*
X108191236Y-18773931D01*
X107614411Y-18388509D01*
X106934000Y-18253167D01*
X106253589Y-18388509D01*
X106041948Y-18529922D01*
X105896699Y-18384673D01*
X105663310Y-18288000D01*
X105410691Y-18288000D01*
X103124691Y-18288000D01*
X102891302Y-18384673D01*
X102712673Y-18563301D01*
X102616000Y-18796690D01*
X102616000Y-19049309D01*
X102616000Y-21335309D01*
X102712673Y-21568698D01*
X102891301Y-21747327D01*
X103124690Y-21844000D01*
X103377309Y-21844000D01*
X103378000Y-21844000D01*
X103378000Y-24006844D01*
X103124000Y-24260402D01*
X103124000Y-23114000D01*
X103027327Y-22627992D01*
X102752026Y-22215974D01*
X102752022Y-22215971D01*
X101228026Y-20691974D01*
X100816008Y-20416673D01*
X100330000Y-20319999D01*
X100329994Y-20320000D01*
X93980000Y-20320000D01*
X93493992Y-20416673D01*
X93081974Y-20691974D01*
X93081971Y-20691977D01*
X91694000Y-22079948D01*
X91694000Y-19383391D01*
X92145641Y-18932538D01*
X92455646Y-18185963D01*
X92456352Y-17377584D01*
X92147650Y-16630468D01*
X91576538Y-16058359D01*
X90829963Y-15748354D01*
X90021584Y-15747648D01*
X89274468Y-16056350D01*
X88702359Y-16627462D01*
X88392354Y-17374037D01*
X88391648Y-18182416D01*
X88700350Y-18929532D01*
X89154000Y-19383973D01*
X89154000Y-25145994D01*
X89153999Y-25146000D01*
X89154000Y-25146005D01*
X89154000Y-40385994D01*
X89153999Y-40386000D01*
X89250673Y-40872008D01*
X89525974Y-41284026D01*
X90922971Y-42681022D01*
X90922974Y-42681026D01*
X94488205Y-46246256D01*
X94487648Y-46884416D01*
X94796350Y-47631532D01*
X95367462Y-48203641D01*
X96114037Y-48513646D01*
X96519371Y-48514000D01*
X94506051Y-48514000D01*
X86242026Y-40249974D01*
X85830008Y-39974673D01*
X85344000Y-39877999D01*
X85343994Y-39878000D01*
X85089713Y-39878000D01*
X84993327Y-39645302D01*
X84814699Y-39466673D01*
X84581310Y-39370000D01*
X84328691Y-39370000D01*
X82042691Y-39370000D01*
X81809302Y-39466673D01*
X81736000Y-39539974D01*
X81736000Y-12902000D01*
X198172000Y-12902000D01*
X198172000Y-15409974D01*
G36*
X198172000Y-54017974D02*
X198098699Y-53944673D01*
X197865310Y-53848000D01*
X197612691Y-53848000D01*
X195661551Y-53848000D01*
X195643500Y-53829948D01*
X195643500Y-46182551D01*
X195788757Y-46037294D01*
X196426916Y-46037852D01*
X197174032Y-45729150D01*
X197746141Y-45158038D01*
X198056146Y-44411463D01*
X198056852Y-43603084D01*
X197748150Y-42855968D01*
X197177038Y-42283859D01*
X196430463Y-41973854D01*
X195622084Y-41973148D01*
X194874968Y-42281850D01*
X194302859Y-42852962D01*
X193992854Y-43599537D01*
X193992293Y-44241655D01*
X193611500Y-44622448D01*
X193611500Y-23129781D01*
X194126641Y-22615538D01*
X194436646Y-21868963D01*
X194437317Y-21099733D01*
X196741051Y-18796000D01*
X197865309Y-18796000D01*
X198098698Y-18699327D01*
X198172000Y-18626025D01*
X198172000Y-54017974D01*
X198172000Y-54017974D01*
G37*
X198172000Y-54017974D02*
X198098699Y-53944673D01*
X197865310Y-53848000D01*
X197612691Y-53848000D01*
X195661551Y-53848000D01*
X195643500Y-53829948D01*
X195643500Y-46182551D01*
X195788757Y-46037294D01*
X196426916Y-46037852D01*
X197174032Y-45729150D01*
X197746141Y-45158038D01*
X198056146Y-44411463D01*
X198056852Y-43603084D01*
X197748150Y-42855968D01*
X197177038Y-42283859D01*
X196430463Y-41973854D01*
X195622084Y-41973148D01*
X194874968Y-42281850D01*
X194302859Y-42852962D01*
X193992854Y-43599537D01*
X193992293Y-44241655D01*
X193611500Y-44622448D01*
X193611500Y-23129781D01*
X194126641Y-22615538D01*
X194436646Y-21868963D01*
X194437317Y-21099733D01*
X196741051Y-18796000D01*
X197865309Y-18796000D01*
X198098698Y-18699327D01*
X198172000Y-18626025D01*
X198172000Y-54017974D01*
M02*
