M48
INCH,TZ
T1C0.030
T2C0.030
T3C0.035
T4C0.045
%
G90
G05
T1
X53102Y-30480
X53102Y-31465
X53102Y-32449
X58811Y-30480
X58811Y-31465
X58811Y-32449
T2
X37500Y-11300
X37500Y-12300
X37500Y-13300
T3
X39100Y-9900
X39100Y-12900
X40100Y-9900
X40100Y-12900
X41100Y-9900
X41100Y-12900
X42100Y-9900
X42100Y-12900
X47700Y-10900
X47700Y-11900
X47700Y-12900
X47700Y-13900
X50700Y-10900
X50700Y-11900
X50700Y-12900
X50700Y-13900
X58450Y-18996
X58450Y-19996
X58450Y-20996
X58450Y-21996
X61450Y-18996
X61450Y-19996
X61450Y-20996
X61450Y-21996
X71500Y-16600
X71500Y-19600
X72500Y-16600
X72500Y-19600
X73500Y-16600
X73500Y-19600
X74500Y-16600
X74500Y-19600
T4
X32800Y-16200
X32800Y-17200
X32800Y-20800
X32800Y-21800
X35600Y-7000
X38000Y-14300
X38000Y-18300
X39600Y-14300
X39600Y-18300
X41100Y-7900
X41300Y-14300
X41300Y-18300
X42100Y-7900
X42800Y-14300
X42800Y-18300
X43400Y-12700
X44300Y-14300
X44300Y-18300
X44700Y-7600
X44700Y-11600
X45600Y-6000
X46600Y-6000
X46600Y-15300
X46600Y-17200
X46600Y-18200
X46800Y-7700
X46800Y-9300
X48100Y-6000
X49800Y-6000
X50600Y-15300
X50800Y-6000
X50800Y-7700
X50800Y-9300
X50800Y-18000
X52300Y-11300
X52300Y-15300
X52400Y-6000
X53100Y-18500
X53100Y-19800
X53100Y-21200
X53100Y-22500
X53600Y-8900
X53894Y-25946
X53900Y-11300
X53900Y-15300
X55400Y-11300
X55400Y-15300
X56400Y-17200
X56500Y-9000
X56700Y-24400
X57000Y-11300
X57000Y-15300
X57100Y-18500
X57100Y-19800
X57100Y-21200
X57100Y-22500
X57894Y-25946
X58500Y-23100
X58600Y-11300
X58600Y-15300
X59700Y-26000
X60400Y-17200
X60484Y-28480
X60484Y-32480
X60700Y-24400
X60700Y-26000
X62059Y-28480
X62059Y-32480
X63400Y-11100
X63800Y-14000
X64400Y-11100
X64600Y-15600
X64600Y-19600
X64800Y-14000
X66000Y-15600
X66000Y-19600
X67500Y-14200
X67500Y-15600
X67500Y-19600
X68400Y-12700
X68900Y-15600
X68900Y-19600
X70200Y-8425
X70300Y-15600
X70300Y-19600
X71500Y-14200
X71600Y-15600
X71750Y-8450
X72400Y-12700
X75750Y-8450
X75900Y-5700
X77175Y-13325
X77175Y-17325
X77225Y-11750
X77400Y-5700
X77400Y-6700
X77400Y-20900
X77400Y-21900
X77600Y-19700
T0
M30
